<?xml version="1.0" encoding="utf-8" standalone="no"?>
<!DOCTYPE svg PUBLIC "-//W3C//DTD SVG 1.1//EN"
  "http://www.w3.org/Graphics/SVG/1.1/DTD/svg11.dtd">
<!-- Created with matplotlib (http://matplotlib.org/) -->
<svg height="265pt" version="1.1" viewBox="0 0 393 265" width="393pt" xmlns="http://www.w3.org/2000/svg" xmlns:xlink="http://www.w3.org/1999/xlink">
 <defs>
  <style type="text/css">
*{stroke-linecap:butt;stroke-linejoin:round;}
  </style>
 </defs>
 <g id="figure_1">
  <g id="patch_1">
   <path d="M 0 265.69625 
L 393.732813 265.69625 
L 393.732813 0 
L 0 0 
z
" style="fill:#ffffff;"/>
  </g>
  <g id="axes_1">
   <g id="patch_2">
    <path d="M 43.78125 228.14 
L 378.58125 228.14 
L 378.58125 10.7 
L 43.78125 10.7 
z
" style="fill:#ffffff;"/>
   </g>
   <g id="matplotlib.axis_1">
    <g id="xtick_1">
     <g id="line2d_1">
      <defs>
       <path d="M 0 0 
L 0 3.5 
" id="m7f50f1a40c" style="stroke:#000000;stroke-width:0.8;"/>
      </defs>
      <g>
       <use style="stroke:#000000;stroke-width:0.8;" x="43.78125" xlink:href="#m7f50f1a40c" y="228.14"/>
      </g>
     </g>
     <g id="text_1">
      <!-- 0.0 -->
      <defs>
       <path d="M 31.78125 66.40625 
Q 24.171875 66.40625 20.328125 58.90625 
Q 16.5 51.421875 16.5 36.375 
Q 16.5 21.390625 20.328125 13.890625 
Q 24.171875 6.390625 31.78125 6.390625 
Q 39.453125 6.390625 43.28125 13.890625 
Q 47.125 21.390625 47.125 36.375 
Q 47.125 51.421875 43.28125 58.90625 
Q 39.453125 66.40625 31.78125 66.40625 
z
M 31.78125 74.21875 
Q 44.046875 74.21875 50.515625 64.515625 
Q 56.984375 54.828125 56.984375 36.375 
Q 56.984375 17.96875 50.515625 8.265625 
Q 44.046875 -1.421875 31.78125 -1.421875 
Q 19.53125 -1.421875 13.0625 8.265625 
Q 6.59375 17.96875 6.59375 36.375 
Q 6.59375 54.828125 13.0625 64.515625 
Q 19.53125 74.21875 31.78125 74.21875 
z
" id="DejaVuSans-30"/>
       <path d="M 10.6875 12.40625 
L 21 12.40625 
L 21 0 
L 10.6875 0 
z
" id="DejaVuSans-2e"/>
      </defs>
      <g transform="translate(35.829688 242.738437)scale(0.1 -0.1)">
       <use xlink:href="#DejaVuSans-30"/>
       <use x="63.623047" xlink:href="#DejaVuSans-2e"/>
       <use x="95.410156" xlink:href="#DejaVuSans-30"/>
      </g>
     </g>
    </g>
    <g id="xtick_2">
     <g id="line2d_2">
      <g>
       <use style="stroke:#000000;stroke-width:0.8;" x="110.74125" xlink:href="#m7f50f1a40c" y="228.14"/>
      </g>
     </g>
     <g id="text_2">
      <!-- 0.2 -->
      <defs>
       <path d="M 19.1875 8.296875 
L 53.609375 8.296875 
L 53.609375 0 
L 7.328125 0 
L 7.328125 8.296875 
Q 12.9375 14.109375 22.625 23.890625 
Q 32.328125 33.6875 34.8125 36.53125 
Q 39.546875 41.84375 41.421875 45.53125 
Q 43.3125 49.21875 43.3125 52.78125 
Q 43.3125 58.59375 39.234375 62.25 
Q 35.15625 65.921875 28.609375 65.921875 
Q 23.96875 65.921875 18.8125 64.3125 
Q 13.671875 62.703125 7.8125 59.421875 
L 7.8125 69.390625 
Q 13.765625 71.78125 18.9375 73 
Q 24.125 74.21875 28.421875 74.21875 
Q 39.75 74.21875 46.484375 68.546875 
Q 53.21875 62.890625 53.21875 53.421875 
Q 53.21875 48.921875 51.53125 44.890625 
Q 49.859375 40.875 45.40625 35.40625 
Q 44.1875 33.984375 37.640625 27.21875 
Q 31.109375 20.453125 19.1875 8.296875 
z
" id="DejaVuSans-32"/>
      </defs>
      <g transform="translate(102.789688 242.738437)scale(0.1 -0.1)">
       <use xlink:href="#DejaVuSans-30"/>
       <use x="63.623047" xlink:href="#DejaVuSans-2e"/>
       <use x="95.410156" xlink:href="#DejaVuSans-32"/>
      </g>
     </g>
    </g>
    <g id="xtick_3">
     <g id="line2d_3">
      <g>
       <use style="stroke:#000000;stroke-width:0.8;" x="177.70125" xlink:href="#m7f50f1a40c" y="228.14"/>
      </g>
     </g>
     <g id="text_3">
      <!-- 0.4 -->
      <defs>
       <path d="M 37.796875 64.3125 
L 12.890625 25.390625 
L 37.796875 25.390625 
z
M 35.203125 72.90625 
L 47.609375 72.90625 
L 47.609375 25.390625 
L 58.015625 25.390625 
L 58.015625 17.1875 
L 47.609375 17.1875 
L 47.609375 0 
L 37.796875 0 
L 37.796875 17.1875 
L 4.890625 17.1875 
L 4.890625 26.703125 
z
" id="DejaVuSans-34"/>
      </defs>
      <g transform="translate(169.749688 242.738437)scale(0.1 -0.1)">
       <use xlink:href="#DejaVuSans-30"/>
       <use x="63.623047" xlink:href="#DejaVuSans-2e"/>
       <use x="95.410156" xlink:href="#DejaVuSans-34"/>
      </g>
     </g>
    </g>
    <g id="xtick_4">
     <g id="line2d_4">
      <g>
       <use style="stroke:#000000;stroke-width:0.8;" x="244.66125" xlink:href="#m7f50f1a40c" y="228.14"/>
      </g>
     </g>
     <g id="text_4">
      <!-- 0.6 -->
      <defs>
       <path d="M 33.015625 40.375 
Q 26.375 40.375 22.484375 35.828125 
Q 18.609375 31.296875 18.609375 23.390625 
Q 18.609375 15.53125 22.484375 10.953125 
Q 26.375 6.390625 33.015625 6.390625 
Q 39.65625 6.390625 43.53125 10.953125 
Q 47.40625 15.53125 47.40625 23.390625 
Q 47.40625 31.296875 43.53125 35.828125 
Q 39.65625 40.375 33.015625 40.375 
z
M 52.59375 71.296875 
L 52.59375 62.3125 
Q 48.875 64.0625 45.09375 64.984375 
Q 41.3125 65.921875 37.59375 65.921875 
Q 27.828125 65.921875 22.671875 59.328125 
Q 17.53125 52.734375 16.796875 39.40625 
Q 19.671875 43.65625 24.015625 45.921875 
Q 28.375 48.1875 33.59375 48.1875 
Q 44.578125 48.1875 50.953125 41.515625 
Q 57.328125 34.859375 57.328125 23.390625 
Q 57.328125 12.15625 50.6875 5.359375 
Q 44.046875 -1.421875 33.015625 -1.421875 
Q 20.359375 -1.421875 13.671875 8.265625 
Q 6.984375 17.96875 6.984375 36.375 
Q 6.984375 53.65625 15.1875 63.9375 
Q 23.390625 74.21875 37.203125 74.21875 
Q 40.921875 74.21875 44.703125 73.484375 
Q 48.484375 72.75 52.59375 71.296875 
z
" id="DejaVuSans-36"/>
      </defs>
      <g transform="translate(236.709688 242.738437)scale(0.1 -0.1)">
       <use xlink:href="#DejaVuSans-30"/>
       <use x="63.623047" xlink:href="#DejaVuSans-2e"/>
       <use x="95.410156" xlink:href="#DejaVuSans-36"/>
      </g>
     </g>
    </g>
    <g id="xtick_5">
     <g id="line2d_5">
      <g>
       <use style="stroke:#000000;stroke-width:0.8;" x="311.62125" xlink:href="#m7f50f1a40c" y="228.14"/>
      </g>
     </g>
     <g id="text_5">
      <!-- 0.8 -->
      <defs>
       <path d="M 31.78125 34.625 
Q 24.75 34.625 20.71875 30.859375 
Q 16.703125 27.09375 16.703125 20.515625 
Q 16.703125 13.921875 20.71875 10.15625 
Q 24.75 6.390625 31.78125 6.390625 
Q 38.8125 6.390625 42.859375 10.171875 
Q 46.921875 13.96875 46.921875 20.515625 
Q 46.921875 27.09375 42.890625 30.859375 
Q 38.875 34.625 31.78125 34.625 
z
M 21.921875 38.8125 
Q 15.578125 40.375 12.03125 44.71875 
Q 8.5 49.078125 8.5 55.328125 
Q 8.5 64.0625 14.71875 69.140625 
Q 20.953125 74.21875 31.78125 74.21875 
Q 42.671875 74.21875 48.875 69.140625 
Q 55.078125 64.0625 55.078125 55.328125 
Q 55.078125 49.078125 51.53125 44.71875 
Q 48 40.375 41.703125 38.8125 
Q 48.828125 37.15625 52.796875 32.3125 
Q 56.78125 27.484375 56.78125 20.515625 
Q 56.78125 9.90625 50.3125 4.234375 
Q 43.84375 -1.421875 31.78125 -1.421875 
Q 19.734375 -1.421875 13.25 4.234375 
Q 6.78125 9.90625 6.78125 20.515625 
Q 6.78125 27.484375 10.78125 32.3125 
Q 14.796875 37.15625 21.921875 38.8125 
z
M 18.3125 54.390625 
Q 18.3125 48.734375 21.84375 45.5625 
Q 25.390625 42.390625 31.78125 42.390625 
Q 38.140625 42.390625 41.71875 45.5625 
Q 45.3125 48.734375 45.3125 54.390625 
Q 45.3125 60.0625 41.71875 63.234375 
Q 38.140625 66.40625 31.78125 66.40625 
Q 25.390625 66.40625 21.84375 63.234375 
Q 18.3125 60.0625 18.3125 54.390625 
z
" id="DejaVuSans-38"/>
      </defs>
      <g transform="translate(303.669688 242.738437)scale(0.1 -0.1)">
       <use xlink:href="#DejaVuSans-30"/>
       <use x="63.623047" xlink:href="#DejaVuSans-2e"/>
       <use x="95.410156" xlink:href="#DejaVuSans-38"/>
      </g>
     </g>
    </g>
    <g id="xtick_6">
     <g id="line2d_6">
      <g>
       <use style="stroke:#000000;stroke-width:0.8;" x="378.58125" xlink:href="#m7f50f1a40c" y="228.14"/>
      </g>
     </g>
     <g id="text_6">
      <!-- 1.0 -->
      <defs>
       <path d="M 12.40625 8.296875 
L 28.515625 8.296875 
L 28.515625 63.921875 
L 10.984375 60.40625 
L 10.984375 69.390625 
L 28.421875 72.90625 
L 38.28125 72.90625 
L 38.28125 8.296875 
L 54.390625 8.296875 
L 54.390625 0 
L 12.40625 0 
z
" id="DejaVuSans-31"/>
      </defs>
      <g transform="translate(370.629687 242.738437)scale(0.1 -0.1)">
       <use xlink:href="#DejaVuSans-31"/>
       <use x="63.623047" xlink:href="#DejaVuSans-2e"/>
       <use x="95.410156" xlink:href="#DejaVuSans-30"/>
      </g>
     </g>
    </g>
    <g id="text_7">
     <!-- $\lambda$ -->
     <defs>
      <path d="M 36.71875 67.4375 
L 48.828125 0 
L 39.3125 0 
L 31.84375 40.4375 
L 5.125 0 
L -4.390625 0 
L 29.734375 52.4375 
L 28.03125 62.109375 
Q 26.953125 68.265625 21.734375 68.265625 
L 17.046875 68.265625 
L 18.5 75.984375 
L 24.21875 75.875 
Q 35.203125 75.734375 36.71875 67.4375 
z
" id="DejaVuSans-Oblique-3bb"/>
     </defs>
     <g transform="translate(208.18125 256.416562)scale(0.1 -0.1)">
      <use transform="translate(0 0.015625)" xlink:href="#DejaVuSans-Oblique-3bb"/>
     </g>
    </g>
   </g>
   <g id="matplotlib.axis_2">
    <g id="ytick_1">
     <g id="line2d_7">
      <defs>
       <path d="M 0 0 
L -3.5 0 
" id="mabef01255e" style="stroke:#000000;stroke-width:0.8;"/>
      </defs>
      <g>
       <use style="stroke:#000000;stroke-width:0.8;" x="43.78125" xlink:href="#mabef01255e" y="228.14"/>
      </g>
     </g>
     <g id="text_8">
      <!-- 0.0 -->
      <g transform="translate(20.878125 231.939219)scale(0.1 -0.1)">
       <use xlink:href="#DejaVuSans-30"/>
       <use x="63.623047" xlink:href="#DejaVuSans-2e"/>
       <use x="95.410156" xlink:href="#DejaVuSans-30"/>
      </g>
     </g>
    </g>
    <g id="ytick_2">
     <g id="line2d_8">
      <g>
       <use style="stroke:#000000;stroke-width:0.8;" x="43.78125" xlink:href="#mabef01255e" y="188.605455"/>
      </g>
     </g>
     <g id="text_9">
      <!-- 0.2 -->
      <g transform="translate(20.878125 192.404673)scale(0.1 -0.1)">
       <use xlink:href="#DejaVuSans-30"/>
       <use x="63.623047" xlink:href="#DejaVuSans-2e"/>
       <use x="95.410156" xlink:href="#DejaVuSans-32"/>
      </g>
     </g>
    </g>
    <g id="ytick_3">
     <g id="line2d_9">
      <g>
       <use style="stroke:#000000;stroke-width:0.8;" x="43.78125" xlink:href="#mabef01255e" y="149.070909"/>
      </g>
     </g>
     <g id="text_10">
      <!-- 0.4 -->
      <g transform="translate(20.878125 152.870128)scale(0.1 -0.1)">
       <use xlink:href="#DejaVuSans-30"/>
       <use x="63.623047" xlink:href="#DejaVuSans-2e"/>
       <use x="95.410156" xlink:href="#DejaVuSans-34"/>
      </g>
     </g>
    </g>
    <g id="ytick_4">
     <g id="line2d_10">
      <g>
       <use style="stroke:#000000;stroke-width:0.8;" x="43.78125" xlink:href="#mabef01255e" y="109.536364"/>
      </g>
     </g>
     <g id="text_11">
      <!-- 0.6 -->
      <g transform="translate(20.878125 113.335582)scale(0.1 -0.1)">
       <use xlink:href="#DejaVuSans-30"/>
       <use x="63.623047" xlink:href="#DejaVuSans-2e"/>
       <use x="95.410156" xlink:href="#DejaVuSans-36"/>
      </g>
     </g>
    </g>
    <g id="ytick_5">
     <g id="line2d_11">
      <g>
       <use style="stroke:#000000;stroke-width:0.8;" x="43.78125" xlink:href="#mabef01255e" y="70.001818"/>
      </g>
     </g>
     <g id="text_12">
      <!-- 0.8 -->
      <g transform="translate(20.878125 73.801037)scale(0.1 -0.1)">
       <use xlink:href="#DejaVuSans-30"/>
       <use x="63.623047" xlink:href="#DejaVuSans-2e"/>
       <use x="95.410156" xlink:href="#DejaVuSans-38"/>
      </g>
     </g>
    </g>
    <g id="ytick_6">
     <g id="line2d_12">
      <g>
       <use style="stroke:#000000;stroke-width:0.8;" x="43.78125" xlink:href="#mabef01255e" y="30.467273"/>
      </g>
     </g>
     <g id="text_13">
      <!-- 1.0 -->
      <g transform="translate(20.878125 34.266491)scale(0.1 -0.1)">
       <use xlink:href="#DejaVuSans-31"/>
       <use x="63.623047" xlink:href="#DejaVuSans-2e"/>
       <use x="95.410156" xlink:href="#DejaVuSans-30"/>
      </g>
     </g>
    </g>
    <g id="text_14">
     <!-- CPU cost normalized to Only Importance -->
     <defs>
      <path d="M 64.40625 67.28125 
L 64.40625 56.890625 
Q 59.421875 61.53125 53.78125 63.8125 
Q 48.140625 66.109375 41.796875 66.109375 
Q 29.296875 66.109375 22.65625 58.46875 
Q 16.015625 50.828125 16.015625 36.375 
Q 16.015625 21.96875 22.65625 14.328125 
Q 29.296875 6.6875 41.796875 6.6875 
Q 48.140625 6.6875 53.78125 8.984375 
Q 59.421875 11.28125 64.40625 15.921875 
L 64.40625 5.609375 
Q 59.234375 2.09375 53.4375 0.328125 
Q 47.65625 -1.421875 41.21875 -1.421875 
Q 24.65625 -1.421875 15.125 8.703125 
Q 5.609375 18.84375 5.609375 36.375 
Q 5.609375 53.953125 15.125 64.078125 
Q 24.65625 74.21875 41.21875 74.21875 
Q 47.75 74.21875 53.53125 72.484375 
Q 59.328125 70.75 64.40625 67.28125 
z
" id="DejaVuSans-43"/>
      <path d="M 19.671875 64.796875 
L 19.671875 37.40625 
L 32.078125 37.40625 
Q 38.96875 37.40625 42.71875 40.96875 
Q 46.484375 44.53125 46.484375 51.125 
Q 46.484375 57.671875 42.71875 61.234375 
Q 38.96875 64.796875 32.078125 64.796875 
z
M 9.8125 72.90625 
L 32.078125 72.90625 
Q 44.34375 72.90625 50.609375 67.359375 
Q 56.890625 61.8125 56.890625 51.125 
Q 56.890625 40.328125 50.609375 34.8125 
Q 44.34375 29.296875 32.078125 29.296875 
L 19.671875 29.296875 
L 19.671875 0 
L 9.8125 0 
z
" id="DejaVuSans-50"/>
      <path d="M 8.6875 72.90625 
L 18.609375 72.90625 
L 18.609375 28.609375 
Q 18.609375 16.890625 22.84375 11.734375 
Q 27.09375 6.59375 36.625 6.59375 
Q 46.09375 6.59375 50.34375 11.734375 
Q 54.59375 16.890625 54.59375 28.609375 
L 54.59375 72.90625 
L 64.5 72.90625 
L 64.5 27.390625 
Q 64.5 13.140625 57.4375 5.859375 
Q 50.390625 -1.421875 36.625 -1.421875 
Q 22.796875 -1.421875 15.734375 5.859375 
Q 8.6875 13.140625 8.6875 27.390625 
z
" id="DejaVuSans-55"/>
      <path id="DejaVuSans-20"/>
      <path d="M 48.78125 52.59375 
L 48.78125 44.1875 
Q 44.96875 46.296875 41.140625 47.34375 
Q 37.3125 48.390625 33.40625 48.390625 
Q 24.65625 48.390625 19.8125 42.84375 
Q 14.984375 37.3125 14.984375 27.296875 
Q 14.984375 17.28125 19.8125 11.734375 
Q 24.65625 6.203125 33.40625 6.203125 
Q 37.3125 6.203125 41.140625 7.25 
Q 44.96875 8.296875 48.78125 10.40625 
L 48.78125 2.09375 
Q 45.015625 0.34375 40.984375 -0.53125 
Q 36.96875 -1.421875 32.421875 -1.421875 
Q 20.0625 -1.421875 12.78125 6.34375 
Q 5.515625 14.109375 5.515625 27.296875 
Q 5.515625 40.671875 12.859375 48.328125 
Q 20.21875 56 33.015625 56 
Q 37.15625 56 41.109375 55.140625 
Q 45.0625 54.296875 48.78125 52.59375 
z
" id="DejaVuSans-63"/>
      <path d="M 30.609375 48.390625 
Q 23.390625 48.390625 19.1875 42.75 
Q 14.984375 37.109375 14.984375 27.296875 
Q 14.984375 17.484375 19.15625 11.84375 
Q 23.34375 6.203125 30.609375 6.203125 
Q 37.796875 6.203125 41.984375 11.859375 
Q 46.1875 17.53125 46.1875 27.296875 
Q 46.1875 37.015625 41.984375 42.703125 
Q 37.796875 48.390625 30.609375 48.390625 
z
M 30.609375 56 
Q 42.328125 56 49.015625 48.375 
Q 55.71875 40.765625 55.71875 27.296875 
Q 55.71875 13.875 49.015625 6.21875 
Q 42.328125 -1.421875 30.609375 -1.421875 
Q 18.84375 -1.421875 12.171875 6.21875 
Q 5.515625 13.875 5.515625 27.296875 
Q 5.515625 40.765625 12.171875 48.375 
Q 18.84375 56 30.609375 56 
z
" id="DejaVuSans-6f"/>
      <path d="M 44.28125 53.078125 
L 44.28125 44.578125 
Q 40.484375 46.53125 36.375 47.5 
Q 32.28125 48.484375 27.875 48.484375 
Q 21.1875 48.484375 17.84375 46.4375 
Q 14.5 44.390625 14.5 40.28125 
Q 14.5 37.15625 16.890625 35.375 
Q 19.28125 33.59375 26.515625 31.984375 
L 29.59375 31.296875 
Q 39.15625 29.25 43.1875 25.515625 
Q 47.21875 21.78125 47.21875 15.09375 
Q 47.21875 7.46875 41.1875 3.015625 
Q 35.15625 -1.421875 24.609375 -1.421875 
Q 20.21875 -1.421875 15.453125 -0.5625 
Q 10.6875 0.296875 5.421875 2 
L 5.421875 11.28125 
Q 10.40625 8.6875 15.234375 7.390625 
Q 20.0625 6.109375 24.8125 6.109375 
Q 31.15625 6.109375 34.5625 8.28125 
Q 37.984375 10.453125 37.984375 14.40625 
Q 37.984375 18.0625 35.515625 20.015625 
Q 33.0625 21.96875 24.703125 23.78125 
L 21.578125 24.515625 
Q 13.234375 26.265625 9.515625 29.90625 
Q 5.8125 33.546875 5.8125 39.890625 
Q 5.8125 47.609375 11.28125 51.796875 
Q 16.75 56 26.8125 56 
Q 31.78125 56 36.171875 55.265625 
Q 40.578125 54.546875 44.28125 53.078125 
z
" id="DejaVuSans-73"/>
      <path d="M 18.3125 70.21875 
L 18.3125 54.6875 
L 36.8125 54.6875 
L 36.8125 47.703125 
L 18.3125 47.703125 
L 18.3125 18.015625 
Q 18.3125 11.328125 20.140625 9.421875 
Q 21.96875 7.515625 27.59375 7.515625 
L 36.8125 7.515625 
L 36.8125 0 
L 27.59375 0 
Q 17.1875 0 13.234375 3.875 
Q 9.28125 7.765625 9.28125 18.015625 
L 9.28125 47.703125 
L 2.6875 47.703125 
L 2.6875 54.6875 
L 9.28125 54.6875 
L 9.28125 70.21875 
z
" id="DejaVuSans-74"/>
      <path d="M 54.890625 33.015625 
L 54.890625 0 
L 45.90625 0 
L 45.90625 32.71875 
Q 45.90625 40.484375 42.875 44.328125 
Q 39.84375 48.1875 33.796875 48.1875 
Q 26.515625 48.1875 22.3125 43.546875 
Q 18.109375 38.921875 18.109375 30.90625 
L 18.109375 0 
L 9.078125 0 
L 9.078125 54.6875 
L 18.109375 54.6875 
L 18.109375 46.1875 
Q 21.34375 51.125 25.703125 53.5625 
Q 30.078125 56 35.796875 56 
Q 45.21875 56 50.046875 50.171875 
Q 54.890625 44.34375 54.890625 33.015625 
z
" id="DejaVuSans-6e"/>
      <path d="M 41.109375 46.296875 
Q 39.59375 47.171875 37.8125 47.578125 
Q 36.03125 48 33.890625 48 
Q 26.265625 48 22.1875 43.046875 
Q 18.109375 38.09375 18.109375 28.8125 
L 18.109375 0 
L 9.078125 0 
L 9.078125 54.6875 
L 18.109375 54.6875 
L 18.109375 46.1875 
Q 20.953125 51.171875 25.484375 53.578125 
Q 30.03125 56 36.53125 56 
Q 37.453125 56 38.578125 55.875 
Q 39.703125 55.765625 41.0625 55.515625 
z
" id="DejaVuSans-72"/>
      <path d="M 52 44.1875 
Q 55.375 50.25 60.0625 53.125 
Q 64.75 56 71.09375 56 
Q 79.640625 56 84.28125 50.015625 
Q 88.921875 44.046875 88.921875 33.015625 
L 88.921875 0 
L 79.890625 0 
L 79.890625 32.71875 
Q 79.890625 40.578125 77.09375 44.375 
Q 74.3125 48.1875 68.609375 48.1875 
Q 61.625 48.1875 57.5625 43.546875 
Q 53.515625 38.921875 53.515625 30.90625 
L 53.515625 0 
L 44.484375 0 
L 44.484375 32.71875 
Q 44.484375 40.625 41.703125 44.40625 
Q 38.921875 48.1875 33.109375 48.1875 
Q 26.21875 48.1875 22.15625 43.53125 
Q 18.109375 38.875 18.109375 30.90625 
L 18.109375 0 
L 9.078125 0 
L 9.078125 54.6875 
L 18.109375 54.6875 
L 18.109375 46.1875 
Q 21.1875 51.21875 25.484375 53.609375 
Q 29.78125 56 35.6875 56 
Q 41.65625 56 45.828125 52.96875 
Q 50 49.953125 52 44.1875 
z
" id="DejaVuSans-6d"/>
      <path d="M 34.28125 27.484375 
Q 23.390625 27.484375 19.1875 25 
Q 14.984375 22.515625 14.984375 16.5 
Q 14.984375 11.71875 18.140625 8.90625 
Q 21.296875 6.109375 26.703125 6.109375 
Q 34.1875 6.109375 38.703125 11.40625 
Q 43.21875 16.703125 43.21875 25.484375 
L 43.21875 27.484375 
z
M 52.203125 31.203125 
L 52.203125 0 
L 43.21875 0 
L 43.21875 8.296875 
Q 40.140625 3.328125 35.546875 0.953125 
Q 30.953125 -1.421875 24.3125 -1.421875 
Q 15.921875 -1.421875 10.953125 3.296875 
Q 6 8.015625 6 15.921875 
Q 6 25.140625 12.171875 29.828125 
Q 18.359375 34.515625 30.609375 34.515625 
L 43.21875 34.515625 
L 43.21875 35.40625 
Q 43.21875 41.609375 39.140625 45 
Q 35.0625 48.390625 27.6875 48.390625 
Q 23 48.390625 18.546875 47.265625 
Q 14.109375 46.140625 10.015625 43.890625 
L 10.015625 52.203125 
Q 14.9375 54.109375 19.578125 55.046875 
Q 24.21875 56 28.609375 56 
Q 40.484375 56 46.34375 49.84375 
Q 52.203125 43.703125 52.203125 31.203125 
z
" id="DejaVuSans-61"/>
      <path d="M 9.421875 75.984375 
L 18.40625 75.984375 
L 18.40625 0 
L 9.421875 0 
z
" id="DejaVuSans-6c"/>
      <path d="M 9.421875 54.6875 
L 18.40625 54.6875 
L 18.40625 0 
L 9.421875 0 
z
M 9.421875 75.984375 
L 18.40625 75.984375 
L 18.40625 64.59375 
L 9.421875 64.59375 
z
" id="DejaVuSans-69"/>
      <path d="M 5.515625 54.6875 
L 48.1875 54.6875 
L 48.1875 46.484375 
L 14.40625 7.171875 
L 48.1875 7.171875 
L 48.1875 0 
L 4.296875 0 
L 4.296875 8.203125 
L 38.09375 47.515625 
L 5.515625 47.515625 
z
" id="DejaVuSans-7a"/>
      <path d="M 56.203125 29.59375 
L 56.203125 25.203125 
L 14.890625 25.203125 
Q 15.484375 15.921875 20.484375 11.0625 
Q 25.484375 6.203125 34.421875 6.203125 
Q 39.59375 6.203125 44.453125 7.46875 
Q 49.3125 8.734375 54.109375 11.28125 
L 54.109375 2.78125 
Q 49.265625 0.734375 44.1875 -0.34375 
Q 39.109375 -1.421875 33.890625 -1.421875 
Q 20.796875 -1.421875 13.15625 6.1875 
Q 5.515625 13.8125 5.515625 26.8125 
Q 5.515625 40.234375 12.765625 48.109375 
Q 20.015625 56 32.328125 56 
Q 43.359375 56 49.78125 48.890625 
Q 56.203125 41.796875 56.203125 29.59375 
z
M 47.21875 32.234375 
Q 47.125 39.59375 43.09375 43.984375 
Q 39.0625 48.390625 32.421875 48.390625 
Q 24.90625 48.390625 20.390625 44.140625 
Q 15.875 39.890625 15.1875 32.171875 
z
" id="DejaVuSans-65"/>
      <path d="M 45.40625 46.390625 
L 45.40625 75.984375 
L 54.390625 75.984375 
L 54.390625 0 
L 45.40625 0 
L 45.40625 8.203125 
Q 42.578125 3.328125 38.25 0.953125 
Q 33.9375 -1.421875 27.875 -1.421875 
Q 17.96875 -1.421875 11.734375 6.484375 
Q 5.515625 14.40625 5.515625 27.296875 
Q 5.515625 40.1875 11.734375 48.09375 
Q 17.96875 56 27.875 56 
Q 33.9375 56 38.25 53.625 
Q 42.578125 51.265625 45.40625 46.390625 
z
M 14.796875 27.296875 
Q 14.796875 17.390625 18.875 11.75 
Q 22.953125 6.109375 30.078125 6.109375 
Q 37.203125 6.109375 41.296875 11.75 
Q 45.40625 17.390625 45.40625 27.296875 
Q 45.40625 37.203125 41.296875 42.84375 
Q 37.203125 48.484375 30.078125 48.484375 
Q 22.953125 48.484375 18.875 42.84375 
Q 14.796875 37.203125 14.796875 27.296875 
z
" id="DejaVuSans-64"/>
      <path d="M 39.40625 66.21875 
Q 28.65625 66.21875 22.328125 58.203125 
Q 16.015625 50.203125 16.015625 36.375 
Q 16.015625 22.609375 22.328125 14.59375 
Q 28.65625 6.59375 39.40625 6.59375 
Q 50.140625 6.59375 56.421875 14.59375 
Q 62.703125 22.609375 62.703125 36.375 
Q 62.703125 50.203125 56.421875 58.203125 
Q 50.140625 66.21875 39.40625 66.21875 
z
M 39.40625 74.21875 
Q 54.734375 74.21875 63.90625 63.9375 
Q 73.09375 53.65625 73.09375 36.375 
Q 73.09375 19.140625 63.90625 8.859375 
Q 54.734375 -1.421875 39.40625 -1.421875 
Q 24.03125 -1.421875 14.8125 8.828125 
Q 5.609375 19.09375 5.609375 36.375 
Q 5.609375 53.65625 14.8125 63.9375 
Q 24.03125 74.21875 39.40625 74.21875 
z
" id="DejaVuSans-4f"/>
      <path d="M 32.171875 -5.078125 
Q 28.375 -14.84375 24.75 -17.8125 
Q 21.140625 -20.796875 15.09375 -20.796875 
L 7.90625 -20.796875 
L 7.90625 -13.28125 
L 13.1875 -13.28125 
Q 16.890625 -13.28125 18.9375 -11.515625 
Q 21 -9.765625 23.484375 -3.21875 
L 25.09375 0.875 
L 2.984375 54.6875 
L 12.5 54.6875 
L 29.59375 11.921875 
L 46.6875 54.6875 
L 56.203125 54.6875 
z
" id="DejaVuSans-79"/>
      <path d="M 9.8125 72.90625 
L 19.671875 72.90625 
L 19.671875 0 
L 9.8125 0 
z
" id="DejaVuSans-49"/>
      <path d="M 18.109375 8.203125 
L 18.109375 -20.796875 
L 9.078125 -20.796875 
L 9.078125 54.6875 
L 18.109375 54.6875 
L 18.109375 46.390625 
Q 20.953125 51.265625 25.265625 53.625 
Q 29.59375 56 35.59375 56 
Q 45.5625 56 51.78125 48.09375 
Q 58.015625 40.1875 58.015625 27.296875 
Q 58.015625 14.40625 51.78125 6.484375 
Q 45.5625 -1.421875 35.59375 -1.421875 
Q 29.59375 -1.421875 25.265625 0.953125 
Q 20.953125 3.328125 18.109375 8.203125 
z
M 48.6875 27.296875 
Q 48.6875 37.203125 44.609375 42.84375 
Q 40.53125 48.484375 33.40625 48.484375 
Q 26.265625 48.484375 22.1875 42.84375 
Q 18.109375 37.203125 18.109375 27.296875 
Q 18.109375 17.390625 22.1875 11.75 
Q 26.265625 6.109375 33.40625 6.109375 
Q 40.53125 6.109375 44.609375 11.75 
Q 48.6875 17.390625 48.6875 27.296875 
z
" id="DejaVuSans-70"/>
     </defs>
     <g transform="translate(14.798438 220.900469)rotate(-90)scale(0.1 -0.1)">
      <use xlink:href="#DejaVuSans-43"/>
      <use x="69.824219" xlink:href="#DejaVuSans-50"/>
      <use x="130.126953" xlink:href="#DejaVuSans-55"/>
      <use x="203.320312" xlink:href="#DejaVuSans-20"/>
      <use x="235.107422" xlink:href="#DejaVuSans-63"/>
      <use x="290.087891" xlink:href="#DejaVuSans-6f"/>
      <use x="351.269531" xlink:href="#DejaVuSans-73"/>
      <use x="403.369141" xlink:href="#DejaVuSans-74"/>
      <use x="442.578125" xlink:href="#DejaVuSans-20"/>
      <use x="474.365234" xlink:href="#DejaVuSans-6e"/>
      <use x="537.744141" xlink:href="#DejaVuSans-6f"/>
      <use x="598.925781" xlink:href="#DejaVuSans-72"/>
      <use x="640.023438" xlink:href="#DejaVuSans-6d"/>
      <use x="737.435547" xlink:href="#DejaVuSans-61"/>
      <use x="798.714844" xlink:href="#DejaVuSans-6c"/>
      <use x="826.498047" xlink:href="#DejaVuSans-69"/>
      <use x="854.28125" xlink:href="#DejaVuSans-7a"/>
      <use x="906.771484" xlink:href="#DejaVuSans-65"/>
      <use x="968.294922" xlink:href="#DejaVuSans-64"/>
      <use x="1031.771484" xlink:href="#DejaVuSans-20"/>
      <use x="1063.558594" xlink:href="#DejaVuSans-74"/>
      <use x="1102.767578" xlink:href="#DejaVuSans-6f"/>
      <use x="1163.949219" xlink:href="#DejaVuSans-20"/>
      <use x="1195.736328" xlink:href="#DejaVuSans-4f"/>
      <use x="1274.447266" xlink:href="#DejaVuSans-6e"/>
      <use x="1337.826172" xlink:href="#DejaVuSans-6c"/>
      <use x="1365.609375" xlink:href="#DejaVuSans-79"/>
      <use x="1424.789062" xlink:href="#DejaVuSans-20"/>
      <use x="1456.576172" xlink:href="#DejaVuSans-49"/>
      <use x="1486.068359" xlink:href="#DejaVuSans-6d"/>
      <use x="1583.480469" xlink:href="#DejaVuSans-70"/>
      <use x="1646.957031" xlink:href="#DejaVuSans-6f"/>
      <use x="1708.138672" xlink:href="#DejaVuSans-72"/>
      <use x="1749.251953" xlink:href="#DejaVuSans-74"/>
      <use x="1788.460938" xlink:href="#DejaVuSans-61"/>
      <use x="1849.740234" xlink:href="#DejaVuSans-6e"/>
      <use x="1913.119141" xlink:href="#DejaVuSans-63"/>
      <use x="1968.099609" xlink:href="#DejaVuSans-65"/>
     </g>
    </g>
   </g>
   <g id="line2d_13">
    <path clip-path="url(#p26e116fd30)" d="M 43.78125 30.467273 
L 77.26125 30.467273 
L 110.74125 30.467273 
L 144.22125 36.115065 
L 177.70125 41.762857 
L 211.18125 55.882338 
L 244.66125 64.354026 
L 278.14125 78.473507 
L 311.62125 109.536364 
L 318.31725 118.008052 
L 325.01325 120.831948 
L 331.70925 129.303636 
L 338.40525 140.599221 
L 345.10125 151.894805 
L 351.79725 160.366493 
L 358.49325 180.133766 
L 365.18925 194.253247 
L 371.88525 202.724935 
L 378.58125 214.02052 
" style="fill:none;stroke:#000000;stroke-dasharray:6.4,1.6,1,1.6;stroke-dashoffset:0;"/>
    <defs>
     <path d="M 0 3.5 
C 0.928211 3.5 1.81853 3.131218 2.474874 2.474874 
C 3.131218 1.81853 3.5 0.928211 3.5 0 
C 3.5 -0.928211 3.131218 -1.81853 2.474874 -2.474874 
C 1.81853 -3.131218 0.928211 -3.5 0 -3.5 
C -0.928211 -3.5 -1.81853 -3.131218 -2.474874 -2.474874 
C -3.131218 -1.81853 -3.5 -0.928211 -3.5 0 
C -3.5 0.928211 -3.131218 1.81853 -2.474874 2.474874 
C -1.81853 3.131218 -0.928211 3.5 0 3.5 
z
" id="me64056445e" style="stroke:#000000;"/>
    </defs>
    <g clip-path="url(#p26e116fd30)">
     <use style="stroke:#000000;" x="43.78125" xlink:href="#me64056445e" y="30.467273"/>
     <use style="stroke:#000000;" x="77.26125" xlink:href="#me64056445e" y="30.467273"/>
     <use style="stroke:#000000;" x="110.74125" xlink:href="#me64056445e" y="30.467273"/>
     <use style="stroke:#000000;" x="144.22125" xlink:href="#me64056445e" y="36.115065"/>
     <use style="stroke:#000000;" x="177.70125" xlink:href="#me64056445e" y="41.762857"/>
     <use style="stroke:#000000;" x="211.18125" xlink:href="#me64056445e" y="55.882338"/>
     <use style="stroke:#000000;" x="244.66125" xlink:href="#me64056445e" y="64.354026"/>
     <use style="stroke:#000000;" x="278.14125" xlink:href="#me64056445e" y="78.473507"/>
     <use style="stroke:#000000;" x="311.62125" xlink:href="#me64056445e" y="109.536364"/>
     <use style="stroke:#000000;" x="318.31725" xlink:href="#me64056445e" y="118.008052"/>
     <use style="stroke:#000000;" x="325.01325" xlink:href="#me64056445e" y="120.831948"/>
     <use style="stroke:#000000;" x="331.70925" xlink:href="#me64056445e" y="129.303636"/>
     <use style="stroke:#000000;" x="338.40525" xlink:href="#me64056445e" y="140.599221"/>
     <use style="stroke:#000000;" x="345.10125" xlink:href="#me64056445e" y="151.894805"/>
     <use style="stroke:#000000;" x="351.79725" xlink:href="#me64056445e" y="160.366493"/>
     <use style="stroke:#000000;" x="358.49325" xlink:href="#me64056445e" y="180.133766"/>
     <use style="stroke:#000000;" x="365.18925" xlink:href="#me64056445e" y="194.253247"/>
     <use style="stroke:#000000;" x="371.88525" xlink:href="#me64056445e" y="202.724935"/>
     <use style="stroke:#000000;" x="378.58125" xlink:href="#me64056445e" y="214.02052"/>
    </g>
   </g>
   <g id="line2d_14">
    <path clip-path="url(#p26e116fd30)" d="M 43.78125 30.467273 
L 77.26125 30.467273 
L 110.74125 30.467273 
L 144.22125 30.467273 
L 177.70125 30.467273 
L 211.18125 30.467273 
L 244.66125 30.467273 
L 278.14125 30.467273 
L 311.62125 30.467273 
L 318.31725 30.467273 
L 325.01325 30.467273 
L 331.70925 33.291169 
L 338.40525 38.938961 
L 345.10125 55.882338 
L 351.79725 64.354026 
L 358.49325 81.297403 
L 365.18925 129.303636 
L 371.88525 197.077143 
L 378.58125 228.14 
" style="fill:none;stroke:#000000;stroke-linecap:square;"/>
    <defs>
     <path d="M -3.5 0 
L 3.5 0 
M 0 3.5 
L 0 -3.5 
" id="m568b2f7441" style="stroke:#000000;"/>
    </defs>
    <g clip-path="url(#p26e116fd30)">
     <use style="stroke:#000000;" x="43.78125" xlink:href="#m568b2f7441" y="30.467273"/>
     <use style="stroke:#000000;" x="77.26125" xlink:href="#m568b2f7441" y="30.467273"/>
     <use style="stroke:#000000;" x="110.74125" xlink:href="#m568b2f7441" y="30.467273"/>
     <use style="stroke:#000000;" x="144.22125" xlink:href="#m568b2f7441" y="30.467273"/>
     <use style="stroke:#000000;" x="177.70125" xlink:href="#m568b2f7441" y="30.467273"/>
     <use style="stroke:#000000;" x="211.18125" xlink:href="#m568b2f7441" y="30.467273"/>
     <use style="stroke:#000000;" x="244.66125" xlink:href="#m568b2f7441" y="30.467273"/>
     <use style="stroke:#000000;" x="278.14125" xlink:href="#m568b2f7441" y="30.467273"/>
     <use style="stroke:#000000;" x="311.62125" xlink:href="#m568b2f7441" y="30.467273"/>
     <use style="stroke:#000000;" x="318.31725" xlink:href="#m568b2f7441" y="30.467273"/>
     <use style="stroke:#000000;" x="325.01325" xlink:href="#m568b2f7441" y="30.467273"/>
     <use style="stroke:#000000;" x="331.70925" xlink:href="#m568b2f7441" y="33.291169"/>
     <use style="stroke:#000000;" x="338.40525" xlink:href="#m568b2f7441" y="38.938961"/>
     <use style="stroke:#000000;" x="345.10125" xlink:href="#m568b2f7441" y="55.882338"/>
     <use style="stroke:#000000;" x="351.79725" xlink:href="#m568b2f7441" y="64.354026"/>
     <use style="stroke:#000000;" x="358.49325" xlink:href="#m568b2f7441" y="81.297403"/>
     <use style="stroke:#000000;" x="365.18925" xlink:href="#m568b2f7441" y="129.303636"/>
     <use style="stroke:#000000;" x="371.88525" xlink:href="#m568b2f7441" y="197.077143"/>
     <use style="stroke:#000000;" x="378.58125" xlink:href="#m568b2f7441" y="228.14"/>
    </g>
   </g>
   <g id="line2d_15">
    <path clip-path="url(#p26e116fd30)" d="M 43.78125 30.467273 
L 77.26125 30.467273 
L 110.74125 30.467273 
L 144.22125 30.467273 
L 177.70125 30.467273 
L 211.18125 30.467273 
L 244.66125 30.467273 
L 278.14125 30.467273 
L 311.62125 30.467273 
L 318.31725 30.467273 
L 325.01325 30.467273 
L 331.70925 30.467273 
L 338.40525 30.467273 
L 345.10125 30.467273 
L 351.79725 30.467273 
L 358.49325 30.467273 
L 365.18925 30.467273 
L 371.88525 30.467273 
L 378.58125 30.467273 
" style="fill:none;stroke:#000000;stroke-dasharray:3.7,1.6;stroke-dashoffset:0;"/>
    <defs>
     <path d="M 0 -3.5 
L -0.785799 -1.081559 
L -3.328698 -1.081559 
L -1.271449 0.413119 
L -2.057248 2.831559 
L -0 1.336881 
L 2.057248 2.831559 
L 1.271449 0.413119 
L 3.328698 -1.081559 
L 0.785799 -1.081559 
z
" id="m41e37b9162" style="stroke:#000000;stroke-linejoin:bevel;"/>
    </defs>
    <g clip-path="url(#p26e116fd30)">
     <use style="stroke:#000000;stroke-linejoin:bevel;" x="43.78125" xlink:href="#m41e37b9162" y="30.467273"/>
     <use style="stroke:#000000;stroke-linejoin:bevel;" x="77.26125" xlink:href="#m41e37b9162" y="30.467273"/>
     <use style="stroke:#000000;stroke-linejoin:bevel;" x="110.74125" xlink:href="#m41e37b9162" y="30.467273"/>
     <use style="stroke:#000000;stroke-linejoin:bevel;" x="144.22125" xlink:href="#m41e37b9162" y="30.467273"/>
     <use style="stroke:#000000;stroke-linejoin:bevel;" x="177.70125" xlink:href="#m41e37b9162" y="30.467273"/>
     <use style="stroke:#000000;stroke-linejoin:bevel;" x="211.18125" xlink:href="#m41e37b9162" y="30.467273"/>
     <use style="stroke:#000000;stroke-linejoin:bevel;" x="244.66125" xlink:href="#m41e37b9162" y="30.467273"/>
     <use style="stroke:#000000;stroke-linejoin:bevel;" x="278.14125" xlink:href="#m41e37b9162" y="30.467273"/>
     <use style="stroke:#000000;stroke-linejoin:bevel;" x="311.62125" xlink:href="#m41e37b9162" y="30.467273"/>
     <use style="stroke:#000000;stroke-linejoin:bevel;" x="318.31725" xlink:href="#m41e37b9162" y="30.467273"/>
     <use style="stroke:#000000;stroke-linejoin:bevel;" x="325.01325" xlink:href="#m41e37b9162" y="30.467273"/>
     <use style="stroke:#000000;stroke-linejoin:bevel;" x="331.70925" xlink:href="#m41e37b9162" y="30.467273"/>
     <use style="stroke:#000000;stroke-linejoin:bevel;" x="338.40525" xlink:href="#m41e37b9162" y="30.467273"/>
     <use style="stroke:#000000;stroke-linejoin:bevel;" x="345.10125" xlink:href="#m41e37b9162" y="30.467273"/>
     <use style="stroke:#000000;stroke-linejoin:bevel;" x="351.79725" xlink:href="#m41e37b9162" y="30.467273"/>
     <use style="stroke:#000000;stroke-linejoin:bevel;" x="358.49325" xlink:href="#m41e37b9162" y="30.467273"/>
     <use style="stroke:#000000;stroke-linejoin:bevel;" x="365.18925" xlink:href="#m41e37b9162" y="30.467273"/>
     <use style="stroke:#000000;stroke-linejoin:bevel;" x="371.88525" xlink:href="#m41e37b9162" y="30.467273"/>
     <use style="stroke:#000000;stroke-linejoin:bevel;" x="378.58125" xlink:href="#m41e37b9162" y="30.467273"/>
    </g>
   </g>
   <g id="patch_3">
    <path d="M 43.78125 228.14 
L 43.78125 10.7 
" style="fill:none;stroke:#000000;stroke-linecap:square;stroke-linejoin:miter;stroke-width:0.8;"/>
   </g>
   <g id="patch_4">
    <path d="M 378.58125 228.14 
L 378.58125 10.7 
" style="fill:none;stroke:#000000;stroke-linecap:square;stroke-linejoin:miter;stroke-width:0.8;"/>
   </g>
   <g id="patch_5">
    <path d="M 43.78125 228.14 
L 378.58125 228.14 
" style="fill:none;stroke:#000000;stroke-linecap:square;stroke-linejoin:miter;stroke-width:0.8;"/>
   </g>
   <g id="patch_6">
    <path d="M 43.78125 10.7 
L 378.58125 10.7 
" style="fill:none;stroke:#000000;stroke-linecap:square;stroke-linejoin:miter;stroke-width:0.8;"/>
   </g>
   <g id="legend_1">
    <g id="patch_7">
     <path d="M 50.78125 223.14 
L 242.770313 223.14 
Q 244.770313 223.14 244.770313 221.14 
L 244.770313 178.105625 
Q 244.770313 176.105625 242.770313 176.105625 
L 50.78125 176.105625 
Q 48.78125 176.105625 48.78125 178.105625 
L 48.78125 221.14 
Q 48.78125 223.14 50.78125 223.14 
z
" style="fill:#ffffff;opacity:0.8;stroke:#cccccc;stroke-linejoin:miter;"/>
    </g>
    <g id="line2d_16">
     <path d="M 52.78125 184.204062 
L 72.78125 184.204062 
" style="fill:none;stroke:#000000;stroke-dasharray:6.4,1.6,1,1.6;stroke-dashoffset:0;"/>
    </g>
    <g id="line2d_17">
     <g>
      <use style="stroke:#000000;" x="62.78125" xlink:href="#me64056445e" y="184.204062"/>
     </g>
    </g>
    <g id="text_15">
     <!-- i-DiVE-SwapD-Adaptive-Pruning -->
     <defs>
      <path d="M 4.890625 31.390625 
L 31.203125 31.390625 
L 31.203125 23.390625 
L 4.890625 23.390625 
z
" id="DejaVuSans-2d"/>
      <path d="M 19.671875 64.796875 
L 19.671875 8.109375 
L 31.59375 8.109375 
Q 46.6875 8.109375 53.6875 14.9375 
Q 60.6875 21.78125 60.6875 36.53125 
Q 60.6875 51.171875 53.6875 57.984375 
Q 46.6875 64.796875 31.59375 64.796875 
z
M 9.8125 72.90625 
L 30.078125 72.90625 
Q 51.265625 72.90625 61.171875 64.09375 
Q 71.09375 55.28125 71.09375 36.53125 
Q 71.09375 17.671875 61.125 8.828125 
Q 51.171875 0 30.078125 0 
L 9.8125 0 
z
" id="DejaVuSans-44"/>
      <path d="M 28.609375 0 
L 0.78125 72.90625 
L 11.078125 72.90625 
L 34.1875 11.53125 
L 57.328125 72.90625 
L 67.578125 72.90625 
L 39.796875 0 
z
" id="DejaVuSans-56"/>
      <path d="M 9.8125 72.90625 
L 55.90625 72.90625 
L 55.90625 64.59375 
L 19.671875 64.59375 
L 19.671875 43.015625 
L 54.390625 43.015625 
L 54.390625 34.71875 
L 19.671875 34.71875 
L 19.671875 8.296875 
L 56.78125 8.296875 
L 56.78125 0 
L 9.8125 0 
z
" id="DejaVuSans-45"/>
      <path d="M 53.515625 70.515625 
L 53.515625 60.890625 
Q 47.90625 63.578125 42.921875 64.890625 
Q 37.9375 66.21875 33.296875 66.21875 
Q 25.25 66.21875 20.875 63.09375 
Q 16.5 59.96875 16.5 54.203125 
Q 16.5 49.359375 19.40625 46.890625 
Q 22.3125 44.4375 30.421875 42.921875 
L 36.375 41.703125 
Q 47.40625 39.59375 52.65625 34.296875 
Q 57.90625 29 57.90625 20.125 
Q 57.90625 9.515625 50.796875 4.046875 
Q 43.703125 -1.421875 29.984375 -1.421875 
Q 24.8125 -1.421875 18.96875 -0.25 
Q 13.140625 0.921875 6.890625 3.21875 
L 6.890625 13.375 
Q 12.890625 10.015625 18.65625 8.296875 
Q 24.421875 6.59375 29.984375 6.59375 
Q 38.421875 6.59375 43.015625 9.90625 
Q 47.609375 13.234375 47.609375 19.390625 
Q 47.609375 24.75 44.3125 27.78125 
Q 41.015625 30.8125 33.5 32.328125 
L 27.484375 33.5 
Q 16.453125 35.6875 11.515625 40.375 
Q 6.59375 45.0625 6.59375 53.421875 
Q 6.59375 63.09375 13.40625 68.65625 
Q 20.21875 74.21875 32.171875 74.21875 
Q 37.3125 74.21875 42.625 73.28125 
Q 47.953125 72.359375 53.515625 70.515625 
z
" id="DejaVuSans-53"/>
      <path d="M 4.203125 54.6875 
L 13.1875 54.6875 
L 24.421875 12.015625 
L 35.59375 54.6875 
L 46.1875 54.6875 
L 57.421875 12.015625 
L 68.609375 54.6875 
L 77.59375 54.6875 
L 63.28125 0 
L 52.6875 0 
L 40.921875 44.828125 
L 29.109375 0 
L 18.5 0 
z
" id="DejaVuSans-77"/>
      <path d="M 34.1875 63.1875 
L 20.796875 26.90625 
L 47.609375 26.90625 
z
M 28.609375 72.90625 
L 39.796875 72.90625 
L 67.578125 0 
L 57.328125 0 
L 50.6875 18.703125 
L 17.828125 18.703125 
L 11.1875 0 
L 0.78125 0 
z
" id="DejaVuSans-41"/>
      <path d="M 2.984375 54.6875 
L 12.5 54.6875 
L 29.59375 8.796875 
L 46.6875 54.6875 
L 56.203125 54.6875 
L 35.6875 0 
L 23.484375 0 
z
" id="DejaVuSans-76"/>
      <path d="M 8.5 21.578125 
L 8.5 54.6875 
L 17.484375 54.6875 
L 17.484375 21.921875 
Q 17.484375 14.15625 20.5 10.265625 
Q 23.53125 6.390625 29.59375 6.390625 
Q 36.859375 6.390625 41.078125 11.03125 
Q 45.3125 15.671875 45.3125 23.6875 
L 45.3125 54.6875 
L 54.296875 54.6875 
L 54.296875 0 
L 45.3125 0 
L 45.3125 8.40625 
Q 42.046875 3.421875 37.71875 1 
Q 33.40625 -1.421875 27.6875 -1.421875 
Q 18.265625 -1.421875 13.375 4.4375 
Q 8.5 10.296875 8.5 21.578125 
z
M 31.109375 56 
z
" id="DejaVuSans-75"/>
      <path d="M 45.40625 27.984375 
Q 45.40625 37.75 41.375 43.109375 
Q 37.359375 48.484375 30.078125 48.484375 
Q 22.859375 48.484375 18.828125 43.109375 
Q 14.796875 37.75 14.796875 27.984375 
Q 14.796875 18.265625 18.828125 12.890625 
Q 22.859375 7.515625 30.078125 7.515625 
Q 37.359375 7.515625 41.375 12.890625 
Q 45.40625 18.265625 45.40625 27.984375 
z
M 54.390625 6.78125 
Q 54.390625 -7.171875 48.1875 -13.984375 
Q 42 -20.796875 29.203125 -20.796875 
Q 24.46875 -20.796875 20.265625 -20.09375 
Q 16.0625 -19.390625 12.109375 -17.921875 
L 12.109375 -9.1875 
Q 16.0625 -11.328125 19.921875 -12.34375 
Q 23.78125 -13.375 27.78125 -13.375 
Q 36.625 -13.375 41.015625 -8.765625 
Q 45.40625 -4.15625 45.40625 5.171875 
L 45.40625 9.625 
Q 42.625 4.78125 38.28125 2.390625 
Q 33.9375 0 27.875 0 
Q 17.828125 0 11.671875 7.65625 
Q 5.515625 15.328125 5.515625 27.984375 
Q 5.515625 40.671875 11.671875 48.328125 
Q 17.828125 56 27.875 56 
Q 33.9375 56 38.28125 53.609375 
Q 42.625 51.21875 45.40625 46.390625 
L 45.40625 54.6875 
L 54.390625 54.6875 
z
" id="DejaVuSans-67"/>
     </defs>
     <g transform="translate(80.78125 187.704062)scale(0.1 -0.1)">
      <use xlink:href="#DejaVuSans-69"/>
      <use x="27.783203" xlink:href="#DejaVuSans-2d"/>
      <use x="63.867188" xlink:href="#DejaVuSans-44"/>
      <use x="140.869141" xlink:href="#DejaVuSans-69"/>
      <use x="168.652344" xlink:href="#DejaVuSans-56"/>
      <use x="237.060547" xlink:href="#DejaVuSans-45"/>
      <use x="300.244141" xlink:href="#DejaVuSans-2d"/>
      <use x="336.328125" xlink:href="#DejaVuSans-53"/>
      <use x="399.804688" xlink:href="#DejaVuSans-77"/>
      <use x="481.591797" xlink:href="#DejaVuSans-61"/>
      <use x="542.871094" xlink:href="#DejaVuSans-70"/>
      <use x="606.347656" xlink:href="#DejaVuSans-44"/>
      <use x="683.349609" xlink:href="#DejaVuSans-2d"/>
      <use x="719.402344" xlink:href="#DejaVuSans-41"/>
      <use x="787.794922" xlink:href="#DejaVuSans-64"/>
      <use x="851.271484" xlink:href="#DejaVuSans-61"/>
      <use x="912.550781" xlink:href="#DejaVuSans-70"/>
      <use x="976.027344" xlink:href="#DejaVuSans-74"/>
      <use x="1015.236328" xlink:href="#DejaVuSans-69"/>
      <use x="1043.019531" xlink:href="#DejaVuSans-76"/>
      <use x="1102.199219" xlink:href="#DejaVuSans-65"/>
      <use x="1163.722656" xlink:href="#DejaVuSans-2d"/>
      <use x="1199.806641" xlink:href="#DejaVuSans-50"/>
      <use x="1260.09375" xlink:href="#DejaVuSans-72"/>
      <use x="1301.207031" xlink:href="#DejaVuSans-75"/>
      <use x="1364.585938" xlink:href="#DejaVuSans-6e"/>
      <use x="1427.964844" xlink:href="#DejaVuSans-69"/>
      <use x="1455.748047" xlink:href="#DejaVuSans-6e"/>
      <use x="1519.126953" xlink:href="#DejaVuSans-67"/>
     </g>
    </g>
    <g id="line2d_18">
     <path d="M 52.78125 198.882187 
L 72.78125 198.882187 
" style="fill:none;stroke:#000000;stroke-linecap:square;"/>
    </g>
    <g id="line2d_19">
     <g>
      <use style="stroke:#000000;" x="62.78125" xlink:href="#m568b2f7441" y="198.882187"/>
     </g>
    </g>
    <g id="text_16">
     <!-- i-DiVE-Greedy-Adaptive-Pruning -->
     <defs>
      <path d="M 59.515625 10.40625 
L 59.515625 29.984375 
L 43.40625 29.984375 
L 43.40625 38.09375 
L 69.28125 38.09375 
L 69.28125 6.78125 
Q 63.578125 2.734375 56.6875 0.65625 
Q 49.8125 -1.421875 42 -1.421875 
Q 24.90625 -1.421875 15.25 8.5625 
Q 5.609375 18.5625 5.609375 36.375 
Q 5.609375 54.25 15.25 64.234375 
Q 24.90625 74.21875 42 74.21875 
Q 49.125 74.21875 55.546875 72.453125 
Q 61.96875 70.703125 67.390625 67.28125 
L 67.390625 56.78125 
Q 61.921875 61.421875 55.765625 63.765625 
Q 49.609375 66.109375 42.828125 66.109375 
Q 29.4375 66.109375 22.71875 58.640625 
Q 16.015625 51.171875 16.015625 36.375 
Q 16.015625 21.625 22.71875 14.15625 
Q 29.4375 6.6875 42.828125 6.6875 
Q 48.046875 6.6875 52.140625 7.59375 
Q 56.25 8.5 59.515625 10.40625 
z
" id="DejaVuSans-47"/>
     </defs>
     <g transform="translate(80.78125 202.382187)scale(0.1 -0.1)">
      <use xlink:href="#DejaVuSans-69"/>
      <use x="27.783203" xlink:href="#DejaVuSans-2d"/>
      <use x="63.867188" xlink:href="#DejaVuSans-44"/>
      <use x="140.869141" xlink:href="#DejaVuSans-69"/>
      <use x="168.652344" xlink:href="#DejaVuSans-56"/>
      <use x="237.060547" xlink:href="#DejaVuSans-45"/>
      <use x="300.244141" xlink:href="#DejaVuSans-2d"/>
      <use x="336.375" xlink:href="#DejaVuSans-47"/>
      <use x="413.865234" xlink:href="#DejaVuSans-72"/>
      <use x="454.947266" xlink:href="#DejaVuSans-65"/>
      <use x="516.470703" xlink:href="#DejaVuSans-65"/>
      <use x="577.994141" xlink:href="#DejaVuSans-64"/>
      <use x="641.470703" xlink:href="#DejaVuSans-79"/>
      <use x="700.634766" xlink:href="#DejaVuSans-2d"/>
      <use x="736.6875" xlink:href="#DejaVuSans-41"/>
      <use x="805.080078" xlink:href="#DejaVuSans-64"/>
      <use x="868.556641" xlink:href="#DejaVuSans-61"/>
      <use x="929.835938" xlink:href="#DejaVuSans-70"/>
      <use x="993.3125" xlink:href="#DejaVuSans-74"/>
      <use x="1032.521484" xlink:href="#DejaVuSans-69"/>
      <use x="1060.304688" xlink:href="#DejaVuSans-76"/>
      <use x="1119.484375" xlink:href="#DejaVuSans-65"/>
      <use x="1181.007812" xlink:href="#DejaVuSans-2d"/>
      <use x="1217.091797" xlink:href="#DejaVuSans-50"/>
      <use x="1277.378906" xlink:href="#DejaVuSans-72"/>
      <use x="1318.492188" xlink:href="#DejaVuSans-75"/>
      <use x="1381.871094" xlink:href="#DejaVuSans-6e"/>
      <use x="1445.25" xlink:href="#DejaVuSans-69"/>
      <use x="1473.033203" xlink:href="#DejaVuSans-6e"/>
      <use x="1536.412109" xlink:href="#DejaVuSans-67"/>
     </g>
    </g>
    <g id="line2d_20">
     <path d="M 52.78125 213.560312 
L 72.78125 213.560312 
" style="fill:none;stroke:#000000;stroke-dasharray:3.7,1.6;stroke-dashoffset:0;"/>
    </g>
    <g id="line2d_21">
     <g>
      <use style="stroke:#000000;stroke-linejoin:bevel;" x="62.78125" xlink:href="#m41e37b9162" y="213.560312"/>
     </g>
    </g>
    <g id="text_17">
     <!-- Only Importance -->
     <g transform="translate(80.78125 217.060312)scale(0.1 -0.1)">
      <use xlink:href="#DejaVuSans-4f"/>
      <use x="78.710938" xlink:href="#DejaVuSans-6e"/>
      <use x="142.089844" xlink:href="#DejaVuSans-6c"/>
      <use x="169.873047" xlink:href="#DejaVuSans-79"/>
      <use x="229.052734" xlink:href="#DejaVuSans-20"/>
      <use x="260.839844" xlink:href="#DejaVuSans-49"/>
      <use x="290.332031" xlink:href="#DejaVuSans-6d"/>
      <use x="387.744141" xlink:href="#DejaVuSans-70"/>
      <use x="451.220703" xlink:href="#DejaVuSans-6f"/>
      <use x="512.402344" xlink:href="#DejaVuSans-72"/>
      <use x="553.515625" xlink:href="#DejaVuSans-74"/>
      <use x="592.724609" xlink:href="#DejaVuSans-61"/>
      <use x="654.003906" xlink:href="#DejaVuSans-6e"/>
      <use x="717.382812" xlink:href="#DejaVuSans-63"/>
      <use x="772.363281" xlink:href="#DejaVuSans-65"/>
     </g>
    </g>
   </g>
  </g>
 </g>
 <defs>
  <clipPath id="p26e116fd30">
   <rect height="217.44" width="334.8" x="43.78125" y="10.7"/>
  </clipPath>
 </defs>
</svg>
