<?xml version="1.0" encoding="utf-8" standalone="no"?>
<!DOCTYPE svg PUBLIC "-//W3C//DTD SVG 1.1//EN"
  "http://www.w3.org/Graphics/SVG/1.1/DTD/svg11.dtd">
<!-- Created with matplotlib (http://matplotlib.org/) -->
<svg height="265pt" version="1.1" viewBox="0 0 393 265" width="393pt" xmlns="http://www.w3.org/2000/svg" xmlns:xlink="http://www.w3.org/1999/xlink">
 <defs>
  <style type="text/css">
*{stroke-linecap:butt;stroke-linejoin:round;}
  </style>
 </defs>
 <g id="figure_1">
  <g id="patch_1">
   <path d="M 0 265.69625 
L 393.732813 265.69625 
L 393.732813 0 
L 0 0 
z
" style="fill:#ffffff;"/>
  </g>
  <g id="axes_1">
   <g id="patch_2">
    <path d="M 43.78125 228.14 
L 378.58125 228.14 
L 378.58125 10.7 
L 43.78125 10.7 
z
" style="fill:#ffffff;"/>
   </g>
   <g id="matplotlib.axis_1">
    <g id="xtick_1">
     <g id="line2d_1">
      <defs>
       <path d="M 0 0 
L 0 3.5 
" id="maa2c09b9be" style="stroke:#000000;stroke-width:0.8;"/>
      </defs>
      <g>
       <use style="stroke:#000000;stroke-width:0.8;" x="43.78125" xlink:href="#maa2c09b9be" y="228.14"/>
      </g>
     </g>
     <g id="text_1">
      <!-- 0.0 -->
      <defs>
       <path d="M 31.78125 66.40625 
Q 24.171875 66.40625 20.328125 58.90625 
Q 16.5 51.421875 16.5 36.375 
Q 16.5 21.390625 20.328125 13.890625 
Q 24.171875 6.390625 31.78125 6.390625 
Q 39.453125 6.390625 43.28125 13.890625 
Q 47.125 21.390625 47.125 36.375 
Q 47.125 51.421875 43.28125 58.90625 
Q 39.453125 66.40625 31.78125 66.40625 
z
M 31.78125 74.21875 
Q 44.046875 74.21875 50.515625 64.515625 
Q 56.984375 54.828125 56.984375 36.375 
Q 56.984375 17.96875 50.515625 8.265625 
Q 44.046875 -1.421875 31.78125 -1.421875 
Q 19.53125 -1.421875 13.0625 8.265625 
Q 6.59375 17.96875 6.59375 36.375 
Q 6.59375 54.828125 13.0625 64.515625 
Q 19.53125 74.21875 31.78125 74.21875 
z
" id="DejaVuSans-30"/>
       <path d="M 10.6875 12.40625 
L 21 12.40625 
L 21 0 
L 10.6875 0 
z
" id="DejaVuSans-2e"/>
      </defs>
      <g transform="translate(35.829688 242.738437)scale(0.1 -0.1)">
       <use xlink:href="#DejaVuSans-30"/>
       <use x="63.623047" xlink:href="#DejaVuSans-2e"/>
       <use x="95.410156" xlink:href="#DejaVuSans-30"/>
      </g>
     </g>
    </g>
    <g id="xtick_2">
     <g id="line2d_2">
      <g>
       <use style="stroke:#000000;stroke-width:0.8;" x="110.74125" xlink:href="#maa2c09b9be" y="228.14"/>
      </g>
     </g>
     <g id="text_2">
      <!-- 0.2 -->
      <defs>
       <path d="M 19.1875 8.296875 
L 53.609375 8.296875 
L 53.609375 0 
L 7.328125 0 
L 7.328125 8.296875 
Q 12.9375 14.109375 22.625 23.890625 
Q 32.328125 33.6875 34.8125 36.53125 
Q 39.546875 41.84375 41.421875 45.53125 
Q 43.3125 49.21875 43.3125 52.78125 
Q 43.3125 58.59375 39.234375 62.25 
Q 35.15625 65.921875 28.609375 65.921875 
Q 23.96875 65.921875 18.8125 64.3125 
Q 13.671875 62.703125 7.8125 59.421875 
L 7.8125 69.390625 
Q 13.765625 71.78125 18.9375 73 
Q 24.125 74.21875 28.421875 74.21875 
Q 39.75 74.21875 46.484375 68.546875 
Q 53.21875 62.890625 53.21875 53.421875 
Q 53.21875 48.921875 51.53125 44.890625 
Q 49.859375 40.875 45.40625 35.40625 
Q 44.1875 33.984375 37.640625 27.21875 
Q 31.109375 20.453125 19.1875 8.296875 
z
" id="DejaVuSans-32"/>
      </defs>
      <g transform="translate(102.789688 242.738437)scale(0.1 -0.1)">
       <use xlink:href="#DejaVuSans-30"/>
       <use x="63.623047" xlink:href="#DejaVuSans-2e"/>
       <use x="95.410156" xlink:href="#DejaVuSans-32"/>
      </g>
     </g>
    </g>
    <g id="xtick_3">
     <g id="line2d_3">
      <g>
       <use style="stroke:#000000;stroke-width:0.8;" x="177.70125" xlink:href="#maa2c09b9be" y="228.14"/>
      </g>
     </g>
     <g id="text_3">
      <!-- 0.4 -->
      <defs>
       <path d="M 37.796875 64.3125 
L 12.890625 25.390625 
L 37.796875 25.390625 
z
M 35.203125 72.90625 
L 47.609375 72.90625 
L 47.609375 25.390625 
L 58.015625 25.390625 
L 58.015625 17.1875 
L 47.609375 17.1875 
L 47.609375 0 
L 37.796875 0 
L 37.796875 17.1875 
L 4.890625 17.1875 
L 4.890625 26.703125 
z
" id="DejaVuSans-34"/>
      </defs>
      <g transform="translate(169.749688 242.738437)scale(0.1 -0.1)">
       <use xlink:href="#DejaVuSans-30"/>
       <use x="63.623047" xlink:href="#DejaVuSans-2e"/>
       <use x="95.410156" xlink:href="#DejaVuSans-34"/>
      </g>
     </g>
    </g>
    <g id="xtick_4">
     <g id="line2d_4">
      <g>
       <use style="stroke:#000000;stroke-width:0.8;" x="244.66125" xlink:href="#maa2c09b9be" y="228.14"/>
      </g>
     </g>
     <g id="text_4">
      <!-- 0.6 -->
      <defs>
       <path d="M 33.015625 40.375 
Q 26.375 40.375 22.484375 35.828125 
Q 18.609375 31.296875 18.609375 23.390625 
Q 18.609375 15.53125 22.484375 10.953125 
Q 26.375 6.390625 33.015625 6.390625 
Q 39.65625 6.390625 43.53125 10.953125 
Q 47.40625 15.53125 47.40625 23.390625 
Q 47.40625 31.296875 43.53125 35.828125 
Q 39.65625 40.375 33.015625 40.375 
z
M 52.59375 71.296875 
L 52.59375 62.3125 
Q 48.875 64.0625 45.09375 64.984375 
Q 41.3125 65.921875 37.59375 65.921875 
Q 27.828125 65.921875 22.671875 59.328125 
Q 17.53125 52.734375 16.796875 39.40625 
Q 19.671875 43.65625 24.015625 45.921875 
Q 28.375 48.1875 33.59375 48.1875 
Q 44.578125 48.1875 50.953125 41.515625 
Q 57.328125 34.859375 57.328125 23.390625 
Q 57.328125 12.15625 50.6875 5.359375 
Q 44.046875 -1.421875 33.015625 -1.421875 
Q 20.359375 -1.421875 13.671875 8.265625 
Q 6.984375 17.96875 6.984375 36.375 
Q 6.984375 53.65625 15.1875 63.9375 
Q 23.390625 74.21875 37.203125 74.21875 
Q 40.921875 74.21875 44.703125 73.484375 
Q 48.484375 72.75 52.59375 71.296875 
z
" id="DejaVuSans-36"/>
      </defs>
      <g transform="translate(236.709688 242.738437)scale(0.1 -0.1)">
       <use xlink:href="#DejaVuSans-30"/>
       <use x="63.623047" xlink:href="#DejaVuSans-2e"/>
       <use x="95.410156" xlink:href="#DejaVuSans-36"/>
      </g>
     </g>
    </g>
    <g id="xtick_5">
     <g id="line2d_5">
      <g>
       <use style="stroke:#000000;stroke-width:0.8;" x="311.62125" xlink:href="#maa2c09b9be" y="228.14"/>
      </g>
     </g>
     <g id="text_5">
      <!-- 0.8 -->
      <defs>
       <path d="M 31.78125 34.625 
Q 24.75 34.625 20.71875 30.859375 
Q 16.703125 27.09375 16.703125 20.515625 
Q 16.703125 13.921875 20.71875 10.15625 
Q 24.75 6.390625 31.78125 6.390625 
Q 38.8125 6.390625 42.859375 10.171875 
Q 46.921875 13.96875 46.921875 20.515625 
Q 46.921875 27.09375 42.890625 30.859375 
Q 38.875 34.625 31.78125 34.625 
z
M 21.921875 38.8125 
Q 15.578125 40.375 12.03125 44.71875 
Q 8.5 49.078125 8.5 55.328125 
Q 8.5 64.0625 14.71875 69.140625 
Q 20.953125 74.21875 31.78125 74.21875 
Q 42.671875 74.21875 48.875 69.140625 
Q 55.078125 64.0625 55.078125 55.328125 
Q 55.078125 49.078125 51.53125 44.71875 
Q 48 40.375 41.703125 38.8125 
Q 48.828125 37.15625 52.796875 32.3125 
Q 56.78125 27.484375 56.78125 20.515625 
Q 56.78125 9.90625 50.3125 4.234375 
Q 43.84375 -1.421875 31.78125 -1.421875 
Q 19.734375 -1.421875 13.25 4.234375 
Q 6.78125 9.90625 6.78125 20.515625 
Q 6.78125 27.484375 10.78125 32.3125 
Q 14.796875 37.15625 21.921875 38.8125 
z
M 18.3125 54.390625 
Q 18.3125 48.734375 21.84375 45.5625 
Q 25.390625 42.390625 31.78125 42.390625 
Q 38.140625 42.390625 41.71875 45.5625 
Q 45.3125 48.734375 45.3125 54.390625 
Q 45.3125 60.0625 41.71875 63.234375 
Q 38.140625 66.40625 31.78125 66.40625 
Q 25.390625 66.40625 21.84375 63.234375 
Q 18.3125 60.0625 18.3125 54.390625 
z
" id="DejaVuSans-38"/>
      </defs>
      <g transform="translate(303.669688 242.738437)scale(0.1 -0.1)">
       <use xlink:href="#DejaVuSans-30"/>
       <use x="63.623047" xlink:href="#DejaVuSans-2e"/>
       <use x="95.410156" xlink:href="#DejaVuSans-38"/>
      </g>
     </g>
    </g>
    <g id="xtick_6">
     <g id="line2d_6">
      <g>
       <use style="stroke:#000000;stroke-width:0.8;" x="378.58125" xlink:href="#maa2c09b9be" y="228.14"/>
      </g>
     </g>
     <g id="text_6">
      <!-- 1.0 -->
      <defs>
       <path d="M 12.40625 8.296875 
L 28.515625 8.296875 
L 28.515625 63.921875 
L 10.984375 60.40625 
L 10.984375 69.390625 
L 28.421875 72.90625 
L 38.28125 72.90625 
L 38.28125 8.296875 
L 54.390625 8.296875 
L 54.390625 0 
L 12.40625 0 
z
" id="DejaVuSans-31"/>
      </defs>
      <g transform="translate(370.629687 242.738437)scale(0.1 -0.1)">
       <use xlink:href="#DejaVuSans-31"/>
       <use x="63.623047" xlink:href="#DejaVuSans-2e"/>
       <use x="95.410156" xlink:href="#DejaVuSans-30"/>
      </g>
     </g>
    </g>
    <g id="text_7">
     <!-- $\lambda$ -->
     <defs>
      <path d="M 36.71875 67.4375 
L 48.828125 0 
L 39.3125 0 
L 31.84375 40.4375 
L 5.125 0 
L -4.390625 0 
L 29.734375 52.4375 
L 28.03125 62.109375 
Q 26.953125 68.265625 21.734375 68.265625 
L 17.046875 68.265625 
L 18.5 75.984375 
L 24.21875 75.875 
Q 35.203125 75.734375 36.71875 67.4375 
z
" id="DejaVuSans-Oblique-3bb"/>
     </defs>
     <g transform="translate(208.18125 256.416562)scale(0.1 -0.1)">
      <use transform="translate(0 0.015625)" xlink:href="#DejaVuSans-Oblique-3bb"/>
     </g>
    </g>
   </g>
   <g id="matplotlib.axis_2">
    <g id="ytick_1">
     <g id="line2d_7">
      <defs>
       <path d="M 0 0 
L -3.5 0 
" id="m02cef1b6a6" style="stroke:#000000;stroke-width:0.8;"/>
      </defs>
      <g>
       <use style="stroke:#000000;stroke-width:0.8;" x="43.78125" xlink:href="#m02cef1b6a6" y="228.14"/>
      </g>
     </g>
     <g id="text_8">
      <!-- 0.5 -->
      <defs>
       <path d="M 10.796875 72.90625 
L 49.515625 72.90625 
L 49.515625 64.59375 
L 19.828125 64.59375 
L 19.828125 46.734375 
Q 21.96875 47.46875 24.109375 47.828125 
Q 26.265625 48.1875 28.421875 48.1875 
Q 40.625 48.1875 47.75 41.5 
Q 54.890625 34.8125 54.890625 23.390625 
Q 54.890625 11.625 47.5625 5.09375 
Q 40.234375 -1.421875 26.90625 -1.421875 
Q 22.3125 -1.421875 17.546875 -0.640625 
Q 12.796875 0.140625 7.71875 1.703125 
L 7.71875 11.625 
Q 12.109375 9.234375 16.796875 8.0625 
Q 21.484375 6.890625 26.703125 6.890625 
Q 35.15625 6.890625 40.078125 11.328125 
Q 45.015625 15.765625 45.015625 23.390625 
Q 45.015625 31 40.078125 35.4375 
Q 35.15625 39.890625 26.703125 39.890625 
Q 22.75 39.890625 18.8125 39.015625 
Q 14.890625 38.140625 10.796875 36.28125 
z
" id="DejaVuSans-35"/>
      </defs>
      <g transform="translate(20.878125 231.939219)scale(0.1 -0.1)">
       <use xlink:href="#DejaVuSans-30"/>
       <use x="63.623047" xlink:href="#DejaVuSans-2e"/>
       <use x="95.410156" xlink:href="#DejaVuSans-35"/>
      </g>
     </g>
    </g>
    <g id="ytick_2">
     <g id="line2d_8">
      <g>
       <use style="stroke:#000000;stroke-width:0.8;" x="43.78125" xlink:href="#m02cef1b6a6" y="185.127173"/>
      </g>
     </g>
     <g id="text_9">
      <!-- 0.6 -->
      <g transform="translate(20.878125 188.926392)scale(0.1 -0.1)">
       <use xlink:href="#DejaVuSans-30"/>
       <use x="63.623047" xlink:href="#DejaVuSans-2e"/>
       <use x="95.410156" xlink:href="#DejaVuSans-36"/>
      </g>
     </g>
    </g>
    <g id="ytick_3">
     <g id="line2d_9">
      <g>
       <use style="stroke:#000000;stroke-width:0.8;" x="43.78125" xlink:href="#m02cef1b6a6" y="142.114346"/>
      </g>
     </g>
     <g id="text_10">
      <!-- 0.7 -->
      <defs>
       <path d="M 8.203125 72.90625 
L 55.078125 72.90625 
L 55.078125 68.703125 
L 28.609375 0 
L 18.3125 0 
L 43.21875 64.59375 
L 8.203125 64.59375 
z
" id="DejaVuSans-37"/>
      </defs>
      <g transform="translate(20.878125 145.913565)scale(0.1 -0.1)">
       <use xlink:href="#DejaVuSans-30"/>
       <use x="63.623047" xlink:href="#DejaVuSans-2e"/>
       <use x="95.410156" xlink:href="#DejaVuSans-37"/>
      </g>
     </g>
    </g>
    <g id="ytick_4">
     <g id="line2d_10">
      <g>
       <use style="stroke:#000000;stroke-width:0.8;" x="43.78125" xlink:href="#m02cef1b6a6" y="99.10152"/>
      </g>
     </g>
     <g id="text_11">
      <!-- 0.8 -->
      <g transform="translate(20.878125 102.900738)scale(0.1 -0.1)">
       <use xlink:href="#DejaVuSans-30"/>
       <use x="63.623047" xlink:href="#DejaVuSans-2e"/>
       <use x="95.410156" xlink:href="#DejaVuSans-38"/>
      </g>
     </g>
    </g>
    <g id="ytick_5">
     <g id="line2d_11">
      <g>
       <use style="stroke:#000000;stroke-width:0.8;" x="43.78125" xlink:href="#m02cef1b6a6" y="56.088693"/>
      </g>
     </g>
     <g id="text_12">
      <!-- 0.9 -->
      <defs>
       <path d="M 10.984375 1.515625 
L 10.984375 10.5 
Q 14.703125 8.734375 18.5 7.8125 
Q 22.3125 6.890625 25.984375 6.890625 
Q 35.75 6.890625 40.890625 13.453125 
Q 46.046875 20.015625 46.78125 33.40625 
Q 43.953125 29.203125 39.59375 26.953125 
Q 35.25 24.703125 29.984375 24.703125 
Q 19.046875 24.703125 12.671875 31.3125 
Q 6.296875 37.9375 6.296875 49.421875 
Q 6.296875 60.640625 12.9375 67.421875 
Q 19.578125 74.21875 30.609375 74.21875 
Q 43.265625 74.21875 49.921875 64.515625 
Q 56.59375 54.828125 56.59375 36.375 
Q 56.59375 19.140625 48.40625 8.859375 
Q 40.234375 -1.421875 26.421875 -1.421875 
Q 22.703125 -1.421875 18.890625 -0.6875 
Q 15.09375 0.046875 10.984375 1.515625 
z
M 30.609375 32.421875 
Q 37.25 32.421875 41.125 36.953125 
Q 45.015625 41.5 45.015625 49.421875 
Q 45.015625 57.28125 41.125 61.84375 
Q 37.25 66.40625 30.609375 66.40625 
Q 23.96875 66.40625 20.09375 61.84375 
Q 16.21875 57.28125 16.21875 49.421875 
Q 16.21875 41.5 20.09375 36.953125 
Q 23.96875 32.421875 30.609375 32.421875 
z
" id="DejaVuSans-39"/>
      </defs>
      <g transform="translate(20.878125 59.887912)scale(0.1 -0.1)">
       <use xlink:href="#DejaVuSans-30"/>
       <use x="63.623047" xlink:href="#DejaVuSans-2e"/>
       <use x="95.410156" xlink:href="#DejaVuSans-39"/>
      </g>
     </g>
    </g>
    <g id="ytick_6">
     <g id="line2d_12">
      <g>
       <use style="stroke:#000000;stroke-width:0.8;" x="43.78125" xlink:href="#m02cef1b6a6" y="13.075866"/>
      </g>
     </g>
     <g id="text_13">
      <!-- 1.0 -->
      <g transform="translate(20.878125 16.875085)scale(0.1 -0.1)">
       <use xlink:href="#DejaVuSans-31"/>
       <use x="63.623047" xlink:href="#DejaVuSans-2e"/>
       <use x="95.410156" xlink:href="#DejaVuSans-30"/>
      </g>
     </g>
    </g>
    <g id="text_14">
     <!-- Error of $\mathcal{F(S)}$ -->
     <defs>
      <path d="M 9.8125 72.90625 
L 55.90625 72.90625 
L 55.90625 64.59375 
L 19.671875 64.59375 
L 19.671875 43.015625 
L 54.390625 43.015625 
L 54.390625 34.71875 
L 19.671875 34.71875 
L 19.671875 8.296875 
L 56.78125 8.296875 
L 56.78125 0 
L 9.8125 0 
z
" id="DejaVuSans-45"/>
      <path d="M 41.109375 46.296875 
Q 39.59375 47.171875 37.8125 47.578125 
Q 36.03125 48 33.890625 48 
Q 26.265625 48 22.1875 43.046875 
Q 18.109375 38.09375 18.109375 28.8125 
L 18.109375 0 
L 9.078125 0 
L 9.078125 54.6875 
L 18.109375 54.6875 
L 18.109375 46.1875 
Q 20.953125 51.171875 25.484375 53.578125 
Q 30.03125 56 36.53125 56 
Q 37.453125 56 38.578125 55.875 
Q 39.703125 55.765625 41.0625 55.515625 
z
" id="DejaVuSans-72"/>
      <path d="M 30.609375 48.390625 
Q 23.390625 48.390625 19.1875 42.75 
Q 14.984375 37.109375 14.984375 27.296875 
Q 14.984375 17.484375 19.15625 11.84375 
Q 23.34375 6.203125 30.609375 6.203125 
Q 37.796875 6.203125 41.984375 11.859375 
Q 46.1875 17.53125 46.1875 27.296875 
Q 46.1875 37.015625 41.984375 42.703125 
Q 37.796875 48.390625 30.609375 48.390625 
z
M 30.609375 56 
Q 42.328125 56 49.015625 48.375 
Q 55.71875 40.765625 55.71875 27.296875 
Q 55.71875 13.875 49.015625 6.21875 
Q 42.328125 -1.421875 30.609375 -1.421875 
Q 18.84375 -1.421875 12.171875 6.21875 
Q 5.515625 13.875 5.515625 27.296875 
Q 5.515625 40.765625 12.171875 48.375 
Q 18.84375 56 30.609375 56 
z
" id="DejaVuSans-6f"/>
      <path id="DejaVuSans-20"/>
      <path d="M 37.109375 75.984375 
L 37.109375 68.5 
L 28.515625 68.5 
Q 23.6875 68.5 21.796875 66.546875 
Q 19.921875 64.59375 19.921875 59.515625 
L 19.921875 54.6875 
L 34.71875 54.6875 
L 34.71875 47.703125 
L 19.921875 47.703125 
L 19.921875 0 
L 10.890625 0 
L 10.890625 47.703125 
L 2.296875 47.703125 
L 2.296875 54.6875 
L 10.890625 54.6875 
L 10.890625 58.5 
Q 10.890625 67.625 15.140625 71.796875 
Q 19.390625 75.984375 28.609375 75.984375 
z
" id="DejaVuSans-66"/>
      <path d="M 5.90625 53.40625 
L 4.296875 55.203125 
Q 11.40625 61.796875 18.34375 64 
Q 25.296875 66.203125 33.796875 66.203125 
Q 42.40625 66.203125 48.59375 65.75 
Q 54.796875 65.296875 60.140625 64.046875 
Q 65.5 62.796875 68.25 60.4375 
Q 71 58.09375 71 54.5 
Q 71 51.09375 69.203125 48.796875 
Q 67.40625 46.5 64.203125 46.5 
Q 61.90625 46.5 60.203125 47.84375 
Q 58.5 49.203125 58.5 51.203125 
Q 58.5 53.09375 59.25 54.140625 
Q 60 55.203125 60.890625 55.453125 
Q 61.796875 55.703125 62.5 56.140625 
Q 63.203125 56.59375 63.203125 57.5 
Q 63.203125 59.5 57.75 60.84375 
Q 52.296875 62.203125 45.203125 62.203125 
Q 42.09375 62.203125 40.75 61.25 
Q 39.40625 60.296875 38.5 57.296875 
L 32.796875 37.703125 
L 54.59375 37.703125 
L 53.296875 33.703125 
L 31.703125 33.703125 
L 27.296875 18.796875 
Q 25.40625 12.296875 23.296875 8.390625 
Q 21.203125 4.5 18.34375 2.703125 
Q 15.5 0.90625 12.953125 0.453125 
Q 10.40625 0 6 0 
L 6.796875 2.40625 
Q 9.5 2.40625 11.34375 4.5 
Q 13.203125 6.59375 14.59375 11.59375 
L 26.40625 52.09375 
Q 27.40625 55.59375 27.40625 57.296875 
Q 27.40625 59 26.40625 59.796875 
Q 25.40625 60.59375 22.796875 60.59375 
Q 13.40625 60.59375 5.90625 53.40625 
z
" id="STIXNonUnicode-Italic-e232"/>
      <path d="M 30.40625 -16.09375 
L 29.203125 -17.703125 
Q 17.59375 -11.09375 11.1875 0.5 
Q 4.796875 12.09375 4.796875 25.203125 
Q 4.796875 52.90625 29.5 67.59375 
L 30.40625 66 
Q 20.203125 57.296875 16.796875 48.84375 
Q 13.40625 40.40625 13.40625 25.5 
Q 13.40625 10.703125 16.90625 1.5 
Q 20.40625 -7.703125 30.40625 -16.09375 
z
" id="STIXGeneral-Regular-28"/>
      <path d="M 3.796875 19.296875 
L 6.40625 19.59375 
Q 8.09375 9.09375 17.796875 5.703125 
Q 22.203125 4.09375 27.59375 4.09375 
Q 36 4.09375 41.953125 8.046875 
Q 47.90625 12 47.90625 19.296875 
Q 47.90625 22.296875 45.046875 24.546875 
Q 42.203125 26.796875 38.203125 28.390625 
Q 34.203125 30 30.140625 31.953125 
Q 26.09375 33.90625 23.25 37.546875 
Q 20.40625 41.203125 20.40625 46.40625 
Q 20.40625 51.40625 23.546875 55.546875 
Q 26.703125 59.703125 31.25 62.09375 
Q 35.796875 64.5 40.1875 65.796875 
Q 44.59375 67.09375 47.796875 67.09375 
Q 56.296875 67.09375 61.6875 64.59375 
Q 67.09375 62.09375 67.09375 56.90625 
Q 67.09375 54.09375 65.34375 51.546875 
Q 63.59375 49 60.203125 49 
Q 58 49 56.296875 50.5 
Q 54.59375 52 54.59375 54 
Q 54.59375 56.296875 56.09375 57.9375 
Q 57.59375 59.59375 57.59375 60 
Q 57.59375 61.203125 56.6875 61.953125 
Q 55.796875 62.703125 54 63 
Q 52.203125 63.296875 51 63.34375 
Q 49.796875 63.40625 47.796875 63.40625 
Q 45.796875 63.40625 42.890625 62.65625 
Q 40 61.90625 36.75 60.40625 
Q 33.5 58.90625 31.25 55.953125 
Q 29 53 29 49.296875 
Q 29 45.796875 32.140625 43.296875 
Q 35.296875 40.796875 39.84375 39.09375 
Q 44.40625 37.40625 48.953125 35.453125 
Q 53.5 33.5 56.640625 30 
Q 59.796875 26.5 59.796875 21.5 
Q 59.796875 14.09375 50.09375 7.046875 
Q 40.40625 0 28.203125 0 
Q 15.5 0 9.640625 5.296875 
Q 3.796875 10.59375 3.796875 19.296875 
z
" id="STIXNonUnicode-Italic-e23f"/>
      <path d="M 2.90625 66 
L 4.09375 67.59375 
Q 15.5 60.796875 22 49.1875 
Q 28.5 37.59375 28.5 24.703125 
Q 28.5 -2.59375 3.796875 -17.703125 
L 2.90625 -16.09375 
Q 13.203125 -7.59375 16.546875 0.84375 
Q 19.90625 9.296875 19.90625 24.40625 
Q 19.90625 39.59375 16.546875 48.75 
Q 13.203125 57.90625 2.90625 66 
z
" id="STIXGeneral-Regular-29"/>
     </defs>
     <g transform="translate(14.798438 149.57)rotate(-90)scale(0.1 -0.1)">
      <use transform="translate(0 0.015625)" xlink:href="#DejaVuSans-45"/>
      <use transform="translate(63.183594 0.015625)" xlink:href="#DejaVuSans-72"/>
      <use transform="translate(104.296875 0.015625)" xlink:href="#DejaVuSans-72"/>
      <use transform="translate(145.410156 0.015625)" xlink:href="#DejaVuSans-6f"/>
      <use transform="translate(206.591797 0.015625)" xlink:href="#DejaVuSans-72"/>
      <use transform="translate(247.705078 0.015625)" xlink:href="#DejaVuSans-20"/>
      <use transform="translate(279.492188 0.015625)" xlink:href="#DejaVuSans-6f"/>
      <use transform="translate(340.673828 0.015625)" xlink:href="#DejaVuSans-66"/>
      <use transform="translate(375.878906 0.015625)" xlink:href="#DejaVuSans-20"/>
      <use transform="translate(407.666016 0.015625)" xlink:href="#STIXNonUnicode-Italic-e232"/>
      <use transform="translate(472.866013 0.015625)" xlink:href="#STIXGeneral-Regular-28"/>
      <use transform="translate(506.166 0.015625)" xlink:href="#STIXNonUnicode-Italic-e23f"/>
      <use transform="translate(569.565994 0.015625)" xlink:href="#STIXGeneral-Regular-29"/>
     </g>
    </g>
   </g>
   <g id="line2d_13">
    <path clip-path="url(#pe950599f2b)" d="M 43.78125 13.075866 
L 77.26125 60.593187 
L 110.74125 44.870434 
L 144.22125 39.055788 
L 177.70125 25.596894 
L 211.18125 13.075866 
L 244.66125 13.075866 
L 278.14125 13.075866 
L 311.62125 13.075866 
L 345.10125 13.075866 
L 378.58125 13.075866 
" style="fill:none;stroke:#000000;stroke-dasharray:6.4,1.6,1,1.6;stroke-dashoffset:0;"/>
    <defs>
     <path d="M 0 3.5 
C 0.928211 3.5 1.81853 3.131218 2.474874 2.474874 
C 3.131218 1.81853 3.5 0.928211 3.5 0 
C 3.5 -0.928211 3.131218 -1.81853 2.474874 -2.474874 
C 1.81853 -3.131218 0.928211 -3.5 0 -3.5 
C -0.928211 -3.5 -1.81853 -3.131218 -2.474874 -2.474874 
C -3.131218 -1.81853 -3.5 -0.928211 -3.5 0 
C -3.5 0.928211 -3.131218 1.81853 -2.474874 2.474874 
C -1.81853 3.131218 -0.928211 3.5 0 3.5 
z
" id="m72e3d7c4bb" style="stroke:#000000;"/>
    </defs>
    <g clip-path="url(#pe950599f2b)">
     <use style="stroke:#000000;" x="43.78125" xlink:href="#m72e3d7c4bb" y="13.075866"/>
     <use style="stroke:#000000;" x="77.26125" xlink:href="#m72e3d7c4bb" y="60.593187"/>
     <use style="stroke:#000000;" x="110.74125" xlink:href="#m72e3d7c4bb" y="44.870434"/>
     <use style="stroke:#000000;" x="144.22125" xlink:href="#m72e3d7c4bb" y="39.055788"/>
     <use style="stroke:#000000;" x="177.70125" xlink:href="#m72e3d7c4bb" y="25.596894"/>
     <use style="stroke:#000000;" x="211.18125" xlink:href="#m72e3d7c4bb" y="13.075866"/>
     <use style="stroke:#000000;" x="244.66125" xlink:href="#m72e3d7c4bb" y="13.075866"/>
     <use style="stroke:#000000;" x="278.14125" xlink:href="#m72e3d7c4bb" y="13.075866"/>
     <use style="stroke:#000000;" x="311.62125" xlink:href="#m72e3d7c4bb" y="13.075866"/>
     <use style="stroke:#000000;" x="345.10125" xlink:href="#m72e3d7c4bb" y="13.075866"/>
     <use style="stroke:#000000;" x="378.58125" xlink:href="#m72e3d7c4bb" y="13.075866"/>
    </g>
   </g>
   <g id="line2d_14">
    <path clip-path="url(#pe950599f2b)" d="M 43.78125 13.075866 
L 77.26125 45.523643 
L 110.74125 37.761274 
L 144.22125 26.364767 
L 177.70125 19.998467 
L 211.18125 13.075866 
L 244.66125 13.075866 
L 278.14125 13.075866 
L 311.62125 13.075866 
L 345.10125 13.075866 
L 378.58125 13.075866 
" style="fill:none;stroke:#000000;stroke-dasharray:1,1.65;stroke-dashoffset:0;"/>
    <defs>
     <path d="M -3.5 3.5 
L 3.5 3.5 
L 3.5 -3.5 
L -3.5 -3.5 
z
" id="m86e7e01cc5" style="stroke:#000000;stroke-linejoin:miter;"/>
    </defs>
    <g clip-path="url(#pe950599f2b)">
     <use style="stroke:#000000;stroke-linejoin:miter;" x="43.78125" xlink:href="#m86e7e01cc5" y="13.075866"/>
     <use style="stroke:#000000;stroke-linejoin:miter;" x="77.26125" xlink:href="#m86e7e01cc5" y="45.523643"/>
     <use style="stroke:#000000;stroke-linejoin:miter;" x="110.74125" xlink:href="#m86e7e01cc5" y="37.761274"/>
     <use style="stroke:#000000;stroke-linejoin:miter;" x="144.22125" xlink:href="#m86e7e01cc5" y="26.364767"/>
     <use style="stroke:#000000;stroke-linejoin:miter;" x="177.70125" xlink:href="#m86e7e01cc5" y="19.998467"/>
     <use style="stroke:#000000;stroke-linejoin:miter;" x="211.18125" xlink:href="#m86e7e01cc5" y="13.075866"/>
     <use style="stroke:#000000;stroke-linejoin:miter;" x="244.66125" xlink:href="#m86e7e01cc5" y="13.075866"/>
     <use style="stroke:#000000;stroke-linejoin:miter;" x="278.14125" xlink:href="#m86e7e01cc5" y="13.075866"/>
     <use style="stroke:#000000;stroke-linejoin:miter;" x="311.62125" xlink:href="#m86e7e01cc5" y="13.075866"/>
     <use style="stroke:#000000;stroke-linejoin:miter;" x="345.10125" xlink:href="#m86e7e01cc5" y="13.075866"/>
     <use style="stroke:#000000;stroke-linejoin:miter;" x="378.58125" xlink:href="#m86e7e01cc5" y="13.075866"/>
    </g>
   </g>
   <g id="line2d_15">
    <path clip-path="url(#pe950599f2b)" d="M 43.78125 13.075866 
L 77.26125 13.075866 
L 110.74125 13.075866 
L 144.22125 13.075866 
L 177.70125 13.075866 
L 211.18125 13.075866 
L 244.66125 13.075866 
L 278.14125 13.075866 
L 311.62125 13.075866 
L 345.10125 13.075866 
L 378.58125 13.075866 
" style="fill:none;stroke:#000000;stroke-linecap:square;"/>
    <defs>
     <path d="M -3.5 3.5 
L 3.5 -3.5 
M -3.5 -3.5 
L 3.5 3.5 
" id="me06bedd71e" style="stroke:#000000;"/>
    </defs>
    <g clip-path="url(#pe950599f2b)">
     <use style="stroke:#000000;" x="43.78125" xlink:href="#me06bedd71e" y="13.075866"/>
     <use style="stroke:#000000;" x="77.26125" xlink:href="#me06bedd71e" y="13.075866"/>
     <use style="stroke:#000000;" x="110.74125" xlink:href="#me06bedd71e" y="13.075866"/>
     <use style="stroke:#000000;" x="144.22125" xlink:href="#me06bedd71e" y="13.075866"/>
     <use style="stroke:#000000;" x="177.70125" xlink:href="#me06bedd71e" y="13.075866"/>
     <use style="stroke:#000000;" x="211.18125" xlink:href="#me06bedd71e" y="13.075866"/>
     <use style="stroke:#000000;" x="244.66125" xlink:href="#me06bedd71e" y="13.075866"/>
     <use style="stroke:#000000;" x="278.14125" xlink:href="#me06bedd71e" y="13.075866"/>
     <use style="stroke:#000000;" x="311.62125" xlink:href="#me06bedd71e" y="13.075866"/>
     <use style="stroke:#000000;" x="345.10125" xlink:href="#me06bedd71e" y="13.075866"/>
     <use style="stroke:#000000;" x="378.58125" xlink:href="#me06bedd71e" y="13.075866"/>
    </g>
   </g>
   <g id="line2d_16">
    <path clip-path="url(#pe950599f2b)" d="M 43.78125 13.075866 
L 77.26125 13.075866 
L 110.74125 13.075866 
L 144.22125 13.075866 
L 177.70125 13.075866 
L 211.18125 13.075866 
L 244.66125 13.075866 
L 278.14125 13.075866 
L 311.62125 13.075866 
L 345.10125 13.075866 
L 378.58125 13.075866 
" style="fill:none;stroke:#000000;stroke-dasharray:6.4,1.6,1,1.6;stroke-dashoffset:0;"/>
    <defs>
     <path d="M -3.5 -0 
L 3.5 3.5 
L 3.5 -3.5 
z
" id="mcb8d9b8897" style="stroke:#000000;stroke-linejoin:miter;"/>
    </defs>
    <g clip-path="url(#pe950599f2b)">
     <use style="stroke:#000000;stroke-linejoin:miter;" x="43.78125" xlink:href="#mcb8d9b8897" y="13.075866"/>
     <use style="stroke:#000000;stroke-linejoin:miter;" x="77.26125" xlink:href="#mcb8d9b8897" y="13.075866"/>
     <use style="stroke:#000000;stroke-linejoin:miter;" x="110.74125" xlink:href="#mcb8d9b8897" y="13.075866"/>
     <use style="stroke:#000000;stroke-linejoin:miter;" x="144.22125" xlink:href="#mcb8d9b8897" y="13.075866"/>
     <use style="stroke:#000000;stroke-linejoin:miter;" x="177.70125" xlink:href="#mcb8d9b8897" y="13.075866"/>
     <use style="stroke:#000000;stroke-linejoin:miter;" x="211.18125" xlink:href="#mcb8d9b8897" y="13.075866"/>
     <use style="stroke:#000000;stroke-linejoin:miter;" x="244.66125" xlink:href="#mcb8d9b8897" y="13.075866"/>
     <use style="stroke:#000000;stroke-linejoin:miter;" x="278.14125" xlink:href="#mcb8d9b8897" y="13.075866"/>
     <use style="stroke:#000000;stroke-linejoin:miter;" x="311.62125" xlink:href="#mcb8d9b8897" y="13.075866"/>
     <use style="stroke:#000000;stroke-linejoin:miter;" x="345.10125" xlink:href="#mcb8d9b8897" y="13.075866"/>
     <use style="stroke:#000000;stroke-linejoin:miter;" x="378.58125" xlink:href="#mcb8d9b8897" y="13.075866"/>
    </g>
   </g>
   <g id="line2d_17">
    <path clip-path="url(#pe950599f2b)" d="M 43.78125 13.075866 
L 77.26125 13.075866 
L 110.74125 13.075866 
L 144.22125 13.075866 
L 177.70125 13.075866 
L 211.18125 13.075866 
L 244.66125 13.075866 
L 278.14125 13.075866 
L 311.62125 13.075866 
L 345.10125 13.075866 
L 378.58125 13.075866 
" style="fill:none;stroke:#000000;stroke-dasharray:1,1.65;stroke-dashoffset:0;"/>
    <defs>
     <path d="M 0 -3.5 
L -0.785799 -1.081559 
L -3.328698 -1.081559 
L -1.271449 0.413119 
L -2.057248 2.831559 
L -0 1.336881 
L 2.057248 2.831559 
L 1.271449 0.413119 
L 3.328698 -1.081559 
L 0.785799 -1.081559 
z
" id="mf4de764819" style="stroke:#000000;stroke-linejoin:bevel;"/>
    </defs>
    <g clip-path="url(#pe950599f2b)">
     <use style="stroke:#000000;stroke-linejoin:bevel;" x="43.78125" xlink:href="#mf4de764819" y="13.075866"/>
     <use style="stroke:#000000;stroke-linejoin:bevel;" x="77.26125" xlink:href="#mf4de764819" y="13.075866"/>
     <use style="stroke:#000000;stroke-linejoin:bevel;" x="110.74125" xlink:href="#mf4de764819" y="13.075866"/>
     <use style="stroke:#000000;stroke-linejoin:bevel;" x="144.22125" xlink:href="#mf4de764819" y="13.075866"/>
     <use style="stroke:#000000;stroke-linejoin:bevel;" x="177.70125" xlink:href="#mf4de764819" y="13.075866"/>
     <use style="stroke:#000000;stroke-linejoin:bevel;" x="211.18125" xlink:href="#mf4de764819" y="13.075866"/>
     <use style="stroke:#000000;stroke-linejoin:bevel;" x="244.66125" xlink:href="#mf4de764819" y="13.075866"/>
     <use style="stroke:#000000;stroke-linejoin:bevel;" x="278.14125" xlink:href="#mf4de764819" y="13.075866"/>
     <use style="stroke:#000000;stroke-linejoin:bevel;" x="311.62125" xlink:href="#mf4de764819" y="13.075866"/>
     <use style="stroke:#000000;stroke-linejoin:bevel;" x="345.10125" xlink:href="#mf4de764819" y="13.075866"/>
     <use style="stroke:#000000;stroke-linejoin:bevel;" x="378.58125" xlink:href="#mf4de764819" y="13.075866"/>
    </g>
   </g>
   <g id="line2d_18">
    <path clip-path="url(#pe950599f2b)" d="M 43.78125 13.075866 
L 77.26125 13.075866 
L 110.74125 13.075866 
L 144.22125 13.075866 
L 177.70125 13.075866 
L 211.18125 13.075866 
L 244.66125 13.075866 
L 278.14125 13.075866 
L 311.62125 13.075866 
L 345.10125 13.075866 
L 378.58125 13.075866 
" style="fill:none;stroke:#000000;stroke-linecap:square;"/>
    <defs>
     <path d="M -3.5 0 
L 3.5 0 
M 0 3.5 
L 0 -3.5 
" id="md61000e020" style="stroke:#000000;"/>
    </defs>
    <g clip-path="url(#pe950599f2b)">
     <use style="stroke:#000000;" x="43.78125" xlink:href="#md61000e020" y="13.075866"/>
     <use style="stroke:#000000;" x="77.26125" xlink:href="#md61000e020" y="13.075866"/>
     <use style="stroke:#000000;" x="110.74125" xlink:href="#md61000e020" y="13.075866"/>
     <use style="stroke:#000000;" x="144.22125" xlink:href="#md61000e020" y="13.075866"/>
     <use style="stroke:#000000;" x="177.70125" xlink:href="#md61000e020" y="13.075866"/>
     <use style="stroke:#000000;" x="211.18125" xlink:href="#md61000e020" y="13.075866"/>
     <use style="stroke:#000000;" x="244.66125" xlink:href="#md61000e020" y="13.075866"/>
     <use style="stroke:#000000;" x="278.14125" xlink:href="#md61000e020" y="13.075866"/>
     <use style="stroke:#000000;" x="311.62125" xlink:href="#md61000e020" y="13.075866"/>
     <use style="stroke:#000000;" x="345.10125" xlink:href="#md61000e020" y="13.075866"/>
     <use style="stroke:#000000;" x="378.58125" xlink:href="#md61000e020" y="13.075866"/>
    </g>
   </g>
   <g id="patch_3">
    <path d="M 43.78125 228.14 
L 43.78125 10.7 
" style="fill:none;stroke:#000000;stroke-linecap:square;stroke-linejoin:miter;stroke-width:0.8;"/>
   </g>
   <g id="patch_4">
    <path d="M 378.58125 228.14 
L 378.58125 10.7 
" style="fill:none;stroke:#000000;stroke-linecap:square;stroke-linejoin:miter;stroke-width:0.8;"/>
   </g>
   <g id="patch_5">
    <path d="M 43.78125 228.14 
L 378.58125 228.14 
" style="fill:none;stroke:#000000;stroke-linecap:square;stroke-linejoin:miter;stroke-width:0.8;"/>
   </g>
   <g id="patch_6">
    <path d="M 43.78125 10.7 
L 378.58125 10.7 
" style="fill:none;stroke:#000000;stroke-linecap:square;stroke-linejoin:miter;stroke-width:0.8;"/>
   </g>
   <g id="legend_1">
    <g id="line2d_19">
     <path d="M 52.78125 140.169687 
L 72.78125 140.169687 
" style="fill:none;stroke:#000000;stroke-dasharray:6.4,1.6,1,1.6;stroke-dashoffset:0;"/>
    </g>
    <g id="line2d_20">
     <g>
      <use style="stroke:#000000;" x="62.78125" xlink:href="#m72e3d7c4bb" y="140.169687"/>
     </g>
    </g>
    <g id="text_15">
     <!-- DiVE-dSwap-Adaptive(0.80) -->
     <defs>
      <path d="M 19.671875 64.796875 
L 19.671875 8.109375 
L 31.59375 8.109375 
Q 46.6875 8.109375 53.6875 14.9375 
Q 60.6875 21.78125 60.6875 36.53125 
Q 60.6875 51.171875 53.6875 57.984375 
Q 46.6875 64.796875 31.59375 64.796875 
z
M 9.8125 72.90625 
L 30.078125 72.90625 
Q 51.265625 72.90625 61.171875 64.09375 
Q 71.09375 55.28125 71.09375 36.53125 
Q 71.09375 17.671875 61.125 8.828125 
Q 51.171875 0 30.078125 0 
L 9.8125 0 
z
" id="DejaVuSans-44"/>
      <path d="M 9.421875 54.6875 
L 18.40625 54.6875 
L 18.40625 0 
L 9.421875 0 
z
M 9.421875 75.984375 
L 18.40625 75.984375 
L 18.40625 64.59375 
L 9.421875 64.59375 
z
" id="DejaVuSans-69"/>
      <path d="M 28.609375 0 
L 0.78125 72.90625 
L 11.078125 72.90625 
L 34.1875 11.53125 
L 57.328125 72.90625 
L 67.578125 72.90625 
L 39.796875 0 
z
" id="DejaVuSans-56"/>
      <path d="M 4.890625 31.390625 
L 31.203125 31.390625 
L 31.203125 23.390625 
L 4.890625 23.390625 
z
" id="DejaVuSans-2d"/>
      <path d="M 45.40625 46.390625 
L 45.40625 75.984375 
L 54.390625 75.984375 
L 54.390625 0 
L 45.40625 0 
L 45.40625 8.203125 
Q 42.578125 3.328125 38.25 0.953125 
Q 33.9375 -1.421875 27.875 -1.421875 
Q 17.96875 -1.421875 11.734375 6.484375 
Q 5.515625 14.40625 5.515625 27.296875 
Q 5.515625 40.1875 11.734375 48.09375 
Q 17.96875 56 27.875 56 
Q 33.9375 56 38.25 53.625 
Q 42.578125 51.265625 45.40625 46.390625 
z
M 14.796875 27.296875 
Q 14.796875 17.390625 18.875 11.75 
Q 22.953125 6.109375 30.078125 6.109375 
Q 37.203125 6.109375 41.296875 11.75 
Q 45.40625 17.390625 45.40625 27.296875 
Q 45.40625 37.203125 41.296875 42.84375 
Q 37.203125 48.484375 30.078125 48.484375 
Q 22.953125 48.484375 18.875 42.84375 
Q 14.796875 37.203125 14.796875 27.296875 
z
" id="DejaVuSans-64"/>
      <path d="M 53.515625 70.515625 
L 53.515625 60.890625 
Q 47.90625 63.578125 42.921875 64.890625 
Q 37.9375 66.21875 33.296875 66.21875 
Q 25.25 66.21875 20.875 63.09375 
Q 16.5 59.96875 16.5 54.203125 
Q 16.5 49.359375 19.40625 46.890625 
Q 22.3125 44.4375 30.421875 42.921875 
L 36.375 41.703125 
Q 47.40625 39.59375 52.65625 34.296875 
Q 57.90625 29 57.90625 20.125 
Q 57.90625 9.515625 50.796875 4.046875 
Q 43.703125 -1.421875 29.984375 -1.421875 
Q 24.8125 -1.421875 18.96875 -0.25 
Q 13.140625 0.921875 6.890625 3.21875 
L 6.890625 13.375 
Q 12.890625 10.015625 18.65625 8.296875 
Q 24.421875 6.59375 29.984375 6.59375 
Q 38.421875 6.59375 43.015625 9.90625 
Q 47.609375 13.234375 47.609375 19.390625 
Q 47.609375 24.75 44.3125 27.78125 
Q 41.015625 30.8125 33.5 32.328125 
L 27.484375 33.5 
Q 16.453125 35.6875 11.515625 40.375 
Q 6.59375 45.0625 6.59375 53.421875 
Q 6.59375 63.09375 13.40625 68.65625 
Q 20.21875 74.21875 32.171875 74.21875 
Q 37.3125 74.21875 42.625 73.28125 
Q 47.953125 72.359375 53.515625 70.515625 
z
" id="DejaVuSans-53"/>
      <path d="M 4.203125 54.6875 
L 13.1875 54.6875 
L 24.421875 12.015625 
L 35.59375 54.6875 
L 46.1875 54.6875 
L 57.421875 12.015625 
L 68.609375 54.6875 
L 77.59375 54.6875 
L 63.28125 0 
L 52.6875 0 
L 40.921875 44.828125 
L 29.109375 0 
L 18.5 0 
z
" id="DejaVuSans-77"/>
      <path d="M 34.28125 27.484375 
Q 23.390625 27.484375 19.1875 25 
Q 14.984375 22.515625 14.984375 16.5 
Q 14.984375 11.71875 18.140625 8.90625 
Q 21.296875 6.109375 26.703125 6.109375 
Q 34.1875 6.109375 38.703125 11.40625 
Q 43.21875 16.703125 43.21875 25.484375 
L 43.21875 27.484375 
z
M 52.203125 31.203125 
L 52.203125 0 
L 43.21875 0 
L 43.21875 8.296875 
Q 40.140625 3.328125 35.546875 0.953125 
Q 30.953125 -1.421875 24.3125 -1.421875 
Q 15.921875 -1.421875 10.953125 3.296875 
Q 6 8.015625 6 15.921875 
Q 6 25.140625 12.171875 29.828125 
Q 18.359375 34.515625 30.609375 34.515625 
L 43.21875 34.515625 
L 43.21875 35.40625 
Q 43.21875 41.609375 39.140625 45 
Q 35.0625 48.390625 27.6875 48.390625 
Q 23 48.390625 18.546875 47.265625 
Q 14.109375 46.140625 10.015625 43.890625 
L 10.015625 52.203125 
Q 14.9375 54.109375 19.578125 55.046875 
Q 24.21875 56 28.609375 56 
Q 40.484375 56 46.34375 49.84375 
Q 52.203125 43.703125 52.203125 31.203125 
z
" id="DejaVuSans-61"/>
      <path d="M 18.109375 8.203125 
L 18.109375 -20.796875 
L 9.078125 -20.796875 
L 9.078125 54.6875 
L 18.109375 54.6875 
L 18.109375 46.390625 
Q 20.953125 51.265625 25.265625 53.625 
Q 29.59375 56 35.59375 56 
Q 45.5625 56 51.78125 48.09375 
Q 58.015625 40.1875 58.015625 27.296875 
Q 58.015625 14.40625 51.78125 6.484375 
Q 45.5625 -1.421875 35.59375 -1.421875 
Q 29.59375 -1.421875 25.265625 0.953125 
Q 20.953125 3.328125 18.109375 8.203125 
z
M 48.6875 27.296875 
Q 48.6875 37.203125 44.609375 42.84375 
Q 40.53125 48.484375 33.40625 48.484375 
Q 26.265625 48.484375 22.1875 42.84375 
Q 18.109375 37.203125 18.109375 27.296875 
Q 18.109375 17.390625 22.1875 11.75 
Q 26.265625 6.109375 33.40625 6.109375 
Q 40.53125 6.109375 44.609375 11.75 
Q 48.6875 17.390625 48.6875 27.296875 
z
" id="DejaVuSans-70"/>
      <path d="M 34.1875 63.1875 
L 20.796875 26.90625 
L 47.609375 26.90625 
z
M 28.609375 72.90625 
L 39.796875 72.90625 
L 67.578125 0 
L 57.328125 0 
L 50.6875 18.703125 
L 17.828125 18.703125 
L 11.1875 0 
L 0.78125 0 
z
" id="DejaVuSans-41"/>
      <path d="M 18.3125 70.21875 
L 18.3125 54.6875 
L 36.8125 54.6875 
L 36.8125 47.703125 
L 18.3125 47.703125 
L 18.3125 18.015625 
Q 18.3125 11.328125 20.140625 9.421875 
Q 21.96875 7.515625 27.59375 7.515625 
L 36.8125 7.515625 
L 36.8125 0 
L 27.59375 0 
Q 17.1875 0 13.234375 3.875 
Q 9.28125 7.765625 9.28125 18.015625 
L 9.28125 47.703125 
L 2.6875 47.703125 
L 2.6875 54.6875 
L 9.28125 54.6875 
L 9.28125 70.21875 
z
" id="DejaVuSans-74"/>
      <path d="M 2.984375 54.6875 
L 12.5 54.6875 
L 29.59375 8.796875 
L 46.6875 54.6875 
L 56.203125 54.6875 
L 35.6875 0 
L 23.484375 0 
z
" id="DejaVuSans-76"/>
      <path d="M 56.203125 29.59375 
L 56.203125 25.203125 
L 14.890625 25.203125 
Q 15.484375 15.921875 20.484375 11.0625 
Q 25.484375 6.203125 34.421875 6.203125 
Q 39.59375 6.203125 44.453125 7.46875 
Q 49.3125 8.734375 54.109375 11.28125 
L 54.109375 2.78125 
Q 49.265625 0.734375 44.1875 -0.34375 
Q 39.109375 -1.421875 33.890625 -1.421875 
Q 20.796875 -1.421875 13.15625 6.1875 
Q 5.515625 13.8125 5.515625 26.8125 
Q 5.515625 40.234375 12.765625 48.109375 
Q 20.015625 56 32.328125 56 
Q 43.359375 56 49.78125 48.890625 
Q 56.203125 41.796875 56.203125 29.59375 
z
M 47.21875 32.234375 
Q 47.125 39.59375 43.09375 43.984375 
Q 39.0625 48.390625 32.421875 48.390625 
Q 24.90625 48.390625 20.390625 44.140625 
Q 15.875 39.890625 15.1875 32.171875 
z
" id="DejaVuSans-65"/>
      <path d="M 31 75.875 
Q 24.46875 64.65625 21.28125 53.65625 
Q 18.109375 42.671875 18.109375 31.390625 
Q 18.109375 20.125 21.3125 9.0625 
Q 24.515625 -2 31 -13.1875 
L 23.1875 -13.1875 
Q 15.875 -1.703125 12.234375 9.375 
Q 8.59375 20.453125 8.59375 31.390625 
Q 8.59375 42.28125 12.203125 53.3125 
Q 15.828125 64.359375 23.1875 75.875 
z
" id="DejaVuSans-28"/>
      <path d="M 8.015625 75.875 
L 15.828125 75.875 
Q 23.140625 64.359375 26.78125 53.3125 
Q 30.421875 42.28125 30.421875 31.390625 
Q 30.421875 20.453125 26.78125 9.375 
Q 23.140625 -1.703125 15.828125 -13.1875 
L 8.015625 -13.1875 
Q 14.5 -2 17.703125 9.0625 
Q 20.90625 20.125 20.90625 31.390625 
Q 20.90625 42.671875 17.703125 53.65625 
Q 14.5 64.65625 8.015625 75.875 
z
" id="DejaVuSans-29"/>
     </defs>
     <g transform="translate(80.78125 143.669687)scale(0.1 -0.1)">
      <use xlink:href="#DejaVuSans-44"/>
      <use x="77.001953" xlink:href="#DejaVuSans-69"/>
      <use x="104.785156" xlink:href="#DejaVuSans-56"/>
      <use x="173.193359" xlink:href="#DejaVuSans-45"/>
      <use x="236.376953" xlink:href="#DejaVuSans-2d"/>
      <use x="272.460938" xlink:href="#DejaVuSans-64"/>
      <use x="335.9375" xlink:href="#DejaVuSans-53"/>
      <use x="399.414062" xlink:href="#DejaVuSans-77"/>
      <use x="481.201172" xlink:href="#DejaVuSans-61"/>
      <use x="542.480469" xlink:href="#DejaVuSans-70"/>
      <use x="605.957031" xlink:href="#DejaVuSans-2d"/>
      <use x="642.009766" xlink:href="#DejaVuSans-41"/>
      <use x="710.402344" xlink:href="#DejaVuSans-64"/>
      <use x="773.878906" xlink:href="#DejaVuSans-61"/>
      <use x="835.158203" xlink:href="#DejaVuSans-70"/>
      <use x="898.634766" xlink:href="#DejaVuSans-74"/>
      <use x="937.84375" xlink:href="#DejaVuSans-69"/>
      <use x="965.626953" xlink:href="#DejaVuSans-76"/>
      <use x="1024.806641" xlink:href="#DejaVuSans-65"/>
      <use x="1086.330078" xlink:href="#DejaVuSans-28"/>
      <use x="1125.34375" xlink:href="#DejaVuSans-30"/>
      <use x="1188.966797" xlink:href="#DejaVuSans-2e"/>
      <use x="1220.753906" xlink:href="#DejaVuSans-38"/>
      <use x="1284.376953" xlink:href="#DejaVuSans-30"/>
      <use x="1348" xlink:href="#DejaVuSans-29"/>
     </g>
    </g>
    <g id="line2d_21">
     <path d="M 52.78125 154.847812 
L 72.78125 154.847812 
" style="fill:none;stroke:#000000;stroke-dasharray:1,1.65;stroke-dashoffset:0;"/>
    </g>
    <g id="line2d_22">
     <g>
      <use style="stroke:#000000;stroke-linejoin:miter;" x="62.78125" xlink:href="#m86e7e01cc5" y="154.847812"/>
     </g>
    </g>
    <g id="text_16">
     <!-- DiVE-dSwap-Adaptive(0.85) -->
     <g transform="translate(80.78125 158.347812)scale(0.1 -0.1)">
      <use xlink:href="#DejaVuSans-44"/>
      <use x="77.001953" xlink:href="#DejaVuSans-69"/>
      <use x="104.785156" xlink:href="#DejaVuSans-56"/>
      <use x="173.193359" xlink:href="#DejaVuSans-45"/>
      <use x="236.376953" xlink:href="#DejaVuSans-2d"/>
      <use x="272.460938" xlink:href="#DejaVuSans-64"/>
      <use x="335.9375" xlink:href="#DejaVuSans-53"/>
      <use x="399.414062" xlink:href="#DejaVuSans-77"/>
      <use x="481.201172" xlink:href="#DejaVuSans-61"/>
      <use x="542.480469" xlink:href="#DejaVuSans-70"/>
      <use x="605.957031" xlink:href="#DejaVuSans-2d"/>
      <use x="642.009766" xlink:href="#DejaVuSans-41"/>
      <use x="710.402344" xlink:href="#DejaVuSans-64"/>
      <use x="773.878906" xlink:href="#DejaVuSans-61"/>
      <use x="835.158203" xlink:href="#DejaVuSans-70"/>
      <use x="898.634766" xlink:href="#DejaVuSans-74"/>
      <use x="937.84375" xlink:href="#DejaVuSans-69"/>
      <use x="965.626953" xlink:href="#DejaVuSans-76"/>
      <use x="1024.806641" xlink:href="#DejaVuSans-65"/>
      <use x="1086.330078" xlink:href="#DejaVuSans-28"/>
      <use x="1125.34375" xlink:href="#DejaVuSans-30"/>
      <use x="1188.966797" xlink:href="#DejaVuSans-2e"/>
      <use x="1220.753906" xlink:href="#DejaVuSans-38"/>
      <use x="1284.376953" xlink:href="#DejaVuSans-35"/>
      <use x="1348" xlink:href="#DejaVuSans-29"/>
     </g>
    </g>
    <g id="line2d_23">
     <path d="M 52.78125 169.525937 
L 72.78125 169.525937 
" style="fill:none;stroke:#000000;stroke-linecap:square;"/>
    </g>
    <g id="line2d_24">
     <g>
      <use style="stroke:#000000;" x="62.78125" xlink:href="#me06bedd71e" y="169.525937"/>
     </g>
    </g>
    <g id="text_17">
     <!-- DiVE-dSwap-Adaptive(0.90) -->
     <g transform="translate(80.78125 173.025937)scale(0.1 -0.1)">
      <use xlink:href="#DejaVuSans-44"/>
      <use x="77.001953" xlink:href="#DejaVuSans-69"/>
      <use x="104.785156" xlink:href="#DejaVuSans-56"/>
      <use x="173.193359" xlink:href="#DejaVuSans-45"/>
      <use x="236.376953" xlink:href="#DejaVuSans-2d"/>
      <use x="272.460938" xlink:href="#DejaVuSans-64"/>
      <use x="335.9375" xlink:href="#DejaVuSans-53"/>
      <use x="399.414062" xlink:href="#DejaVuSans-77"/>
      <use x="481.201172" xlink:href="#DejaVuSans-61"/>
      <use x="542.480469" xlink:href="#DejaVuSans-70"/>
      <use x="605.957031" xlink:href="#DejaVuSans-2d"/>
      <use x="642.009766" xlink:href="#DejaVuSans-41"/>
      <use x="710.402344" xlink:href="#DejaVuSans-64"/>
      <use x="773.878906" xlink:href="#DejaVuSans-61"/>
      <use x="835.158203" xlink:href="#DejaVuSans-70"/>
      <use x="898.634766" xlink:href="#DejaVuSans-74"/>
      <use x="937.84375" xlink:href="#DejaVuSans-69"/>
      <use x="965.626953" xlink:href="#DejaVuSans-76"/>
      <use x="1024.806641" xlink:href="#DejaVuSans-65"/>
      <use x="1086.330078" xlink:href="#DejaVuSans-28"/>
      <use x="1125.34375" xlink:href="#DejaVuSans-30"/>
      <use x="1188.966797" xlink:href="#DejaVuSans-2e"/>
      <use x="1220.753906" xlink:href="#DejaVuSans-39"/>
      <use x="1284.376953" xlink:href="#DejaVuSans-30"/>
      <use x="1348" xlink:href="#DejaVuSans-29"/>
     </g>
    </g>
    <g id="line2d_25">
     <path d="M 52.78125 184.204062 
L 72.78125 184.204062 
" style="fill:none;stroke:#000000;stroke-dasharray:6.4,1.6,1,1.6;stroke-dashoffset:0;"/>
    </g>
    <g id="line2d_26">
     <g>
      <use style="stroke:#000000;stroke-linejoin:miter;" x="62.78125" xlink:href="#mcb8d9b8897" y="184.204062"/>
     </g>
    </g>
    <g id="text_18">
     <!-- DiVE-dSwap-Adaptive(0.95) -->
     <g transform="translate(80.78125 187.704062)scale(0.1 -0.1)">
      <use xlink:href="#DejaVuSans-44"/>
      <use x="77.001953" xlink:href="#DejaVuSans-69"/>
      <use x="104.785156" xlink:href="#DejaVuSans-56"/>
      <use x="173.193359" xlink:href="#DejaVuSans-45"/>
      <use x="236.376953" xlink:href="#DejaVuSans-2d"/>
      <use x="272.460938" xlink:href="#DejaVuSans-64"/>
      <use x="335.9375" xlink:href="#DejaVuSans-53"/>
      <use x="399.414062" xlink:href="#DejaVuSans-77"/>
      <use x="481.201172" xlink:href="#DejaVuSans-61"/>
      <use x="542.480469" xlink:href="#DejaVuSans-70"/>
      <use x="605.957031" xlink:href="#DejaVuSans-2d"/>
      <use x="642.009766" xlink:href="#DejaVuSans-41"/>
      <use x="710.402344" xlink:href="#DejaVuSans-64"/>
      <use x="773.878906" xlink:href="#DejaVuSans-61"/>
      <use x="835.158203" xlink:href="#DejaVuSans-70"/>
      <use x="898.634766" xlink:href="#DejaVuSans-74"/>
      <use x="937.84375" xlink:href="#DejaVuSans-69"/>
      <use x="965.626953" xlink:href="#DejaVuSans-76"/>
      <use x="1024.806641" xlink:href="#DejaVuSans-65"/>
      <use x="1086.330078" xlink:href="#DejaVuSans-28"/>
      <use x="1125.34375" xlink:href="#DejaVuSans-30"/>
      <use x="1188.966797" xlink:href="#DejaVuSans-2e"/>
      <use x="1220.753906" xlink:href="#DejaVuSans-39"/>
      <use x="1284.376953" xlink:href="#DejaVuSans-35"/>
      <use x="1348" xlink:href="#DejaVuSans-29"/>
     </g>
    </g>
    <g id="line2d_27">
     <path d="M 52.78125 198.882187 
L 72.78125 198.882187 
" style="fill:none;stroke:#000000;stroke-dasharray:1,1.65;stroke-dashoffset:0;"/>
    </g>
    <g id="line2d_28">
     <g>
      <use style="stroke:#000000;stroke-linejoin:bevel;" x="62.78125" xlink:href="#mf4de764819" y="198.882187"/>
     </g>
    </g>
    <g id="text_19">
     <!-- DiVE-dSwap-Adaptive(0.97) -->
     <g transform="translate(80.78125 202.382187)scale(0.1 -0.1)">
      <use xlink:href="#DejaVuSans-44"/>
      <use x="77.001953" xlink:href="#DejaVuSans-69"/>
      <use x="104.785156" xlink:href="#DejaVuSans-56"/>
      <use x="173.193359" xlink:href="#DejaVuSans-45"/>
      <use x="236.376953" xlink:href="#DejaVuSans-2d"/>
      <use x="272.460938" xlink:href="#DejaVuSans-64"/>
      <use x="335.9375" xlink:href="#DejaVuSans-53"/>
      <use x="399.414062" xlink:href="#DejaVuSans-77"/>
      <use x="481.201172" xlink:href="#DejaVuSans-61"/>
      <use x="542.480469" xlink:href="#DejaVuSans-70"/>
      <use x="605.957031" xlink:href="#DejaVuSans-2d"/>
      <use x="642.009766" xlink:href="#DejaVuSans-41"/>
      <use x="710.402344" xlink:href="#DejaVuSans-64"/>
      <use x="773.878906" xlink:href="#DejaVuSans-61"/>
      <use x="835.158203" xlink:href="#DejaVuSans-70"/>
      <use x="898.634766" xlink:href="#DejaVuSans-74"/>
      <use x="937.84375" xlink:href="#DejaVuSans-69"/>
      <use x="965.626953" xlink:href="#DejaVuSans-76"/>
      <use x="1024.806641" xlink:href="#DejaVuSans-65"/>
      <use x="1086.330078" xlink:href="#DejaVuSans-28"/>
      <use x="1125.34375" xlink:href="#DejaVuSans-30"/>
      <use x="1188.966797" xlink:href="#DejaVuSans-2e"/>
      <use x="1220.753906" xlink:href="#DejaVuSans-39"/>
      <use x="1284.376953" xlink:href="#DejaVuSans-37"/>
      <use x="1348" xlink:href="#DejaVuSans-29"/>
     </g>
    </g>
    <g id="line2d_29">
     <path d="M 52.78125 213.560312 
L 72.78125 213.560312 
" style="fill:none;stroke:#000000;stroke-linecap:square;"/>
    </g>
    <g id="line2d_30">
     <g>
      <use style="stroke:#000000;" x="62.78125" xlink:href="#md61000e020" y="213.560312"/>
     </g>
    </g>
    <g id="text_20">
     <!-- DiVE-dSwap-Adaptive(Hypothetical) -->
     <defs>
      <path d="M 9.8125 72.90625 
L 19.671875 72.90625 
L 19.671875 43.015625 
L 55.515625 43.015625 
L 55.515625 72.90625 
L 65.375 72.90625 
L 65.375 0 
L 55.515625 0 
L 55.515625 34.71875 
L 19.671875 34.71875 
L 19.671875 0 
L 9.8125 0 
z
" id="DejaVuSans-48"/>
      <path d="M 32.171875 -5.078125 
Q 28.375 -14.84375 24.75 -17.8125 
Q 21.140625 -20.796875 15.09375 -20.796875 
L 7.90625 -20.796875 
L 7.90625 -13.28125 
L 13.1875 -13.28125 
Q 16.890625 -13.28125 18.9375 -11.515625 
Q 21 -9.765625 23.484375 -3.21875 
L 25.09375 0.875 
L 2.984375 54.6875 
L 12.5 54.6875 
L 29.59375 11.921875 
L 46.6875 54.6875 
L 56.203125 54.6875 
z
" id="DejaVuSans-79"/>
      <path d="M 54.890625 33.015625 
L 54.890625 0 
L 45.90625 0 
L 45.90625 32.71875 
Q 45.90625 40.484375 42.875 44.328125 
Q 39.84375 48.1875 33.796875 48.1875 
Q 26.515625 48.1875 22.3125 43.546875 
Q 18.109375 38.921875 18.109375 30.90625 
L 18.109375 0 
L 9.078125 0 
L 9.078125 75.984375 
L 18.109375 75.984375 
L 18.109375 46.1875 
Q 21.34375 51.125 25.703125 53.5625 
Q 30.078125 56 35.796875 56 
Q 45.21875 56 50.046875 50.171875 
Q 54.890625 44.34375 54.890625 33.015625 
z
" id="DejaVuSans-68"/>
      <path d="M 48.78125 52.59375 
L 48.78125 44.1875 
Q 44.96875 46.296875 41.140625 47.34375 
Q 37.3125 48.390625 33.40625 48.390625 
Q 24.65625 48.390625 19.8125 42.84375 
Q 14.984375 37.3125 14.984375 27.296875 
Q 14.984375 17.28125 19.8125 11.734375 
Q 24.65625 6.203125 33.40625 6.203125 
Q 37.3125 6.203125 41.140625 7.25 
Q 44.96875 8.296875 48.78125 10.40625 
L 48.78125 2.09375 
Q 45.015625 0.34375 40.984375 -0.53125 
Q 36.96875 -1.421875 32.421875 -1.421875 
Q 20.0625 -1.421875 12.78125 6.34375 
Q 5.515625 14.109375 5.515625 27.296875 
Q 5.515625 40.671875 12.859375 48.328125 
Q 20.21875 56 33.015625 56 
Q 37.15625 56 41.109375 55.140625 
Q 45.0625 54.296875 48.78125 52.59375 
z
" id="DejaVuSans-63"/>
      <path d="M 9.421875 75.984375 
L 18.40625 75.984375 
L 18.40625 0 
L 9.421875 0 
z
" id="DejaVuSans-6c"/>
     </defs>
     <g transform="translate(80.78125 217.060312)scale(0.1 -0.1)">
      <use xlink:href="#DejaVuSans-44"/>
      <use x="77.001953" xlink:href="#DejaVuSans-69"/>
      <use x="104.785156" xlink:href="#DejaVuSans-56"/>
      <use x="173.193359" xlink:href="#DejaVuSans-45"/>
      <use x="236.376953" xlink:href="#DejaVuSans-2d"/>
      <use x="272.460938" xlink:href="#DejaVuSans-64"/>
      <use x="335.9375" xlink:href="#DejaVuSans-53"/>
      <use x="399.414062" xlink:href="#DejaVuSans-77"/>
      <use x="481.201172" xlink:href="#DejaVuSans-61"/>
      <use x="542.480469" xlink:href="#DejaVuSans-70"/>
      <use x="605.957031" xlink:href="#DejaVuSans-2d"/>
      <use x="642.009766" xlink:href="#DejaVuSans-41"/>
      <use x="710.402344" xlink:href="#DejaVuSans-64"/>
      <use x="773.878906" xlink:href="#DejaVuSans-61"/>
      <use x="835.158203" xlink:href="#DejaVuSans-70"/>
      <use x="898.634766" xlink:href="#DejaVuSans-74"/>
      <use x="937.84375" xlink:href="#DejaVuSans-69"/>
      <use x="965.626953" xlink:href="#DejaVuSans-76"/>
      <use x="1024.806641" xlink:href="#DejaVuSans-65"/>
      <use x="1086.330078" xlink:href="#DejaVuSans-28"/>
      <use x="1125.34375" xlink:href="#DejaVuSans-48"/>
      <use x="1200.539062" xlink:href="#DejaVuSans-79"/>
      <use x="1259.71875" xlink:href="#DejaVuSans-70"/>
      <use x="1323.195312" xlink:href="#DejaVuSans-6f"/>
      <use x="1384.376953" xlink:href="#DejaVuSans-74"/>
      <use x="1423.585938" xlink:href="#DejaVuSans-68"/>
      <use x="1486.964844" xlink:href="#DejaVuSans-65"/>
      <use x="1548.488281" xlink:href="#DejaVuSans-74"/>
      <use x="1587.697266" xlink:href="#DejaVuSans-69"/>
      <use x="1615.480469" xlink:href="#DejaVuSans-63"/>
      <use x="1670.460938" xlink:href="#DejaVuSans-61"/>
      <use x="1731.740234" xlink:href="#DejaVuSans-6c"/>
      <use x="1759.523438" xlink:href="#DejaVuSans-29"/>
     </g>
    </g>
   </g>
  </g>
 </g>
 <defs>
  <clipPath id="pe950599f2b">
   <rect height="217.44" width="334.8" x="43.78125" y="10.7"/>
  </clipPath>
 </defs>
</svg>
