<?xml version="1.0" encoding="utf-8" standalone="no"?>
<!DOCTYPE svg PUBLIC "-//W3C//DTD SVG 1.1//EN"
  "http://www.w3.org/Graphics/SVG/1.1/DTD/svg11.dtd">
<!-- Created with matplotlib (http://matplotlib.org/) -->
<svg height="288pt" version="1.1" viewBox="0 0 432 288" width="432pt" xmlns="http://www.w3.org/2000/svg" xmlns:xlink="http://www.w3.org/1999/xlink">
 <defs>
  <style type="text/css">
*{stroke-linecap:butt;stroke-linejoin:round;}
  </style>
 </defs>
 <g id="figure_1">
  <g id="patch_1">
   <path d="M 0 288 
L 432 288 
L 432 0 
L 0 0 
z
" style="fill:#ffffff;"/>
  </g>
  <g id="axes_1">
   <g id="patch_2">
    <path d="M 54 252 
L 388.8 252 
L 388.8 34.56 
L 54 34.56 
z
" style="fill:#ffffff;"/>
   </g>
   <g id="matplotlib.axis_1">
    <g id="xtick_1">
     <g id="line2d_1">
      <defs>
       <path d="M 0 0 
L 0 3.5 
" id="m2082526377" style="stroke:#000000;stroke-width:0.8;"/>
      </defs>
      <g>
       <use style="stroke:#000000;stroke-width:0.8;" x="54" xlink:href="#m2082526377" y="252"/>
      </g>
     </g>
     <g id="text_1">
      <!-- 0.0 -->
      <defs>
       <path d="M 31.78125 66.40625 
Q 24.171875 66.40625 20.328125 58.90625 
Q 16.5 51.421875 16.5 36.375 
Q 16.5 21.390625 20.328125 13.890625 
Q 24.171875 6.390625 31.78125 6.390625 
Q 39.453125 6.390625 43.28125 13.890625 
Q 47.125 21.390625 47.125 36.375 
Q 47.125 51.421875 43.28125 58.90625 
Q 39.453125 66.40625 31.78125 66.40625 
z
M 31.78125 74.21875 
Q 44.046875 74.21875 50.515625 64.515625 
Q 56.984375 54.828125 56.984375 36.375 
Q 56.984375 17.96875 50.515625 8.265625 
Q 44.046875 -1.421875 31.78125 -1.421875 
Q 19.53125 -1.421875 13.0625 8.265625 
Q 6.59375 17.96875 6.59375 36.375 
Q 6.59375 54.828125 13.0625 64.515625 
Q 19.53125 74.21875 31.78125 74.21875 
z
" id="DejaVuSans-30"/>
       <path d="M 10.6875 12.40625 
L 21 12.40625 
L 21 0 
L 10.6875 0 
z
" id="DejaVuSans-2e"/>
      </defs>
      <g transform="translate(46.048437 266.598437)scale(0.1 -0.1)">
       <use xlink:href="#DejaVuSans-30"/>
       <use x="63.623047" xlink:href="#DejaVuSans-2e"/>
       <use x="95.410156" xlink:href="#DejaVuSans-30"/>
      </g>
     </g>
    </g>
    <g id="xtick_2">
     <g id="line2d_2">
      <g>
       <use style="stroke:#000000;stroke-width:0.8;" x="120.96" xlink:href="#m2082526377" y="252"/>
      </g>
     </g>
     <g id="text_2">
      <!-- 0.2 -->
      <defs>
       <path d="M 19.1875 8.296875 
L 53.609375 8.296875 
L 53.609375 0 
L 7.328125 0 
L 7.328125 8.296875 
Q 12.9375 14.109375 22.625 23.890625 
Q 32.328125 33.6875 34.8125 36.53125 
Q 39.546875 41.84375 41.421875 45.53125 
Q 43.3125 49.21875 43.3125 52.78125 
Q 43.3125 58.59375 39.234375 62.25 
Q 35.15625 65.921875 28.609375 65.921875 
Q 23.96875 65.921875 18.8125 64.3125 
Q 13.671875 62.703125 7.8125 59.421875 
L 7.8125 69.390625 
Q 13.765625 71.78125 18.9375 73 
Q 24.125 74.21875 28.421875 74.21875 
Q 39.75 74.21875 46.484375 68.546875 
Q 53.21875 62.890625 53.21875 53.421875 
Q 53.21875 48.921875 51.53125 44.890625 
Q 49.859375 40.875 45.40625 35.40625 
Q 44.1875 33.984375 37.640625 27.21875 
Q 31.109375 20.453125 19.1875 8.296875 
z
" id="DejaVuSans-32"/>
      </defs>
      <g transform="translate(113.008438 266.598437)scale(0.1 -0.1)">
       <use xlink:href="#DejaVuSans-30"/>
       <use x="63.623047" xlink:href="#DejaVuSans-2e"/>
       <use x="95.410156" xlink:href="#DejaVuSans-32"/>
      </g>
     </g>
    </g>
    <g id="xtick_3">
     <g id="line2d_3">
      <g>
       <use style="stroke:#000000;stroke-width:0.8;" x="187.92" xlink:href="#m2082526377" y="252"/>
      </g>
     </g>
     <g id="text_3">
      <!-- 0.4 -->
      <defs>
       <path d="M 37.796875 64.3125 
L 12.890625 25.390625 
L 37.796875 25.390625 
z
M 35.203125 72.90625 
L 47.609375 72.90625 
L 47.609375 25.390625 
L 58.015625 25.390625 
L 58.015625 17.1875 
L 47.609375 17.1875 
L 47.609375 0 
L 37.796875 0 
L 37.796875 17.1875 
L 4.890625 17.1875 
L 4.890625 26.703125 
z
" id="DejaVuSans-34"/>
      </defs>
      <g transform="translate(179.968438 266.598437)scale(0.1 -0.1)">
       <use xlink:href="#DejaVuSans-30"/>
       <use x="63.623047" xlink:href="#DejaVuSans-2e"/>
       <use x="95.410156" xlink:href="#DejaVuSans-34"/>
      </g>
     </g>
    </g>
    <g id="xtick_4">
     <g id="line2d_4">
      <g>
       <use style="stroke:#000000;stroke-width:0.8;" x="254.88" xlink:href="#m2082526377" y="252"/>
      </g>
     </g>
     <g id="text_4">
      <!-- 0.6 -->
      <defs>
       <path d="M 33.015625 40.375 
Q 26.375 40.375 22.484375 35.828125 
Q 18.609375 31.296875 18.609375 23.390625 
Q 18.609375 15.53125 22.484375 10.953125 
Q 26.375 6.390625 33.015625 6.390625 
Q 39.65625 6.390625 43.53125 10.953125 
Q 47.40625 15.53125 47.40625 23.390625 
Q 47.40625 31.296875 43.53125 35.828125 
Q 39.65625 40.375 33.015625 40.375 
z
M 52.59375 71.296875 
L 52.59375 62.3125 
Q 48.875 64.0625 45.09375 64.984375 
Q 41.3125 65.921875 37.59375 65.921875 
Q 27.828125 65.921875 22.671875 59.328125 
Q 17.53125 52.734375 16.796875 39.40625 
Q 19.671875 43.65625 24.015625 45.921875 
Q 28.375 48.1875 33.59375 48.1875 
Q 44.578125 48.1875 50.953125 41.515625 
Q 57.328125 34.859375 57.328125 23.390625 
Q 57.328125 12.15625 50.6875 5.359375 
Q 44.046875 -1.421875 33.015625 -1.421875 
Q 20.359375 -1.421875 13.671875 8.265625 
Q 6.984375 17.96875 6.984375 36.375 
Q 6.984375 53.65625 15.1875 63.9375 
Q 23.390625 74.21875 37.203125 74.21875 
Q 40.921875 74.21875 44.703125 73.484375 
Q 48.484375 72.75 52.59375 71.296875 
z
" id="DejaVuSans-36"/>
      </defs>
      <g transform="translate(246.928438 266.598437)scale(0.1 -0.1)">
       <use xlink:href="#DejaVuSans-30"/>
       <use x="63.623047" xlink:href="#DejaVuSans-2e"/>
       <use x="95.410156" xlink:href="#DejaVuSans-36"/>
      </g>
     </g>
    </g>
    <g id="xtick_5">
     <g id="line2d_5">
      <g>
       <use style="stroke:#000000;stroke-width:0.8;" x="321.84" xlink:href="#m2082526377" y="252"/>
      </g>
     </g>
     <g id="text_5">
      <!-- 0.8 -->
      <defs>
       <path d="M 31.78125 34.625 
Q 24.75 34.625 20.71875 30.859375 
Q 16.703125 27.09375 16.703125 20.515625 
Q 16.703125 13.921875 20.71875 10.15625 
Q 24.75 6.390625 31.78125 6.390625 
Q 38.8125 6.390625 42.859375 10.171875 
Q 46.921875 13.96875 46.921875 20.515625 
Q 46.921875 27.09375 42.890625 30.859375 
Q 38.875 34.625 31.78125 34.625 
z
M 21.921875 38.8125 
Q 15.578125 40.375 12.03125 44.71875 
Q 8.5 49.078125 8.5 55.328125 
Q 8.5 64.0625 14.71875 69.140625 
Q 20.953125 74.21875 31.78125 74.21875 
Q 42.671875 74.21875 48.875 69.140625 
Q 55.078125 64.0625 55.078125 55.328125 
Q 55.078125 49.078125 51.53125 44.71875 
Q 48 40.375 41.703125 38.8125 
Q 48.828125 37.15625 52.796875 32.3125 
Q 56.78125 27.484375 56.78125 20.515625 
Q 56.78125 9.90625 50.3125 4.234375 
Q 43.84375 -1.421875 31.78125 -1.421875 
Q 19.734375 -1.421875 13.25 4.234375 
Q 6.78125 9.90625 6.78125 20.515625 
Q 6.78125 27.484375 10.78125 32.3125 
Q 14.796875 37.15625 21.921875 38.8125 
z
M 18.3125 54.390625 
Q 18.3125 48.734375 21.84375 45.5625 
Q 25.390625 42.390625 31.78125 42.390625 
Q 38.140625 42.390625 41.71875 45.5625 
Q 45.3125 48.734375 45.3125 54.390625 
Q 45.3125 60.0625 41.71875 63.234375 
Q 38.140625 66.40625 31.78125 66.40625 
Q 25.390625 66.40625 21.84375 63.234375 
Q 18.3125 60.0625 18.3125 54.390625 
z
" id="DejaVuSans-38"/>
      </defs>
      <g transform="translate(313.888438 266.598437)scale(0.1 -0.1)">
       <use xlink:href="#DejaVuSans-30"/>
       <use x="63.623047" xlink:href="#DejaVuSans-2e"/>
       <use x="95.410156" xlink:href="#DejaVuSans-38"/>
      </g>
     </g>
    </g>
    <g id="xtick_6">
     <g id="line2d_6">
      <g>
       <use style="stroke:#000000;stroke-width:0.8;" x="388.8" xlink:href="#m2082526377" y="252"/>
      </g>
     </g>
     <g id="text_6">
      <!-- 1.0 -->
      <defs>
       <path d="M 12.40625 8.296875 
L 28.515625 8.296875 
L 28.515625 63.921875 
L 10.984375 60.40625 
L 10.984375 69.390625 
L 28.421875 72.90625 
L 38.28125 72.90625 
L 38.28125 8.296875 
L 54.390625 8.296875 
L 54.390625 0 
L 12.40625 0 
z
" id="DejaVuSans-31"/>
      </defs>
      <g transform="translate(380.848437 266.598437)scale(0.1 -0.1)">
       <use xlink:href="#DejaVuSans-31"/>
       <use x="63.623047" xlink:href="#DejaVuSans-2e"/>
       <use x="95.410156" xlink:href="#DejaVuSans-30"/>
      </g>
     </g>
    </g>
    <g id="text_7">
     <!-- $\lambda$ -->
     <defs>
      <path d="M 36.71875 67.4375 
L 48.828125 0 
L 39.3125 0 
L 31.84375 40.4375 
L 5.125 0 
L -4.390625 0 
L 29.734375 52.4375 
L 28.03125 62.109375 
Q 26.953125 68.265625 21.734375 68.265625 
L 17.046875 68.265625 
L 18.5 75.984375 
L 24.21875 75.875 
Q 35.203125 75.734375 36.71875 67.4375 
z
" id="DejaVuSans-Oblique-3bb"/>
     </defs>
     <g transform="translate(218.4 280.276563)scale(0.1 -0.1)">
      <use transform="translate(0 0.015625)" xlink:href="#DejaVuSans-Oblique-3bb"/>
     </g>
    </g>
   </g>
   <g id="matplotlib.axis_2">
    <g id="ytick_1">
     <g id="line2d_7">
      <defs>
       <path d="M 0 0 
L -3.5 0 
" id="md7a9add837" style="stroke:#000000;stroke-width:0.8;"/>
      </defs>
      <g>
       <use style="stroke:#000000;stroke-width:0.8;" x="54" xlink:href="#md7a9add837" y="252"/>
      </g>
     </g>
     <g id="text_8">
      <!-- 0.00 -->
      <g transform="translate(24.734375 255.799219)scale(0.1 -0.1)">
       <use xlink:href="#DejaVuSans-30"/>
       <use x="63.623047" xlink:href="#DejaVuSans-2e"/>
       <use x="95.410156" xlink:href="#DejaVuSans-30"/>
       <use x="159.033203" xlink:href="#DejaVuSans-30"/>
      </g>
     </g>
    </g>
    <g id="ytick_2">
     <g id="line2d_8">
      <g>
       <use style="stroke:#000000;stroke-width:0.8;" x="54" xlink:href="#md7a9add837" y="224.164133"/>
      </g>
     </g>
     <g id="text_9">
      <!-- 0.25 -->
      <defs>
       <path d="M 10.796875 72.90625 
L 49.515625 72.90625 
L 49.515625 64.59375 
L 19.828125 64.59375 
L 19.828125 46.734375 
Q 21.96875 47.46875 24.109375 47.828125 
Q 26.265625 48.1875 28.421875 48.1875 
Q 40.625 48.1875 47.75 41.5 
Q 54.890625 34.8125 54.890625 23.390625 
Q 54.890625 11.625 47.5625 5.09375 
Q 40.234375 -1.421875 26.90625 -1.421875 
Q 22.3125 -1.421875 17.546875 -0.640625 
Q 12.796875 0.140625 7.71875 1.703125 
L 7.71875 11.625 
Q 12.109375 9.234375 16.796875 8.0625 
Q 21.484375 6.890625 26.703125 6.890625 
Q 35.15625 6.890625 40.078125 11.328125 
Q 45.015625 15.765625 45.015625 23.390625 
Q 45.015625 31 40.078125 35.4375 
Q 35.15625 39.890625 26.703125 39.890625 
Q 22.75 39.890625 18.8125 39.015625 
Q 14.890625 38.140625 10.796875 36.28125 
z
" id="DejaVuSans-35"/>
      </defs>
      <g transform="translate(24.734375 227.963352)scale(0.1 -0.1)">
       <use xlink:href="#DejaVuSans-30"/>
       <use x="63.623047" xlink:href="#DejaVuSans-2e"/>
       <use x="95.410156" xlink:href="#DejaVuSans-32"/>
       <use x="159.033203" xlink:href="#DejaVuSans-35"/>
      </g>
     </g>
    </g>
    <g id="ytick_3">
     <g id="line2d_9">
      <g>
       <use style="stroke:#000000;stroke-width:0.8;" x="54" xlink:href="#md7a9add837" y="196.328266"/>
      </g>
     </g>
     <g id="text_10">
      <!-- 0.50 -->
      <g transform="translate(24.734375 200.127485)scale(0.1 -0.1)">
       <use xlink:href="#DejaVuSans-30"/>
       <use x="63.623047" xlink:href="#DejaVuSans-2e"/>
       <use x="95.410156" xlink:href="#DejaVuSans-35"/>
       <use x="159.033203" xlink:href="#DejaVuSans-30"/>
      </g>
     </g>
    </g>
    <g id="ytick_4">
     <g id="line2d_10">
      <g>
       <use style="stroke:#000000;stroke-width:0.8;" x="54" xlink:href="#md7a9add837" y="168.492399"/>
      </g>
     </g>
     <g id="text_11">
      <!-- 0.75 -->
      <defs>
       <path d="M 8.203125 72.90625 
L 55.078125 72.90625 
L 55.078125 68.703125 
L 28.609375 0 
L 18.3125 0 
L 43.21875 64.59375 
L 8.203125 64.59375 
z
" id="DejaVuSans-37"/>
      </defs>
      <g transform="translate(24.734375 172.291618)scale(0.1 -0.1)">
       <use xlink:href="#DejaVuSans-30"/>
       <use x="63.623047" xlink:href="#DejaVuSans-2e"/>
       <use x="95.410156" xlink:href="#DejaVuSans-37"/>
       <use x="159.033203" xlink:href="#DejaVuSans-35"/>
      </g>
     </g>
    </g>
    <g id="ytick_5">
     <g id="line2d_11">
      <g>
       <use style="stroke:#000000;stroke-width:0.8;" x="54" xlink:href="#md7a9add837" y="140.656532"/>
      </g>
     </g>
     <g id="text_12">
      <!-- 1.00 -->
      <g transform="translate(24.734375 144.455751)scale(0.1 -0.1)">
       <use xlink:href="#DejaVuSans-31"/>
       <use x="63.623047" xlink:href="#DejaVuSans-2e"/>
       <use x="95.410156" xlink:href="#DejaVuSans-30"/>
       <use x="159.033203" xlink:href="#DejaVuSans-30"/>
      </g>
     </g>
    </g>
    <g id="ytick_6">
     <g id="line2d_12">
      <g>
       <use style="stroke:#000000;stroke-width:0.8;" x="54" xlink:href="#md7a9add837" y="112.820666"/>
      </g>
     </g>
     <g id="text_13">
      <!-- 1.25 -->
      <g transform="translate(24.734375 116.619884)scale(0.1 -0.1)">
       <use xlink:href="#DejaVuSans-31"/>
       <use x="63.623047" xlink:href="#DejaVuSans-2e"/>
       <use x="95.410156" xlink:href="#DejaVuSans-32"/>
       <use x="159.033203" xlink:href="#DejaVuSans-35"/>
      </g>
     </g>
    </g>
    <g id="ytick_7">
     <g id="line2d_13">
      <g>
       <use style="stroke:#000000;stroke-width:0.8;" x="54" xlink:href="#md7a9add837" y="84.984799"/>
      </g>
     </g>
     <g id="text_14">
      <!-- 1.50 -->
      <g transform="translate(24.734375 88.784017)scale(0.1 -0.1)">
       <use xlink:href="#DejaVuSans-31"/>
       <use x="63.623047" xlink:href="#DejaVuSans-2e"/>
       <use x="95.410156" xlink:href="#DejaVuSans-35"/>
       <use x="159.033203" xlink:href="#DejaVuSans-30"/>
      </g>
     </g>
    </g>
    <g id="ytick_8">
     <g id="line2d_14">
      <g>
       <use style="stroke:#000000;stroke-width:0.8;" x="54" xlink:href="#md7a9add837" y="57.148932"/>
      </g>
     </g>
     <g id="text_15">
      <!-- 1.75 -->
      <g transform="translate(24.734375 60.94815)scale(0.1 -0.1)">
       <use xlink:href="#DejaVuSans-31"/>
       <use x="63.623047" xlink:href="#DejaVuSans-2e"/>
       <use x="95.410156" xlink:href="#DejaVuSans-37"/>
       <use x="159.033203" xlink:href="#DejaVuSans-35"/>
      </g>
     </g>
    </g>
    <g id="text_16">
     <!-- $\mathcal{Time(s)}$ -->
     <defs>
      <path d="M 71.203125 72.09375 
L 73 70.59375 
Q 64.59375 56.796875 42.90625 55.90625 
L 32.09375 18.703125 
Q 30.203125 12.296875 28.140625 8.390625 
Q 26.09375 4.5 23.1875 2.703125 
Q 20.296875 0.90625 17.75 0.453125 
Q 15.203125 0 10.796875 0 
L 11.703125 2.40625 
Q 14.59375 2.40625 16.546875 5.09375 
Q 18.5 7.796875 20.09375 13.59375 
L 29.40625 46 
Q 31.90625 55 31.90625 56.796875 
Q 31.90625 58.296875 30.84375 59.140625 
Q 29.796875 60 28.40625 60 
Q 23.40625 60 17.34375 57.25 
Q 11.296875 54.5 6.09375 47.703125 
L 4.09375 49.09375 
Q 10.59375 58.5 18.9375 62.390625 
Q 27.296875 66.296875 42.703125 66.296875 
Q 44.796875 66.296875 48.09375 66 
Q 51.40625 65.703125 52.796875 65.703125 
Q 67 65.703125 71.203125 72.09375 
z
" id="STIXNonUnicode-Italic-e240"/>
      <path d="M 32.5 67.90625 
L 30.203125 58.59375 
L 21 58.59375 
L 23.296875 67.90625 
z
M 26.59375 45.90625 
L 15.203125 0 
L 6.90625 0 
L 17.796875 44 
L 25.796875 46.40625 
z
" id="STIXGeneral-Italic-1d62a"/>
      <path d="M 25.296875 45.90625 
L 23.90625 40.203125 
Q 30.296875 46.296875 39.296875 46.296875 
Q 48.09375 46.296875 50.796875 39.796875 
Q 58.203125 46.296875 66.59375 46.296875 
Q 71.5 46.296875 74.5 43.6875 
Q 77.5 41.09375 77.5 36.09375 
Q 77.5 34 76.90625 31.5 
L 69.09375 0 
L 61.40625 0 
L 68.703125 29.296875 
Q 69.296875 31.703125 69.296875 33.5 
Q 69.296875 39.203125 63.203125 39.203125 
Q 60.5 39.203125 56 36.640625 
Q 51.5 34.09375 49.203125 30.203125 
L 41.703125 0 
L 34 0 
L 41.09375 29 
Q 41.796875 32.203125 41.796875 33.5 
Q 41.796875 39.203125 35.90625 39.203125 
Q 33.203125 39.203125 28.640625 36.703125 
Q 24.09375 34.203125 21.703125 30.203125 
L 14.203125 0 
L 6.5 0 
L 17.40625 44 
L 24.5 46.40625 
z
" id="STIXGeneral-Italic-1d62e"/>
      <path d="M 40.296875 16.703125 
L 46 13.203125 
Q 40.40625 5.59375 35.15625 2.296875 
Q 29.90625 -1 22.703125 -1 
Q 15.40625 -1 11.15625 3.140625 
Q 6.90625 7.296875 6.90625 14.796875 
Q 6.90625 24.40625 11.453125 31.796875 
Q 16 39.203125 22.390625 42.75 
Q 28.796875 46.296875 35.296875 46.296875 
Q 41.703125 46.296875 45.203125 42.84375 
Q 48.703125 39.40625 48.703125 33.40625 
Q 48.703125 30.5 48 27.703125 
L 46.59375 22.203125 
L 15.703125 22.203125 
Q 15 19.40625 15 16.796875 
Q 15 11.703125 17.84375 8.890625 
Q 20.703125 6.09375 25.296875 6.09375 
Q 33.203125 6.09375 40.296875 16.703125 
z
M 18.796875 29.296875 
L 40.296875 29.296875 
Q 40.703125 30.90625 40.703125 32.59375 
Q 40.703125 39.203125 32.703125 39.203125 
Q 28.703125 39.203125 24.796875 36.703125 
Q 20.90625 34.203125 18.796875 29.296875 
z
" id="STIXGeneral-Italic-1d626"/>
      <path d="M 30.40625 -16.09375 
L 29.203125 -17.703125 
Q 17.59375 -11.09375 11.1875 0.5 
Q 4.796875 12.09375 4.796875 25.203125 
Q 4.796875 52.90625 29.5 67.59375 
L 30.40625 66 
Q 20.203125 57.296875 16.796875 48.84375 
Q 13.40625 40.40625 13.40625 25.5 
Q 13.40625 10.703125 16.90625 1.5 
Q 20.40625 -7.703125 30.40625 -16.09375 
z
" id="STIXGeneral-Regular-28"/>
      <path d="M 43.203125 41 
L 41 32.09375 
L 39.5 32.09375 
Q 37.796875 36.5 35.296875 37.890625 
Q 32.796875 39.296875 28.890625 39.296875 
Q 25 39.296875 23.046875 37.140625 
Q 21.09375 35 21.09375 33 
Q 21.09375 31 22.796875 29.546875 
Q 24.5 28.09375 27.796875 26.5 
Q 33.796875 23.59375 36.140625 21.34375 
Q 38.5 19.09375 38.5 15.796875 
Q 38.5 9 32.890625 4 
Q 27.296875 -1 18.59375 -1 
Q 14.09375 -1 11.390625 0.296875 
Q 8.703125 1.59375 6.09375 4.5 
L 8.59375 14.796875 
L 10.09375 14.796875 
Q 11.90625 6.09375 21 6.09375 
Q 24.40625 6.09375 27.296875 7.84375 
Q 30.203125 9.59375 30.203125 12.796875 
Q 30.203125 14.296875 28.59375 15.640625 
Q 27 17 23.203125 18.90625 
Q 17.703125 21.59375 15.25 24.25 
Q 12.796875 26.90625 12.796875 30.296875 
Q 12.796875 36.5 18 41.390625 
Q 23.203125 46.296875 30.90625 46.296875 
Q 39.59375 46.296875 43.203125 41 
z
" id="STIXGeneral-Italic-1d634"/>
      <path d="M 2.90625 66 
L 4.09375 67.59375 
Q 15.5 60.796875 22 49.1875 
Q 28.5 37.59375 28.5 24.703125 
Q 28.5 -2.59375 3.796875 -17.703125 
L 2.90625 -16.09375 
Q 13.203125 -7.59375 16.546875 0.84375 
Q 19.90625 9.296875 19.90625 24.40625 
Q 19.90625 39.59375 16.546875 48.75 
Q 13.203125 57.90625 2.90625 66 
z
" id="STIXGeneral-Regular-29"/>
     </defs>
     <g transform="translate(18.654687 158.23)rotate(-90)scale(0.1 -0.1)">
      <use transform="translate(0 0.90625)" xlink:href="#STIXNonUnicode-Italic-e240"/>
      <use transform="translate(50.899994 0.90625)" xlink:href="#STIXGeneral-Italic-1d62a"/>
      <use transform="translate(72.899979 0.90625)" xlink:href="#STIXGeneral-Italic-1d62e"/>
      <use transform="translate(148.499969 0.90625)" xlink:href="#STIXGeneral-Italic-1d626"/>
      <use transform="translate(192.899963 0.90625)" xlink:href="#STIXGeneral-Regular-28"/>
      <use transform="translate(226.199951 0.90625)" xlink:href="#STIXGeneral-Italic-1d634"/>
      <use transform="translate(265.099945 0.90625)" xlink:href="#STIXGeneral-Regular-29"/>
     </g>
    </g>
   </g>
   <g id="line2d_15">
    <path clip-path="url(#p5794f0d4d2)" d="M 54 43.322551 
L 87.48 43.322551 
L 120.96 43.322551 
L 154.44 51.219436 
L 187.92 62.832285 
L 221.4 74.360294 
L 254.88 96.636164 
L 288.36 111.235543 
L 321.84 136.585186 
L 355.32 181.596243 
L 388.8 218.573578 
" style="fill:none;stroke:#000000;stroke-dasharray:6.4,1.6,1,1.6;stroke-dashoffset:0;"/>
    <defs>
     <path d="M 0 3.5 
C 0.928211 3.5 1.81853 3.131218 2.474874 2.474874 
C 3.131218 1.81853 3.5 0.928211 3.5 0 
C 3.5 -0.928211 3.131218 -1.81853 2.474874 -2.474874 
C 1.81853 -3.131218 0.928211 -3.5 0 -3.5 
C -0.928211 -3.5 -1.81853 -3.131218 -2.474874 -2.474874 
C -3.131218 -1.81853 -3.5 -0.928211 -3.5 0 
C -3.5 0.928211 -3.131218 1.81853 -2.474874 2.474874 
C -1.81853 3.131218 -0.928211 3.5 0 3.5 
z
" id="m9dd696253e" style="stroke:#000000;"/>
    </defs>
    <g clip-path="url(#p5794f0d4d2)">
     <use style="stroke:#000000;" x="54" xlink:href="#m9dd696253e" y="43.322551"/>
     <use style="stroke:#000000;" x="87.48" xlink:href="#m9dd696253e" y="43.322551"/>
     <use style="stroke:#000000;" x="120.96" xlink:href="#m9dd696253e" y="43.322551"/>
     <use style="stroke:#000000;" x="154.44" xlink:href="#m9dd696253e" y="51.219436"/>
     <use style="stroke:#000000;" x="187.92" xlink:href="#m9dd696253e" y="62.832285"/>
     <use style="stroke:#000000;" x="221.4" xlink:href="#m9dd696253e" y="74.360294"/>
     <use style="stroke:#000000;" x="254.88" xlink:href="#m9dd696253e" y="96.636164"/>
     <use style="stroke:#000000;" x="288.36" xlink:href="#m9dd696253e" y="111.235543"/>
     <use style="stroke:#000000;" x="321.84" xlink:href="#m9dd696253e" y="136.585186"/>
     <use style="stroke:#000000;" x="355.32" xlink:href="#m9dd696253e" y="181.596243"/>
     <use style="stroke:#000000;" x="388.8" xlink:href="#m9dd696253e" y="218.573578"/>
    </g>
   </g>
   <g id="line2d_16">
    <path clip-path="url(#p5794f0d4d2)" d="M 54 77.325072 
L 87.48 77.325072 
L 120.96 77.325072 
L 154.44 77.325072 
L 187.92 77.325072 
L 221.4 77.325072 
L 254.88 77.325072 
L 288.36 77.325072 
L 321.84 89.078341 
L 355.32 168.081542 
L 388.8 203.430866 
" style="fill:none;stroke:#000000;stroke-linecap:square;"/>
    <defs>
     <path d="M -3.5 3.5 
L 3.5 3.5 
L 3.5 -3.5 
L -3.5 -3.5 
z
" id="mcc2531a3df" style="stroke:#000000;stroke-linejoin:miter;"/>
    </defs>
    <g clip-path="url(#p5794f0d4d2)">
     <use style="stroke:#000000;stroke-linejoin:miter;" x="54" xlink:href="#mcc2531a3df" y="77.325072"/>
     <use style="stroke:#000000;stroke-linejoin:miter;" x="87.48" xlink:href="#mcc2531a3df" y="77.325072"/>
     <use style="stroke:#000000;stroke-linejoin:miter;" x="120.96" xlink:href="#mcc2531a3df" y="77.325072"/>
     <use style="stroke:#000000;stroke-linejoin:miter;" x="154.44" xlink:href="#mcc2531a3df" y="77.325072"/>
     <use style="stroke:#000000;stroke-linejoin:miter;" x="187.92" xlink:href="#mcc2531a3df" y="77.325072"/>
     <use style="stroke:#000000;stroke-linejoin:miter;" x="221.4" xlink:href="#mcc2531a3df" y="77.325072"/>
     <use style="stroke:#000000;stroke-linejoin:miter;" x="254.88" xlink:href="#mcc2531a3df" y="77.325072"/>
     <use style="stroke:#000000;stroke-linejoin:miter;" x="288.36" xlink:href="#mcc2531a3df" y="77.325072"/>
     <use style="stroke:#000000;stroke-linejoin:miter;" x="321.84" xlink:href="#mcc2531a3df" y="89.078341"/>
     <use style="stroke:#000000;stroke-linejoin:miter;" x="355.32" xlink:href="#mcc2531a3df" y="168.081542"/>
     <use style="stroke:#000000;stroke-linejoin:miter;" x="388.8" xlink:href="#mcc2531a3df" y="203.430866"/>
    </g>
   </g>
   <g id="line2d_17">
    <path clip-path="url(#p5794f0d4d2)" d="M 54 43.322551 
L 87.48 43.322551 
L 120.96 43.322551 
L 154.44 43.322551 
L 187.92 43.322551 
L 221.4 43.322551 
L 254.88 43.322551 
L 288.36 43.322551 
L 321.84 43.322551 
L 355.32 84.984799 
L 388.8 192.765275 
" style="fill:none;stroke:#000000;stroke-linecap:square;"/>
    <defs>
     <path d="M 3.5 0 
L -3.5 -3.5 
L -3.5 3.5 
z
" id="md870694446" style="stroke:#000000;stroke-linejoin:miter;"/>
    </defs>
    <g clip-path="url(#p5794f0d4d2)">
     <use style="stroke:#000000;stroke-linejoin:miter;" x="54" xlink:href="#md870694446" y="43.322551"/>
     <use style="stroke:#000000;stroke-linejoin:miter;" x="87.48" xlink:href="#md870694446" y="43.322551"/>
     <use style="stroke:#000000;stroke-linejoin:miter;" x="120.96" xlink:href="#md870694446" y="43.322551"/>
     <use style="stroke:#000000;stroke-linejoin:miter;" x="154.44" xlink:href="#md870694446" y="43.322551"/>
     <use style="stroke:#000000;stroke-linejoin:miter;" x="187.92" xlink:href="#md870694446" y="43.322551"/>
     <use style="stroke:#000000;stroke-linejoin:miter;" x="221.4" xlink:href="#md870694446" y="43.322551"/>
     <use style="stroke:#000000;stroke-linejoin:miter;" x="254.88" xlink:href="#md870694446" y="43.322551"/>
     <use style="stroke:#000000;stroke-linejoin:miter;" x="288.36" xlink:href="#md870694446" y="43.322551"/>
     <use style="stroke:#000000;stroke-linejoin:miter;" x="321.84" xlink:href="#md870694446" y="43.322551"/>
     <use style="stroke:#000000;stroke-linejoin:miter;" x="355.32" xlink:href="#md870694446" y="84.984799"/>
     <use style="stroke:#000000;stroke-linejoin:miter;" x="388.8" xlink:href="#md870694446" y="192.765275"/>
    </g>
   </g>
   <g id="line2d_18">
    <path clip-path="url(#p5794f0d4d2)" d="M 54 77.325072 
L 87.48 77.325072 
L 120.96 77.325072 
L 154.44 77.325072 
L 187.92 77.325072 
L 221.4 77.325072 
L 254.88 77.325072 
L 288.36 77.325072 
L 321.84 77.325072 
L 355.32 99.967176 
L 388.8 181.285764 
" style="fill:none;stroke:#000000;stroke-dasharray:6.4,1.6,1,1.6;stroke-dashoffset:0;"/>
    <defs>
     <path d="M -3.5 0 
L 3.5 0 
M 0 3.5 
L 0 -3.5 
" id="mbe2c36852f" style="stroke:#000000;"/>
    </defs>
    <g clip-path="url(#p5794f0d4d2)">
     <use style="stroke:#000000;" x="54" xlink:href="#mbe2c36852f" y="77.325072"/>
     <use style="stroke:#000000;" x="87.48" xlink:href="#mbe2c36852f" y="77.325072"/>
     <use style="stroke:#000000;" x="120.96" xlink:href="#mbe2c36852f" y="77.325072"/>
     <use style="stroke:#000000;" x="154.44" xlink:href="#mbe2c36852f" y="77.325072"/>
     <use style="stroke:#000000;" x="187.92" xlink:href="#mbe2c36852f" y="77.325072"/>
     <use style="stroke:#000000;" x="221.4" xlink:href="#mbe2c36852f" y="77.325072"/>
     <use style="stroke:#000000;" x="254.88" xlink:href="#mbe2c36852f" y="77.325072"/>
     <use style="stroke:#000000;" x="288.36" xlink:href="#mbe2c36852f" y="77.325072"/>
     <use style="stroke:#000000;" x="321.84" xlink:href="#mbe2c36852f" y="77.325072"/>
     <use style="stroke:#000000;" x="355.32" xlink:href="#mbe2c36852f" y="99.967176"/>
     <use style="stroke:#000000;" x="388.8" xlink:href="#mbe2c36852f" y="181.285764"/>
    </g>
   </g>
   <g id="line2d_19">
    <path clip-path="url(#p5794f0d4d2)" d="M 54 43.322551 
L 87.48 43.322551 
L 120.96 43.322551 
L 154.44 43.322551 
L 187.92 43.322551 
L 221.4 43.322551 
L 254.88 43.322551 
L 288.36 43.322551 
L 321.84 43.322551 
L 355.32 43.322551 
L 388.8 43.322551 
" style="fill:none;stroke:#000000;stroke-dasharray:1,1.65;stroke-dashoffset:0;"/>
    <defs>
     <path d="M 0 -3.5 
L -3.5 3.5 
L 3.5 3.5 
z
" id="m35f4007e4f" style="stroke:#000000;stroke-linejoin:miter;"/>
    </defs>
    <g clip-path="url(#p5794f0d4d2)">
     <use style="stroke:#000000;stroke-linejoin:miter;" x="54" xlink:href="#m35f4007e4f" y="43.322551"/>
     <use style="stroke:#000000;stroke-linejoin:miter;" x="87.48" xlink:href="#m35f4007e4f" y="43.322551"/>
     <use style="stroke:#000000;stroke-linejoin:miter;" x="120.96" xlink:href="#m35f4007e4f" y="43.322551"/>
     <use style="stroke:#000000;stroke-linejoin:miter;" x="154.44" xlink:href="#m35f4007e4f" y="43.322551"/>
     <use style="stroke:#000000;stroke-linejoin:miter;" x="187.92" xlink:href="#m35f4007e4f" y="43.322551"/>
     <use style="stroke:#000000;stroke-linejoin:miter;" x="221.4" xlink:href="#m35f4007e4f" y="43.322551"/>
     <use style="stroke:#000000;stroke-linejoin:miter;" x="254.88" xlink:href="#m35f4007e4f" y="43.322551"/>
     <use style="stroke:#000000;stroke-linejoin:miter;" x="288.36" xlink:href="#m35f4007e4f" y="43.322551"/>
     <use style="stroke:#000000;stroke-linejoin:miter;" x="321.84" xlink:href="#m35f4007e4f" y="43.322551"/>
     <use style="stroke:#000000;stroke-linejoin:miter;" x="355.32" xlink:href="#m35f4007e4f" y="43.322551"/>
     <use style="stroke:#000000;stroke-linejoin:miter;" x="388.8" xlink:href="#m35f4007e4f" y="43.322551"/>
    </g>
   </g>
   <g id="line2d_20">
    <path clip-path="url(#p5794f0d4d2)" d="M 54 77.325072 
L 87.48 77.325072 
L 120.96 77.325072 
L 154.44 77.325072 
L 187.92 77.325072 
L 221.4 77.325072 
L 254.88 77.325072 
L 288.36 77.325072 
L 321.84 77.325072 
L 355.32 77.325072 
L 388.8 77.325072 
" style="fill:none;stroke:#000000;stroke-dasharray:3.7,1.6;stroke-dashoffset:0;"/>
    <defs>
     <path d="M 0 -3.5 
L -0.785799 -1.081559 
L -3.328698 -1.081559 
L -1.271449 0.413119 
L -2.057248 2.831559 
L -0 1.336881 
L 2.057248 2.831559 
L 1.271449 0.413119 
L 3.328698 -1.081559 
L 0.785799 -1.081559 
z
" id="mab3b0e0084" style="stroke:#000000;stroke-linejoin:bevel;"/>
    </defs>
    <g clip-path="url(#p5794f0d4d2)">
     <use style="stroke:#000000;stroke-linejoin:bevel;" x="54" xlink:href="#mab3b0e0084" y="77.325072"/>
     <use style="stroke:#000000;stroke-linejoin:bevel;" x="87.48" xlink:href="#mab3b0e0084" y="77.325072"/>
     <use style="stroke:#000000;stroke-linejoin:bevel;" x="120.96" xlink:href="#mab3b0e0084" y="77.325072"/>
     <use style="stroke:#000000;stroke-linejoin:bevel;" x="154.44" xlink:href="#mab3b0e0084" y="77.325072"/>
     <use style="stroke:#000000;stroke-linejoin:bevel;" x="187.92" xlink:href="#mab3b0e0084" y="77.325072"/>
     <use style="stroke:#000000;stroke-linejoin:bevel;" x="221.4" xlink:href="#mab3b0e0084" y="77.325072"/>
     <use style="stroke:#000000;stroke-linejoin:bevel;" x="254.88" xlink:href="#mab3b0e0084" y="77.325072"/>
     <use style="stroke:#000000;stroke-linejoin:bevel;" x="288.36" xlink:href="#mab3b0e0084" y="77.325072"/>
     <use style="stroke:#000000;stroke-linejoin:bevel;" x="321.84" xlink:href="#mab3b0e0084" y="77.325072"/>
     <use style="stroke:#000000;stroke-linejoin:bevel;" x="355.32" xlink:href="#mab3b0e0084" y="77.325072"/>
     <use style="stroke:#000000;stroke-linejoin:bevel;" x="388.8" xlink:href="#mab3b0e0084" y="77.325072"/>
    </g>
   </g>
   <g id="patch_3">
    <path d="M 54 252 
L 54 34.56 
" style="fill:none;stroke:#000000;stroke-linecap:square;stroke-linejoin:miter;stroke-width:0.8;"/>
   </g>
   <g id="patch_4">
    <path d="M 388.8 252 
L 388.8 34.56 
" style="fill:none;stroke:#000000;stroke-linecap:square;stroke-linejoin:miter;stroke-width:0.8;"/>
   </g>
   <g id="patch_5">
    <path d="M 54 252 
L 388.8 252 
" style="fill:none;stroke:#000000;stroke-linecap:square;stroke-linejoin:miter;stroke-width:0.8;"/>
   </g>
   <g id="patch_6">
    <path d="M 54 34.56 
L 388.8 34.56 
" style="fill:none;stroke:#000000;stroke-linecap:square;stroke-linejoin:miter;stroke-width:0.8;"/>
   </g>
   <g id="legend_1">
    <g id="patch_7">
     <path d="M 61 247 
L 252.989063 247 
Q 254.989063 247 254.989063 245 
L 254.989063 157.93125 
Q 254.989063 155.93125 252.989063 155.93125 
L 61 155.93125 
Q 59 155.93125 59 157.93125 
L 59 245 
Q 59 247 61 247 
z
" style="fill:#ffffff;opacity:0.8;stroke:#cccccc;stroke-linejoin:miter;"/>
    </g>
    <g id="line2d_21">
     <path d="M 63 164.029688 
L 83 164.029688 
" style="fill:none;stroke:#000000;stroke-dasharray:6.4,1.6,1,1.6;stroke-dashoffset:0;"/>
    </g>
    <g id="line2d_22">
     <g>
      <use style="stroke:#000000;" x="73" xlink:href="#m9dd696253e" y="164.029688"/>
     </g>
    </g>
    <g id="text_17">
     <!-- i-DiVE-SwapD-Adaptive-Pruning -->
     <defs>
      <path d="M 9.421875 54.6875 
L 18.40625 54.6875 
L 18.40625 0 
L 9.421875 0 
z
M 9.421875 75.984375 
L 18.40625 75.984375 
L 18.40625 64.59375 
L 9.421875 64.59375 
z
" id="DejaVuSans-69"/>
      <path d="M 4.890625 31.390625 
L 31.203125 31.390625 
L 31.203125 23.390625 
L 4.890625 23.390625 
z
" id="DejaVuSans-2d"/>
      <path d="M 19.671875 64.796875 
L 19.671875 8.109375 
L 31.59375 8.109375 
Q 46.6875 8.109375 53.6875 14.9375 
Q 60.6875 21.78125 60.6875 36.53125 
Q 60.6875 51.171875 53.6875 57.984375 
Q 46.6875 64.796875 31.59375 64.796875 
z
M 9.8125 72.90625 
L 30.078125 72.90625 
Q 51.265625 72.90625 61.171875 64.09375 
Q 71.09375 55.28125 71.09375 36.53125 
Q 71.09375 17.671875 61.125 8.828125 
Q 51.171875 0 30.078125 0 
L 9.8125 0 
z
" id="DejaVuSans-44"/>
      <path d="M 28.609375 0 
L 0.78125 72.90625 
L 11.078125 72.90625 
L 34.1875 11.53125 
L 57.328125 72.90625 
L 67.578125 72.90625 
L 39.796875 0 
z
" id="DejaVuSans-56"/>
      <path d="M 9.8125 72.90625 
L 55.90625 72.90625 
L 55.90625 64.59375 
L 19.671875 64.59375 
L 19.671875 43.015625 
L 54.390625 43.015625 
L 54.390625 34.71875 
L 19.671875 34.71875 
L 19.671875 8.296875 
L 56.78125 8.296875 
L 56.78125 0 
L 9.8125 0 
z
" id="DejaVuSans-45"/>
      <path d="M 53.515625 70.515625 
L 53.515625 60.890625 
Q 47.90625 63.578125 42.921875 64.890625 
Q 37.9375 66.21875 33.296875 66.21875 
Q 25.25 66.21875 20.875 63.09375 
Q 16.5 59.96875 16.5 54.203125 
Q 16.5 49.359375 19.40625 46.890625 
Q 22.3125 44.4375 30.421875 42.921875 
L 36.375 41.703125 
Q 47.40625 39.59375 52.65625 34.296875 
Q 57.90625 29 57.90625 20.125 
Q 57.90625 9.515625 50.796875 4.046875 
Q 43.703125 -1.421875 29.984375 -1.421875 
Q 24.8125 -1.421875 18.96875 -0.25 
Q 13.140625 0.921875 6.890625 3.21875 
L 6.890625 13.375 
Q 12.890625 10.015625 18.65625 8.296875 
Q 24.421875 6.59375 29.984375 6.59375 
Q 38.421875 6.59375 43.015625 9.90625 
Q 47.609375 13.234375 47.609375 19.390625 
Q 47.609375 24.75 44.3125 27.78125 
Q 41.015625 30.8125 33.5 32.328125 
L 27.484375 33.5 
Q 16.453125 35.6875 11.515625 40.375 
Q 6.59375 45.0625 6.59375 53.421875 
Q 6.59375 63.09375 13.40625 68.65625 
Q 20.21875 74.21875 32.171875 74.21875 
Q 37.3125 74.21875 42.625 73.28125 
Q 47.953125 72.359375 53.515625 70.515625 
z
" id="DejaVuSans-53"/>
      <path d="M 4.203125 54.6875 
L 13.1875 54.6875 
L 24.421875 12.015625 
L 35.59375 54.6875 
L 46.1875 54.6875 
L 57.421875 12.015625 
L 68.609375 54.6875 
L 77.59375 54.6875 
L 63.28125 0 
L 52.6875 0 
L 40.921875 44.828125 
L 29.109375 0 
L 18.5 0 
z
" id="DejaVuSans-77"/>
      <path d="M 34.28125 27.484375 
Q 23.390625 27.484375 19.1875 25 
Q 14.984375 22.515625 14.984375 16.5 
Q 14.984375 11.71875 18.140625 8.90625 
Q 21.296875 6.109375 26.703125 6.109375 
Q 34.1875 6.109375 38.703125 11.40625 
Q 43.21875 16.703125 43.21875 25.484375 
L 43.21875 27.484375 
z
M 52.203125 31.203125 
L 52.203125 0 
L 43.21875 0 
L 43.21875 8.296875 
Q 40.140625 3.328125 35.546875 0.953125 
Q 30.953125 -1.421875 24.3125 -1.421875 
Q 15.921875 -1.421875 10.953125 3.296875 
Q 6 8.015625 6 15.921875 
Q 6 25.140625 12.171875 29.828125 
Q 18.359375 34.515625 30.609375 34.515625 
L 43.21875 34.515625 
L 43.21875 35.40625 
Q 43.21875 41.609375 39.140625 45 
Q 35.0625 48.390625 27.6875 48.390625 
Q 23 48.390625 18.546875 47.265625 
Q 14.109375 46.140625 10.015625 43.890625 
L 10.015625 52.203125 
Q 14.9375 54.109375 19.578125 55.046875 
Q 24.21875 56 28.609375 56 
Q 40.484375 56 46.34375 49.84375 
Q 52.203125 43.703125 52.203125 31.203125 
z
" id="DejaVuSans-61"/>
      <path d="M 18.109375 8.203125 
L 18.109375 -20.796875 
L 9.078125 -20.796875 
L 9.078125 54.6875 
L 18.109375 54.6875 
L 18.109375 46.390625 
Q 20.953125 51.265625 25.265625 53.625 
Q 29.59375 56 35.59375 56 
Q 45.5625 56 51.78125 48.09375 
Q 58.015625 40.1875 58.015625 27.296875 
Q 58.015625 14.40625 51.78125 6.484375 
Q 45.5625 -1.421875 35.59375 -1.421875 
Q 29.59375 -1.421875 25.265625 0.953125 
Q 20.953125 3.328125 18.109375 8.203125 
z
M 48.6875 27.296875 
Q 48.6875 37.203125 44.609375 42.84375 
Q 40.53125 48.484375 33.40625 48.484375 
Q 26.265625 48.484375 22.1875 42.84375 
Q 18.109375 37.203125 18.109375 27.296875 
Q 18.109375 17.390625 22.1875 11.75 
Q 26.265625 6.109375 33.40625 6.109375 
Q 40.53125 6.109375 44.609375 11.75 
Q 48.6875 17.390625 48.6875 27.296875 
z
" id="DejaVuSans-70"/>
      <path d="M 34.1875 63.1875 
L 20.796875 26.90625 
L 47.609375 26.90625 
z
M 28.609375 72.90625 
L 39.796875 72.90625 
L 67.578125 0 
L 57.328125 0 
L 50.6875 18.703125 
L 17.828125 18.703125 
L 11.1875 0 
L 0.78125 0 
z
" id="DejaVuSans-41"/>
      <path d="M 45.40625 46.390625 
L 45.40625 75.984375 
L 54.390625 75.984375 
L 54.390625 0 
L 45.40625 0 
L 45.40625 8.203125 
Q 42.578125 3.328125 38.25 0.953125 
Q 33.9375 -1.421875 27.875 -1.421875 
Q 17.96875 -1.421875 11.734375 6.484375 
Q 5.515625 14.40625 5.515625 27.296875 
Q 5.515625 40.1875 11.734375 48.09375 
Q 17.96875 56 27.875 56 
Q 33.9375 56 38.25 53.625 
Q 42.578125 51.265625 45.40625 46.390625 
z
M 14.796875 27.296875 
Q 14.796875 17.390625 18.875 11.75 
Q 22.953125 6.109375 30.078125 6.109375 
Q 37.203125 6.109375 41.296875 11.75 
Q 45.40625 17.390625 45.40625 27.296875 
Q 45.40625 37.203125 41.296875 42.84375 
Q 37.203125 48.484375 30.078125 48.484375 
Q 22.953125 48.484375 18.875 42.84375 
Q 14.796875 37.203125 14.796875 27.296875 
z
" id="DejaVuSans-64"/>
      <path d="M 18.3125 70.21875 
L 18.3125 54.6875 
L 36.8125 54.6875 
L 36.8125 47.703125 
L 18.3125 47.703125 
L 18.3125 18.015625 
Q 18.3125 11.328125 20.140625 9.421875 
Q 21.96875 7.515625 27.59375 7.515625 
L 36.8125 7.515625 
L 36.8125 0 
L 27.59375 0 
Q 17.1875 0 13.234375 3.875 
Q 9.28125 7.765625 9.28125 18.015625 
L 9.28125 47.703125 
L 2.6875 47.703125 
L 2.6875 54.6875 
L 9.28125 54.6875 
L 9.28125 70.21875 
z
" id="DejaVuSans-74"/>
      <path d="M 2.984375 54.6875 
L 12.5 54.6875 
L 29.59375 8.796875 
L 46.6875 54.6875 
L 56.203125 54.6875 
L 35.6875 0 
L 23.484375 0 
z
" id="DejaVuSans-76"/>
      <path d="M 56.203125 29.59375 
L 56.203125 25.203125 
L 14.890625 25.203125 
Q 15.484375 15.921875 20.484375 11.0625 
Q 25.484375 6.203125 34.421875 6.203125 
Q 39.59375 6.203125 44.453125 7.46875 
Q 49.3125 8.734375 54.109375 11.28125 
L 54.109375 2.78125 
Q 49.265625 0.734375 44.1875 -0.34375 
Q 39.109375 -1.421875 33.890625 -1.421875 
Q 20.796875 -1.421875 13.15625 6.1875 
Q 5.515625 13.8125 5.515625 26.8125 
Q 5.515625 40.234375 12.765625 48.109375 
Q 20.015625 56 32.328125 56 
Q 43.359375 56 49.78125 48.890625 
Q 56.203125 41.796875 56.203125 29.59375 
z
M 47.21875 32.234375 
Q 47.125 39.59375 43.09375 43.984375 
Q 39.0625 48.390625 32.421875 48.390625 
Q 24.90625 48.390625 20.390625 44.140625 
Q 15.875 39.890625 15.1875 32.171875 
z
" id="DejaVuSans-65"/>
      <path d="M 19.671875 64.796875 
L 19.671875 37.40625 
L 32.078125 37.40625 
Q 38.96875 37.40625 42.71875 40.96875 
Q 46.484375 44.53125 46.484375 51.125 
Q 46.484375 57.671875 42.71875 61.234375 
Q 38.96875 64.796875 32.078125 64.796875 
z
M 9.8125 72.90625 
L 32.078125 72.90625 
Q 44.34375 72.90625 50.609375 67.359375 
Q 56.890625 61.8125 56.890625 51.125 
Q 56.890625 40.328125 50.609375 34.8125 
Q 44.34375 29.296875 32.078125 29.296875 
L 19.671875 29.296875 
L 19.671875 0 
L 9.8125 0 
z
" id="DejaVuSans-50"/>
      <path d="M 41.109375 46.296875 
Q 39.59375 47.171875 37.8125 47.578125 
Q 36.03125 48 33.890625 48 
Q 26.265625 48 22.1875 43.046875 
Q 18.109375 38.09375 18.109375 28.8125 
L 18.109375 0 
L 9.078125 0 
L 9.078125 54.6875 
L 18.109375 54.6875 
L 18.109375 46.1875 
Q 20.953125 51.171875 25.484375 53.578125 
Q 30.03125 56 36.53125 56 
Q 37.453125 56 38.578125 55.875 
Q 39.703125 55.765625 41.0625 55.515625 
z
" id="DejaVuSans-72"/>
      <path d="M 8.5 21.578125 
L 8.5 54.6875 
L 17.484375 54.6875 
L 17.484375 21.921875 
Q 17.484375 14.15625 20.5 10.265625 
Q 23.53125 6.390625 29.59375 6.390625 
Q 36.859375 6.390625 41.078125 11.03125 
Q 45.3125 15.671875 45.3125 23.6875 
L 45.3125 54.6875 
L 54.296875 54.6875 
L 54.296875 0 
L 45.3125 0 
L 45.3125 8.40625 
Q 42.046875 3.421875 37.71875 1 
Q 33.40625 -1.421875 27.6875 -1.421875 
Q 18.265625 -1.421875 13.375 4.4375 
Q 8.5 10.296875 8.5 21.578125 
z
M 31.109375 56 
z
" id="DejaVuSans-75"/>
      <path d="M 54.890625 33.015625 
L 54.890625 0 
L 45.90625 0 
L 45.90625 32.71875 
Q 45.90625 40.484375 42.875 44.328125 
Q 39.84375 48.1875 33.796875 48.1875 
Q 26.515625 48.1875 22.3125 43.546875 
Q 18.109375 38.921875 18.109375 30.90625 
L 18.109375 0 
L 9.078125 0 
L 9.078125 54.6875 
L 18.109375 54.6875 
L 18.109375 46.1875 
Q 21.34375 51.125 25.703125 53.5625 
Q 30.078125 56 35.796875 56 
Q 45.21875 56 50.046875 50.171875 
Q 54.890625 44.34375 54.890625 33.015625 
z
" id="DejaVuSans-6e"/>
      <path d="M 45.40625 27.984375 
Q 45.40625 37.75 41.375 43.109375 
Q 37.359375 48.484375 30.078125 48.484375 
Q 22.859375 48.484375 18.828125 43.109375 
Q 14.796875 37.75 14.796875 27.984375 
Q 14.796875 18.265625 18.828125 12.890625 
Q 22.859375 7.515625 30.078125 7.515625 
Q 37.359375 7.515625 41.375 12.890625 
Q 45.40625 18.265625 45.40625 27.984375 
z
M 54.390625 6.78125 
Q 54.390625 -7.171875 48.1875 -13.984375 
Q 42 -20.796875 29.203125 -20.796875 
Q 24.46875 -20.796875 20.265625 -20.09375 
Q 16.0625 -19.390625 12.109375 -17.921875 
L 12.109375 -9.1875 
Q 16.0625 -11.328125 19.921875 -12.34375 
Q 23.78125 -13.375 27.78125 -13.375 
Q 36.625 -13.375 41.015625 -8.765625 
Q 45.40625 -4.15625 45.40625 5.171875 
L 45.40625 9.625 
Q 42.625 4.78125 38.28125 2.390625 
Q 33.9375 0 27.875 0 
Q 17.828125 0 11.671875 7.65625 
Q 5.515625 15.328125 5.515625 27.984375 
Q 5.515625 40.671875 11.671875 48.328125 
Q 17.828125 56 27.875 56 
Q 33.9375 56 38.28125 53.609375 
Q 42.625 51.21875 45.40625 46.390625 
L 45.40625 54.6875 
L 54.390625 54.6875 
z
" id="DejaVuSans-67"/>
     </defs>
     <g transform="translate(91 167.529688)scale(0.1 -0.1)">
      <use xlink:href="#DejaVuSans-69"/>
      <use x="27.783203" xlink:href="#DejaVuSans-2d"/>
      <use x="63.867188" xlink:href="#DejaVuSans-44"/>
      <use x="140.869141" xlink:href="#DejaVuSans-69"/>
      <use x="168.652344" xlink:href="#DejaVuSans-56"/>
      <use x="237.060547" xlink:href="#DejaVuSans-45"/>
      <use x="300.244141" xlink:href="#DejaVuSans-2d"/>
      <use x="336.328125" xlink:href="#DejaVuSans-53"/>
      <use x="399.804688" xlink:href="#DejaVuSans-77"/>
      <use x="481.591797" xlink:href="#DejaVuSans-61"/>
      <use x="542.871094" xlink:href="#DejaVuSans-70"/>
      <use x="606.347656" xlink:href="#DejaVuSans-44"/>
      <use x="683.349609" xlink:href="#DejaVuSans-2d"/>
      <use x="719.402344" xlink:href="#DejaVuSans-41"/>
      <use x="787.794922" xlink:href="#DejaVuSans-64"/>
      <use x="851.271484" xlink:href="#DejaVuSans-61"/>
      <use x="912.550781" xlink:href="#DejaVuSans-70"/>
      <use x="976.027344" xlink:href="#DejaVuSans-74"/>
      <use x="1015.236328" xlink:href="#DejaVuSans-69"/>
      <use x="1043.019531" xlink:href="#DejaVuSans-76"/>
      <use x="1102.199219" xlink:href="#DejaVuSans-65"/>
      <use x="1163.722656" xlink:href="#DejaVuSans-2d"/>
      <use x="1199.806641" xlink:href="#DejaVuSans-50"/>
      <use x="1260.09375" xlink:href="#DejaVuSans-72"/>
      <use x="1301.207031" xlink:href="#DejaVuSans-75"/>
      <use x="1364.585938" xlink:href="#DejaVuSans-6e"/>
      <use x="1427.964844" xlink:href="#DejaVuSans-69"/>
      <use x="1455.748047" xlink:href="#DejaVuSans-6e"/>
      <use x="1519.126953" xlink:href="#DejaVuSans-67"/>
     </g>
    </g>
    <g id="line2d_23">
     <path d="M 63 178.707813 
L 83 178.707813 
" style="fill:none;stroke:#000000;stroke-linecap:square;"/>
    </g>
    <g id="line2d_24">
     <g>
      <use style="stroke:#000000;stroke-linejoin:miter;" x="73" xlink:href="#mcc2531a3df" y="178.707813"/>
     </g>
    </g>
    <g id="text_18">
     <!-- i-DiVE-Greedy-Adaptive-Pruning -->
     <defs>
      <path d="M 59.515625 10.40625 
L 59.515625 29.984375 
L 43.40625 29.984375 
L 43.40625 38.09375 
L 69.28125 38.09375 
L 69.28125 6.78125 
Q 63.578125 2.734375 56.6875 0.65625 
Q 49.8125 -1.421875 42 -1.421875 
Q 24.90625 -1.421875 15.25 8.5625 
Q 5.609375 18.5625 5.609375 36.375 
Q 5.609375 54.25 15.25 64.234375 
Q 24.90625 74.21875 42 74.21875 
Q 49.125 74.21875 55.546875 72.453125 
Q 61.96875 70.703125 67.390625 67.28125 
L 67.390625 56.78125 
Q 61.921875 61.421875 55.765625 63.765625 
Q 49.609375 66.109375 42.828125 66.109375 
Q 29.4375 66.109375 22.71875 58.640625 
Q 16.015625 51.171875 16.015625 36.375 
Q 16.015625 21.625 22.71875 14.15625 
Q 29.4375 6.6875 42.828125 6.6875 
Q 48.046875 6.6875 52.140625 7.59375 
Q 56.25 8.5 59.515625 10.40625 
z
" id="DejaVuSans-47"/>
      <path d="M 32.171875 -5.078125 
Q 28.375 -14.84375 24.75 -17.8125 
Q 21.140625 -20.796875 15.09375 -20.796875 
L 7.90625 -20.796875 
L 7.90625 -13.28125 
L 13.1875 -13.28125 
Q 16.890625 -13.28125 18.9375 -11.515625 
Q 21 -9.765625 23.484375 -3.21875 
L 25.09375 0.875 
L 2.984375 54.6875 
L 12.5 54.6875 
L 29.59375 11.921875 
L 46.6875 54.6875 
L 56.203125 54.6875 
z
" id="DejaVuSans-79"/>
     </defs>
     <g transform="translate(91 182.207813)scale(0.1 -0.1)">
      <use xlink:href="#DejaVuSans-69"/>
      <use x="27.783203" xlink:href="#DejaVuSans-2d"/>
      <use x="63.867188" xlink:href="#DejaVuSans-44"/>
      <use x="140.869141" xlink:href="#DejaVuSans-69"/>
      <use x="168.652344" xlink:href="#DejaVuSans-56"/>
      <use x="237.060547" xlink:href="#DejaVuSans-45"/>
      <use x="300.244141" xlink:href="#DejaVuSans-2d"/>
      <use x="336.375" xlink:href="#DejaVuSans-47"/>
      <use x="413.865234" xlink:href="#DejaVuSans-72"/>
      <use x="454.947266" xlink:href="#DejaVuSans-65"/>
      <use x="516.470703" xlink:href="#DejaVuSans-65"/>
      <use x="577.994141" xlink:href="#DejaVuSans-64"/>
      <use x="641.470703" xlink:href="#DejaVuSans-79"/>
      <use x="700.634766" xlink:href="#DejaVuSans-2d"/>
      <use x="736.6875" xlink:href="#DejaVuSans-41"/>
      <use x="805.080078" xlink:href="#DejaVuSans-64"/>
      <use x="868.556641" xlink:href="#DejaVuSans-61"/>
      <use x="929.835938" xlink:href="#DejaVuSans-70"/>
      <use x="993.3125" xlink:href="#DejaVuSans-74"/>
      <use x="1032.521484" xlink:href="#DejaVuSans-69"/>
      <use x="1060.304688" xlink:href="#DejaVuSans-76"/>
      <use x="1119.484375" xlink:href="#DejaVuSans-65"/>
      <use x="1181.007812" xlink:href="#DejaVuSans-2d"/>
      <use x="1217.091797" xlink:href="#DejaVuSans-50"/>
      <use x="1277.378906" xlink:href="#DejaVuSans-72"/>
      <use x="1318.492188" xlink:href="#DejaVuSans-75"/>
      <use x="1381.871094" xlink:href="#DejaVuSans-6e"/>
      <use x="1445.25" xlink:href="#DejaVuSans-69"/>
      <use x="1473.033203" xlink:href="#DejaVuSans-6e"/>
      <use x="1536.412109" xlink:href="#DejaVuSans-67"/>
     </g>
    </g>
    <g id="line2d_25">
     <path d="M 63 193.385938 
L 83 193.385938 
" style="fill:none;stroke:#000000;stroke-linecap:square;"/>
    </g>
    <g id="line2d_26">
     <g>
      <use style="stroke:#000000;stroke-linejoin:miter;" x="73" xlink:href="#md870694446" y="193.385938"/>
     </g>
    </g>
    <g id="text_19">
     <!-- i-DiVE-SwapD-Static-Pruning -->
     <defs>
      <path d="M 48.78125 52.59375 
L 48.78125 44.1875 
Q 44.96875 46.296875 41.140625 47.34375 
Q 37.3125 48.390625 33.40625 48.390625 
Q 24.65625 48.390625 19.8125 42.84375 
Q 14.984375 37.3125 14.984375 27.296875 
Q 14.984375 17.28125 19.8125 11.734375 
Q 24.65625 6.203125 33.40625 6.203125 
Q 37.3125 6.203125 41.140625 7.25 
Q 44.96875 8.296875 48.78125 10.40625 
L 48.78125 2.09375 
Q 45.015625 0.34375 40.984375 -0.53125 
Q 36.96875 -1.421875 32.421875 -1.421875 
Q 20.0625 -1.421875 12.78125 6.34375 
Q 5.515625 14.109375 5.515625 27.296875 
Q 5.515625 40.671875 12.859375 48.328125 
Q 20.21875 56 33.015625 56 
Q 37.15625 56 41.109375 55.140625 
Q 45.0625 54.296875 48.78125 52.59375 
z
" id="DejaVuSans-63"/>
     </defs>
     <g transform="translate(91 196.885938)scale(0.1 -0.1)">
      <use xlink:href="#DejaVuSans-69"/>
      <use x="27.783203" xlink:href="#DejaVuSans-2d"/>
      <use x="63.867188" xlink:href="#DejaVuSans-44"/>
      <use x="140.869141" xlink:href="#DejaVuSans-69"/>
      <use x="168.652344" xlink:href="#DejaVuSans-56"/>
      <use x="237.060547" xlink:href="#DejaVuSans-45"/>
      <use x="300.244141" xlink:href="#DejaVuSans-2d"/>
      <use x="336.328125" xlink:href="#DejaVuSans-53"/>
      <use x="399.804688" xlink:href="#DejaVuSans-77"/>
      <use x="481.591797" xlink:href="#DejaVuSans-61"/>
      <use x="542.871094" xlink:href="#DejaVuSans-70"/>
      <use x="606.347656" xlink:href="#DejaVuSans-44"/>
      <use x="683.349609" xlink:href="#DejaVuSans-2d"/>
      <use x="719.433594" xlink:href="#DejaVuSans-53"/>
      <use x="782.910156" xlink:href="#DejaVuSans-74"/>
      <use x="822.119141" xlink:href="#DejaVuSans-61"/>
      <use x="883.398438" xlink:href="#DejaVuSans-74"/>
      <use x="922.607422" xlink:href="#DejaVuSans-69"/>
      <use x="950.390625" xlink:href="#DejaVuSans-63"/>
      <use x="1005.371094" xlink:href="#DejaVuSans-2d"/>
      <use x="1041.455078" xlink:href="#DejaVuSans-50"/>
      <use x="1101.742188" xlink:href="#DejaVuSans-72"/>
      <use x="1142.855469" xlink:href="#DejaVuSans-75"/>
      <use x="1206.234375" xlink:href="#DejaVuSans-6e"/>
      <use x="1269.613281" xlink:href="#DejaVuSans-69"/>
      <use x="1297.396484" xlink:href="#DejaVuSans-6e"/>
      <use x="1360.775391" xlink:href="#DejaVuSans-67"/>
     </g>
    </g>
    <g id="line2d_27">
     <path d="M 63 208.064063 
L 83 208.064063 
" style="fill:none;stroke:#000000;stroke-dasharray:6.4,1.6,1,1.6;stroke-dashoffset:0;"/>
    </g>
    <g id="line2d_28">
     <g>
      <use style="stroke:#000000;" x="73" xlink:href="#mbe2c36852f" y="208.064063"/>
     </g>
    </g>
    <g id="text_20">
     <!-- i-DiVE-Greedy-Static-Pruning -->
     <g transform="translate(91 211.564063)scale(0.1 -0.1)">
      <use xlink:href="#DejaVuSans-69"/>
      <use x="27.783203" xlink:href="#DejaVuSans-2d"/>
      <use x="63.867188" xlink:href="#DejaVuSans-44"/>
      <use x="140.869141" xlink:href="#DejaVuSans-69"/>
      <use x="168.652344" xlink:href="#DejaVuSans-56"/>
      <use x="237.060547" xlink:href="#DejaVuSans-45"/>
      <use x="300.244141" xlink:href="#DejaVuSans-2d"/>
      <use x="336.375" xlink:href="#DejaVuSans-47"/>
      <use x="413.865234" xlink:href="#DejaVuSans-72"/>
      <use x="454.947266" xlink:href="#DejaVuSans-65"/>
      <use x="516.470703" xlink:href="#DejaVuSans-65"/>
      <use x="577.994141" xlink:href="#DejaVuSans-64"/>
      <use x="641.470703" xlink:href="#DejaVuSans-79"/>
      <use x="700.634766" xlink:href="#DejaVuSans-2d"/>
      <use x="736.71875" xlink:href="#DejaVuSans-53"/>
      <use x="800.195312" xlink:href="#DejaVuSans-74"/>
      <use x="839.404297" xlink:href="#DejaVuSans-61"/>
      <use x="900.683594" xlink:href="#DejaVuSans-74"/>
      <use x="939.892578" xlink:href="#DejaVuSans-69"/>
      <use x="967.675781" xlink:href="#DejaVuSans-63"/>
      <use x="1022.65625" xlink:href="#DejaVuSans-2d"/>
      <use x="1058.740234" xlink:href="#DejaVuSans-50"/>
      <use x="1119.027344" xlink:href="#DejaVuSans-72"/>
      <use x="1160.140625" xlink:href="#DejaVuSans-75"/>
      <use x="1223.519531" xlink:href="#DejaVuSans-6e"/>
      <use x="1286.898438" xlink:href="#DejaVuSans-69"/>
      <use x="1314.681641" xlink:href="#DejaVuSans-6e"/>
      <use x="1378.060547" xlink:href="#DejaVuSans-67"/>
     </g>
    </g>
    <g id="line2d_29">
     <path d="M 63 222.742188 
L 83 222.742188 
" style="fill:none;stroke:#000000;stroke-dasharray:1,1.65;stroke-dashoffset:0;"/>
    </g>
    <g id="line2d_30">
     <g>
      <use style="stroke:#000000;stroke-linejoin:miter;" x="73" xlink:href="#m35f4007e4f" y="222.742188"/>
     </g>
    </g>
    <g id="text_21">
     <!-- i-DiVE-SwapD -->
     <g transform="translate(91 226.242188)scale(0.1 -0.1)">
      <use xlink:href="#DejaVuSans-69"/>
      <use x="27.783203" xlink:href="#DejaVuSans-2d"/>
      <use x="63.867188" xlink:href="#DejaVuSans-44"/>
      <use x="140.869141" xlink:href="#DejaVuSans-69"/>
      <use x="168.652344" xlink:href="#DejaVuSans-56"/>
      <use x="237.060547" xlink:href="#DejaVuSans-45"/>
      <use x="300.244141" xlink:href="#DejaVuSans-2d"/>
      <use x="336.328125" xlink:href="#DejaVuSans-53"/>
      <use x="399.804688" xlink:href="#DejaVuSans-77"/>
      <use x="481.591797" xlink:href="#DejaVuSans-61"/>
      <use x="542.871094" xlink:href="#DejaVuSans-70"/>
      <use x="606.347656" xlink:href="#DejaVuSans-44"/>
     </g>
    </g>
    <g id="line2d_31">
     <path d="M 63 237.420313 
L 83 237.420313 
" style="fill:none;stroke:#000000;stroke-dasharray:3.7,1.6;stroke-dashoffset:0;"/>
    </g>
    <g id="line2d_32">
     <g>
      <use style="stroke:#000000;stroke-linejoin:bevel;" x="73" xlink:href="#mab3b0e0084" y="237.420313"/>
     </g>
    </g>
    <g id="text_22">
     <!-- i-DiVE-Greedy -->
     <g transform="translate(91 240.920313)scale(0.1 -0.1)">
      <use xlink:href="#DejaVuSans-69"/>
      <use x="27.783203" xlink:href="#DejaVuSans-2d"/>
      <use x="63.867188" xlink:href="#DejaVuSans-44"/>
      <use x="140.869141" xlink:href="#DejaVuSans-69"/>
      <use x="168.652344" xlink:href="#DejaVuSans-56"/>
      <use x="237.060547" xlink:href="#DejaVuSans-45"/>
      <use x="300.244141" xlink:href="#DejaVuSans-2d"/>
      <use x="336.375" xlink:href="#DejaVuSans-47"/>
      <use x="413.865234" xlink:href="#DejaVuSans-72"/>
      <use x="454.947266" xlink:href="#DejaVuSans-65"/>
      <use x="516.470703" xlink:href="#DejaVuSans-65"/>
      <use x="577.994141" xlink:href="#DejaVuSans-64"/>
      <use x="641.470703" xlink:href="#DejaVuSans-79"/>
     </g>
    </g>
   </g>
  </g>
 </g>
 <defs>
  <clipPath id="p5794f0d4d2">
   <rect height="217.44" width="334.8" x="54" y="34.56"/>
  </clipPath>
 </defs>
</svg>
