<?xml version="1.0" encoding="utf-8" standalone="no"?>
<!DOCTYPE svg PUBLIC "-//W3C//DTD SVG 1.1//EN"
  "http://www.w3.org/Graphics/SVG/1.1/DTD/svg11.dtd">
<!-- Created with matplotlib (http://matplotlib.org/) -->
<svg height="265pt" version="1.1" viewBox="0 0 415 265" width="415pt" xmlns="http://www.w3.org/2000/svg" xmlns:xlink="http://www.w3.org/1999/xlink">
 <defs>
  <style type="text/css">
*{stroke-linecap:butt;stroke-linejoin:round;}
  </style>
 </defs>
 <g id="figure_1">
  <g id="patch_1">
   <path d="M 0 265.995469 
L 415.959375 265.995469 
L 415.959375 0 
L 0 0 
z
" style="fill:#ffffff;"/>
  </g>
  <g id="axes_1">
   <g id="patch_2">
    <path d="M 66.007813 228.439219 
L 400.807813 228.439219 
L 400.807813 10.999219 
L 66.007813 10.999219 
z
" style="fill:#ffffff;"/>
   </g>
   <g id="matplotlib.axis_1">
    <g id="xtick_1">
     <g id="line2d_1">
      <defs>
       <path d="M 0 0 
L 0 3.5 
" id="m57d26946da" style="stroke:#000000;stroke-width:0.8;"/>
      </defs>
      <g>
       <use style="stroke:#000000;stroke-width:0.8;" x="66.007813" xlink:href="#m57d26946da" y="228.439219"/>
      </g>
     </g>
     <g id="text_1">
      <!-- 0.0 -->
      <defs>
       <path d="M 31.78125 66.40625 
Q 24.171875 66.40625 20.328125 58.90625 
Q 16.5 51.421875 16.5 36.375 
Q 16.5 21.390625 20.328125 13.890625 
Q 24.171875 6.390625 31.78125 6.390625 
Q 39.453125 6.390625 43.28125 13.890625 
Q 47.125 21.390625 47.125 36.375 
Q 47.125 51.421875 43.28125 58.90625 
Q 39.453125 66.40625 31.78125 66.40625 
z
M 31.78125 74.21875 
Q 44.046875 74.21875 50.515625 64.515625 
Q 56.984375 54.828125 56.984375 36.375 
Q 56.984375 17.96875 50.515625 8.265625 
Q 44.046875 -1.421875 31.78125 -1.421875 
Q 19.53125 -1.421875 13.0625 8.265625 
Q 6.59375 17.96875 6.59375 36.375 
Q 6.59375 54.828125 13.0625 64.515625 
Q 19.53125 74.21875 31.78125 74.21875 
z
" id="DejaVuSans-30"/>
       <path d="M 10.6875 12.40625 
L 21 12.40625 
L 21 0 
L 10.6875 0 
z
" id="DejaVuSans-2e"/>
      </defs>
      <g transform="translate(58.05625 243.037656)scale(0.1 -0.1)">
       <use xlink:href="#DejaVuSans-30"/>
       <use x="63.623047" xlink:href="#DejaVuSans-2e"/>
       <use x="95.410156" xlink:href="#DejaVuSans-30"/>
      </g>
     </g>
    </g>
    <g id="xtick_2">
     <g id="line2d_2">
      <g>
       <use style="stroke:#000000;stroke-width:0.8;" x="132.967813" xlink:href="#m57d26946da" y="228.439219"/>
      </g>
     </g>
     <g id="text_2">
      <!-- 0.2 -->
      <defs>
       <path d="M 19.1875 8.296875 
L 53.609375 8.296875 
L 53.609375 0 
L 7.328125 0 
L 7.328125 8.296875 
Q 12.9375 14.109375 22.625 23.890625 
Q 32.328125 33.6875 34.8125 36.53125 
Q 39.546875 41.84375 41.421875 45.53125 
Q 43.3125 49.21875 43.3125 52.78125 
Q 43.3125 58.59375 39.234375 62.25 
Q 35.15625 65.921875 28.609375 65.921875 
Q 23.96875 65.921875 18.8125 64.3125 
Q 13.671875 62.703125 7.8125 59.421875 
L 7.8125 69.390625 
Q 13.765625 71.78125 18.9375 73 
Q 24.125 74.21875 28.421875 74.21875 
Q 39.75 74.21875 46.484375 68.546875 
Q 53.21875 62.890625 53.21875 53.421875 
Q 53.21875 48.921875 51.53125 44.890625 
Q 49.859375 40.875 45.40625 35.40625 
Q 44.1875 33.984375 37.640625 27.21875 
Q 31.109375 20.453125 19.1875 8.296875 
z
" id="DejaVuSans-32"/>
      </defs>
      <g transform="translate(125.01625 243.037656)scale(0.1 -0.1)">
       <use xlink:href="#DejaVuSans-30"/>
       <use x="63.623047" xlink:href="#DejaVuSans-2e"/>
       <use x="95.410156" xlink:href="#DejaVuSans-32"/>
      </g>
     </g>
    </g>
    <g id="xtick_3">
     <g id="line2d_3">
      <g>
       <use style="stroke:#000000;stroke-width:0.8;" x="199.927813" xlink:href="#m57d26946da" y="228.439219"/>
      </g>
     </g>
     <g id="text_3">
      <!-- 0.4 -->
      <defs>
       <path d="M 37.796875 64.3125 
L 12.890625 25.390625 
L 37.796875 25.390625 
z
M 35.203125 72.90625 
L 47.609375 72.90625 
L 47.609375 25.390625 
L 58.015625 25.390625 
L 58.015625 17.1875 
L 47.609375 17.1875 
L 47.609375 0 
L 37.796875 0 
L 37.796875 17.1875 
L 4.890625 17.1875 
L 4.890625 26.703125 
z
" id="DejaVuSans-34"/>
      </defs>
      <g transform="translate(191.97625 243.037656)scale(0.1 -0.1)">
       <use xlink:href="#DejaVuSans-30"/>
       <use x="63.623047" xlink:href="#DejaVuSans-2e"/>
       <use x="95.410156" xlink:href="#DejaVuSans-34"/>
      </g>
     </g>
    </g>
    <g id="xtick_4">
     <g id="line2d_4">
      <g>
       <use style="stroke:#000000;stroke-width:0.8;" x="266.887813" xlink:href="#m57d26946da" y="228.439219"/>
      </g>
     </g>
     <g id="text_4">
      <!-- 0.6 -->
      <defs>
       <path d="M 33.015625 40.375 
Q 26.375 40.375 22.484375 35.828125 
Q 18.609375 31.296875 18.609375 23.390625 
Q 18.609375 15.53125 22.484375 10.953125 
Q 26.375 6.390625 33.015625 6.390625 
Q 39.65625 6.390625 43.53125 10.953125 
Q 47.40625 15.53125 47.40625 23.390625 
Q 47.40625 31.296875 43.53125 35.828125 
Q 39.65625 40.375 33.015625 40.375 
z
M 52.59375 71.296875 
L 52.59375 62.3125 
Q 48.875 64.0625 45.09375 64.984375 
Q 41.3125 65.921875 37.59375 65.921875 
Q 27.828125 65.921875 22.671875 59.328125 
Q 17.53125 52.734375 16.796875 39.40625 
Q 19.671875 43.65625 24.015625 45.921875 
Q 28.375 48.1875 33.59375 48.1875 
Q 44.578125 48.1875 50.953125 41.515625 
Q 57.328125 34.859375 57.328125 23.390625 
Q 57.328125 12.15625 50.6875 5.359375 
Q 44.046875 -1.421875 33.015625 -1.421875 
Q 20.359375 -1.421875 13.671875 8.265625 
Q 6.984375 17.96875 6.984375 36.375 
Q 6.984375 53.65625 15.1875 63.9375 
Q 23.390625 74.21875 37.203125 74.21875 
Q 40.921875 74.21875 44.703125 73.484375 
Q 48.484375 72.75 52.59375 71.296875 
z
" id="DejaVuSans-36"/>
      </defs>
      <g transform="translate(258.93625 243.037656)scale(0.1 -0.1)">
       <use xlink:href="#DejaVuSans-30"/>
       <use x="63.623047" xlink:href="#DejaVuSans-2e"/>
       <use x="95.410156" xlink:href="#DejaVuSans-36"/>
      </g>
     </g>
    </g>
    <g id="xtick_5">
     <g id="line2d_5">
      <g>
       <use style="stroke:#000000;stroke-width:0.8;" x="333.847813" xlink:href="#m57d26946da" y="228.439219"/>
      </g>
     </g>
     <g id="text_5">
      <!-- 0.8 -->
      <defs>
       <path d="M 31.78125 34.625 
Q 24.75 34.625 20.71875 30.859375 
Q 16.703125 27.09375 16.703125 20.515625 
Q 16.703125 13.921875 20.71875 10.15625 
Q 24.75 6.390625 31.78125 6.390625 
Q 38.8125 6.390625 42.859375 10.171875 
Q 46.921875 13.96875 46.921875 20.515625 
Q 46.921875 27.09375 42.890625 30.859375 
Q 38.875 34.625 31.78125 34.625 
z
M 21.921875 38.8125 
Q 15.578125 40.375 12.03125 44.71875 
Q 8.5 49.078125 8.5 55.328125 
Q 8.5 64.0625 14.71875 69.140625 
Q 20.953125 74.21875 31.78125 74.21875 
Q 42.671875 74.21875 48.875 69.140625 
Q 55.078125 64.0625 55.078125 55.328125 
Q 55.078125 49.078125 51.53125 44.71875 
Q 48 40.375 41.703125 38.8125 
Q 48.828125 37.15625 52.796875 32.3125 
Q 56.78125 27.484375 56.78125 20.515625 
Q 56.78125 9.90625 50.3125 4.234375 
Q 43.84375 -1.421875 31.78125 -1.421875 
Q 19.734375 -1.421875 13.25 4.234375 
Q 6.78125 9.90625 6.78125 20.515625 
Q 6.78125 27.484375 10.78125 32.3125 
Q 14.796875 37.15625 21.921875 38.8125 
z
M 18.3125 54.390625 
Q 18.3125 48.734375 21.84375 45.5625 
Q 25.390625 42.390625 31.78125 42.390625 
Q 38.140625 42.390625 41.71875 45.5625 
Q 45.3125 48.734375 45.3125 54.390625 
Q 45.3125 60.0625 41.71875 63.234375 
Q 38.140625 66.40625 31.78125 66.40625 
Q 25.390625 66.40625 21.84375 63.234375 
Q 18.3125 60.0625 18.3125 54.390625 
z
" id="DejaVuSans-38"/>
      </defs>
      <g transform="translate(325.89625 243.037656)scale(0.1 -0.1)">
       <use xlink:href="#DejaVuSans-30"/>
       <use x="63.623047" xlink:href="#DejaVuSans-2e"/>
       <use x="95.410156" xlink:href="#DejaVuSans-38"/>
      </g>
     </g>
    </g>
    <g id="xtick_6">
     <g id="line2d_6">
      <g>
       <use style="stroke:#000000;stroke-width:0.8;" x="400.807813" xlink:href="#m57d26946da" y="228.439219"/>
      </g>
     </g>
     <g id="text_6">
      <!-- 1.0 -->
      <defs>
       <path d="M 12.40625 8.296875 
L 28.515625 8.296875 
L 28.515625 63.921875 
L 10.984375 60.40625 
L 10.984375 69.390625 
L 28.421875 72.90625 
L 38.28125 72.90625 
L 38.28125 8.296875 
L 54.390625 8.296875 
L 54.390625 0 
L 12.40625 0 
z
" id="DejaVuSans-31"/>
      </defs>
      <g transform="translate(392.85625 243.037656)scale(0.1 -0.1)">
       <use xlink:href="#DejaVuSans-31"/>
       <use x="63.623047" xlink:href="#DejaVuSans-2e"/>
       <use x="95.410156" xlink:href="#DejaVuSans-30"/>
      </g>
     </g>
    </g>
    <g id="text_7">
     <!-- $\lambda$ -->
     <defs>
      <path d="M 36.71875 67.4375 
L 48.828125 0 
L 39.3125 0 
L 31.84375 40.4375 
L 5.125 0 
L -4.390625 0 
L 29.734375 52.4375 
L 28.03125 62.109375 
Q 26.953125 68.265625 21.734375 68.265625 
L 17.046875 68.265625 
L 18.5 75.984375 
L 24.21875 75.875 
Q 35.203125 75.734375 36.71875 67.4375 
z
" id="DejaVuSans-Oblique-3bb"/>
     </defs>
     <g transform="translate(230.407813 256.715781)scale(0.1 -0.1)">
      <use transform="translate(0 0.015625)" xlink:href="#DejaVuSans-Oblique-3bb"/>
     </g>
    </g>
   </g>
   <g id="matplotlib.axis_2">
    <g id="ytick_1">
     <g id="line2d_7">
      <defs>
       <path d="M 0 0 
L -3.5 0 
" id="m8a3f437bba" style="stroke:#000000;stroke-width:0.8;"/>
      </defs>
      <g>
       <use style="stroke:#000000;stroke-width:0.8;" x="66.007813" xlink:href="#m8a3f437bba" y="228.439219"/>
      </g>
     </g>
     <g id="text_8">
      <!-- 0.0% -->
      <defs>
       <path d="M 72.703125 32.078125 
Q 68.453125 32.078125 66.03125 28.46875 
Q 63.625 24.859375 63.625 18.40625 
Q 63.625 12.0625 66.03125 8.421875 
Q 68.453125 4.78125 72.703125 4.78125 
Q 76.859375 4.78125 79.265625 8.421875 
Q 81.6875 12.0625 81.6875 18.40625 
Q 81.6875 24.8125 79.265625 28.4375 
Q 76.859375 32.078125 72.703125 32.078125 
z
M 72.703125 38.28125 
Q 80.421875 38.28125 84.953125 32.90625 
Q 89.5 27.546875 89.5 18.40625 
Q 89.5 9.28125 84.9375 3.921875 
Q 80.375 -1.421875 72.703125 -1.421875 
Q 64.890625 -1.421875 60.34375 3.921875 
Q 55.8125 9.28125 55.8125 18.40625 
Q 55.8125 27.59375 60.375 32.9375 
Q 64.9375 38.28125 72.703125 38.28125 
z
M 22.3125 68.015625 
Q 18.109375 68.015625 15.6875 64.375 
Q 13.28125 60.75 13.28125 54.390625 
Q 13.28125 47.953125 15.671875 44.328125 
Q 18.0625 40.71875 22.3125 40.71875 
Q 26.5625 40.71875 28.96875 44.328125 
Q 31.390625 47.953125 31.390625 54.390625 
Q 31.390625 60.6875 28.953125 64.34375 
Q 26.515625 68.015625 22.3125 68.015625 
z
M 66.40625 74.21875 
L 74.21875 74.21875 
L 28.609375 -1.421875 
L 20.796875 -1.421875 
z
M 22.3125 74.21875 
Q 30.03125 74.21875 34.609375 68.875 
Q 39.203125 63.53125 39.203125 54.390625 
Q 39.203125 45.171875 34.640625 39.84375 
Q 30.078125 34.515625 22.3125 34.515625 
Q 14.546875 34.515625 10.03125 39.859375 
Q 5.515625 45.21875 5.515625 54.390625 
Q 5.515625 63.484375 10.046875 68.84375 
Q 14.59375 74.21875 22.3125 74.21875 
z
" id="DejaVuSans-25"/>
      </defs>
      <g transform="translate(33.603125 232.238437)scale(0.1 -0.1)">
       <use xlink:href="#DejaVuSans-30"/>
       <use x="63.623047" xlink:href="#DejaVuSans-2e"/>
       <use x="95.410156" xlink:href="#DejaVuSans-30"/>
       <use x="159.033203" xlink:href="#DejaVuSans-25"/>
      </g>
     </g>
    </g>
    <g id="ytick_2">
     <g id="line2d_8">
      <g>
       <use style="stroke:#000000;stroke-width:0.8;" x="66.007813" xlink:href="#m8a3f437bba" y="184.951219"/>
      </g>
     </g>
     <g id="text_9">
      <!-- 20.0% -->
      <g transform="translate(27.240625 188.750437)scale(0.1 -0.1)">
       <use xlink:href="#DejaVuSans-32"/>
       <use x="63.623047" xlink:href="#DejaVuSans-30"/>
       <use x="127.246094" xlink:href="#DejaVuSans-2e"/>
       <use x="159.033203" xlink:href="#DejaVuSans-30"/>
       <use x="222.65625" xlink:href="#DejaVuSans-25"/>
      </g>
     </g>
    </g>
    <g id="ytick_3">
     <g id="line2d_9">
      <g>
       <use style="stroke:#000000;stroke-width:0.8;" x="66.007813" xlink:href="#m8a3f437bba" y="141.463219"/>
      </g>
     </g>
     <g id="text_10">
      <!-- 40.0% -->
      <g transform="translate(27.240625 145.262437)scale(0.1 -0.1)">
       <use xlink:href="#DejaVuSans-34"/>
       <use x="63.623047" xlink:href="#DejaVuSans-30"/>
       <use x="127.246094" xlink:href="#DejaVuSans-2e"/>
       <use x="159.033203" xlink:href="#DejaVuSans-30"/>
       <use x="222.65625" xlink:href="#DejaVuSans-25"/>
      </g>
     </g>
    </g>
    <g id="ytick_4">
     <g id="line2d_10">
      <g>
       <use style="stroke:#000000;stroke-width:0.8;" x="66.007813" xlink:href="#m8a3f437bba" y="97.975219"/>
      </g>
     </g>
     <g id="text_11">
      <!-- 60.0% -->
      <g transform="translate(27.240625 101.774437)scale(0.1 -0.1)">
       <use xlink:href="#DejaVuSans-36"/>
       <use x="63.623047" xlink:href="#DejaVuSans-30"/>
       <use x="127.246094" xlink:href="#DejaVuSans-2e"/>
       <use x="159.033203" xlink:href="#DejaVuSans-30"/>
       <use x="222.65625" xlink:href="#DejaVuSans-25"/>
      </g>
     </g>
    </g>
    <g id="ytick_5">
     <g id="line2d_11">
      <g>
       <use style="stroke:#000000;stroke-width:0.8;" x="66.007813" xlink:href="#m8a3f437bba" y="54.487219"/>
      </g>
     </g>
     <g id="text_12">
      <!-- 80.0% -->
      <g transform="translate(27.240625 58.286437)scale(0.1 -0.1)">
       <use xlink:href="#DejaVuSans-38"/>
       <use x="63.623047" xlink:href="#DejaVuSans-30"/>
       <use x="127.246094" xlink:href="#DejaVuSans-2e"/>
       <use x="159.033203" xlink:href="#DejaVuSans-30"/>
       <use x="222.65625" xlink:href="#DejaVuSans-25"/>
      </g>
     </g>
    </g>
    <g id="ytick_6">
     <g id="line2d_12">
      <g>
       <use style="stroke:#000000;stroke-width:0.8;" x="66.007813" xlink:href="#m8a3f437bba" y="10.999219"/>
      </g>
     </g>
     <g id="text_13">
      <!-- 100.0% -->
      <g transform="translate(20.878125 14.798437)scale(0.1 -0.1)">
       <use xlink:href="#DejaVuSans-31"/>
       <use x="63.623047" xlink:href="#DejaVuSans-30"/>
       <use x="127.246094" xlink:href="#DejaVuSans-30"/>
       <use x="190.869141" xlink:href="#DejaVuSans-2e"/>
       <use x="222.65625" xlink:href="#DejaVuSans-30"/>
       <use x="286.279297" xlink:href="#DejaVuSans-25"/>
      </g>
     </g>
    </g>
    <g id="text_14">
     <!-- percentage of pruned queries -->
     <defs>
      <path d="M 18.109375 8.203125 
L 18.109375 -20.796875 
L 9.078125 -20.796875 
L 9.078125 54.6875 
L 18.109375 54.6875 
L 18.109375 46.390625 
Q 20.953125 51.265625 25.265625 53.625 
Q 29.59375 56 35.59375 56 
Q 45.5625 56 51.78125 48.09375 
Q 58.015625 40.1875 58.015625 27.296875 
Q 58.015625 14.40625 51.78125 6.484375 
Q 45.5625 -1.421875 35.59375 -1.421875 
Q 29.59375 -1.421875 25.265625 0.953125 
Q 20.953125 3.328125 18.109375 8.203125 
z
M 48.6875 27.296875 
Q 48.6875 37.203125 44.609375 42.84375 
Q 40.53125 48.484375 33.40625 48.484375 
Q 26.265625 48.484375 22.1875 42.84375 
Q 18.109375 37.203125 18.109375 27.296875 
Q 18.109375 17.390625 22.1875 11.75 
Q 26.265625 6.109375 33.40625 6.109375 
Q 40.53125 6.109375 44.609375 11.75 
Q 48.6875 17.390625 48.6875 27.296875 
z
" id="DejaVuSans-70"/>
      <path d="M 56.203125 29.59375 
L 56.203125 25.203125 
L 14.890625 25.203125 
Q 15.484375 15.921875 20.484375 11.0625 
Q 25.484375 6.203125 34.421875 6.203125 
Q 39.59375 6.203125 44.453125 7.46875 
Q 49.3125 8.734375 54.109375 11.28125 
L 54.109375 2.78125 
Q 49.265625 0.734375 44.1875 -0.34375 
Q 39.109375 -1.421875 33.890625 -1.421875 
Q 20.796875 -1.421875 13.15625 6.1875 
Q 5.515625 13.8125 5.515625 26.8125 
Q 5.515625 40.234375 12.765625 48.109375 
Q 20.015625 56 32.328125 56 
Q 43.359375 56 49.78125 48.890625 
Q 56.203125 41.796875 56.203125 29.59375 
z
M 47.21875 32.234375 
Q 47.125 39.59375 43.09375 43.984375 
Q 39.0625 48.390625 32.421875 48.390625 
Q 24.90625 48.390625 20.390625 44.140625 
Q 15.875 39.890625 15.1875 32.171875 
z
" id="DejaVuSans-65"/>
      <path d="M 41.109375 46.296875 
Q 39.59375 47.171875 37.8125 47.578125 
Q 36.03125 48 33.890625 48 
Q 26.265625 48 22.1875 43.046875 
Q 18.109375 38.09375 18.109375 28.8125 
L 18.109375 0 
L 9.078125 0 
L 9.078125 54.6875 
L 18.109375 54.6875 
L 18.109375 46.1875 
Q 20.953125 51.171875 25.484375 53.578125 
Q 30.03125 56 36.53125 56 
Q 37.453125 56 38.578125 55.875 
Q 39.703125 55.765625 41.0625 55.515625 
z
" id="DejaVuSans-72"/>
      <path d="M 48.78125 52.59375 
L 48.78125 44.1875 
Q 44.96875 46.296875 41.140625 47.34375 
Q 37.3125 48.390625 33.40625 48.390625 
Q 24.65625 48.390625 19.8125 42.84375 
Q 14.984375 37.3125 14.984375 27.296875 
Q 14.984375 17.28125 19.8125 11.734375 
Q 24.65625 6.203125 33.40625 6.203125 
Q 37.3125 6.203125 41.140625 7.25 
Q 44.96875 8.296875 48.78125 10.40625 
L 48.78125 2.09375 
Q 45.015625 0.34375 40.984375 -0.53125 
Q 36.96875 -1.421875 32.421875 -1.421875 
Q 20.0625 -1.421875 12.78125 6.34375 
Q 5.515625 14.109375 5.515625 27.296875 
Q 5.515625 40.671875 12.859375 48.328125 
Q 20.21875 56 33.015625 56 
Q 37.15625 56 41.109375 55.140625 
Q 45.0625 54.296875 48.78125 52.59375 
z
" id="DejaVuSans-63"/>
      <path d="M 54.890625 33.015625 
L 54.890625 0 
L 45.90625 0 
L 45.90625 32.71875 
Q 45.90625 40.484375 42.875 44.328125 
Q 39.84375 48.1875 33.796875 48.1875 
Q 26.515625 48.1875 22.3125 43.546875 
Q 18.109375 38.921875 18.109375 30.90625 
L 18.109375 0 
L 9.078125 0 
L 9.078125 54.6875 
L 18.109375 54.6875 
L 18.109375 46.1875 
Q 21.34375 51.125 25.703125 53.5625 
Q 30.078125 56 35.796875 56 
Q 45.21875 56 50.046875 50.171875 
Q 54.890625 44.34375 54.890625 33.015625 
z
" id="DejaVuSans-6e"/>
      <path d="M 18.3125 70.21875 
L 18.3125 54.6875 
L 36.8125 54.6875 
L 36.8125 47.703125 
L 18.3125 47.703125 
L 18.3125 18.015625 
Q 18.3125 11.328125 20.140625 9.421875 
Q 21.96875 7.515625 27.59375 7.515625 
L 36.8125 7.515625 
L 36.8125 0 
L 27.59375 0 
Q 17.1875 0 13.234375 3.875 
Q 9.28125 7.765625 9.28125 18.015625 
L 9.28125 47.703125 
L 2.6875 47.703125 
L 2.6875 54.6875 
L 9.28125 54.6875 
L 9.28125 70.21875 
z
" id="DejaVuSans-74"/>
      <path d="M 34.28125 27.484375 
Q 23.390625 27.484375 19.1875 25 
Q 14.984375 22.515625 14.984375 16.5 
Q 14.984375 11.71875 18.140625 8.90625 
Q 21.296875 6.109375 26.703125 6.109375 
Q 34.1875 6.109375 38.703125 11.40625 
Q 43.21875 16.703125 43.21875 25.484375 
L 43.21875 27.484375 
z
M 52.203125 31.203125 
L 52.203125 0 
L 43.21875 0 
L 43.21875 8.296875 
Q 40.140625 3.328125 35.546875 0.953125 
Q 30.953125 -1.421875 24.3125 -1.421875 
Q 15.921875 -1.421875 10.953125 3.296875 
Q 6 8.015625 6 15.921875 
Q 6 25.140625 12.171875 29.828125 
Q 18.359375 34.515625 30.609375 34.515625 
L 43.21875 34.515625 
L 43.21875 35.40625 
Q 43.21875 41.609375 39.140625 45 
Q 35.0625 48.390625 27.6875 48.390625 
Q 23 48.390625 18.546875 47.265625 
Q 14.109375 46.140625 10.015625 43.890625 
L 10.015625 52.203125 
Q 14.9375 54.109375 19.578125 55.046875 
Q 24.21875 56 28.609375 56 
Q 40.484375 56 46.34375 49.84375 
Q 52.203125 43.703125 52.203125 31.203125 
z
" id="DejaVuSans-61"/>
      <path d="M 45.40625 27.984375 
Q 45.40625 37.75 41.375 43.109375 
Q 37.359375 48.484375 30.078125 48.484375 
Q 22.859375 48.484375 18.828125 43.109375 
Q 14.796875 37.75 14.796875 27.984375 
Q 14.796875 18.265625 18.828125 12.890625 
Q 22.859375 7.515625 30.078125 7.515625 
Q 37.359375 7.515625 41.375 12.890625 
Q 45.40625 18.265625 45.40625 27.984375 
z
M 54.390625 6.78125 
Q 54.390625 -7.171875 48.1875 -13.984375 
Q 42 -20.796875 29.203125 -20.796875 
Q 24.46875 -20.796875 20.265625 -20.09375 
Q 16.0625 -19.390625 12.109375 -17.921875 
L 12.109375 -9.1875 
Q 16.0625 -11.328125 19.921875 -12.34375 
Q 23.78125 -13.375 27.78125 -13.375 
Q 36.625 -13.375 41.015625 -8.765625 
Q 45.40625 -4.15625 45.40625 5.171875 
L 45.40625 9.625 
Q 42.625 4.78125 38.28125 2.390625 
Q 33.9375 0 27.875 0 
Q 17.828125 0 11.671875 7.65625 
Q 5.515625 15.328125 5.515625 27.984375 
Q 5.515625 40.671875 11.671875 48.328125 
Q 17.828125 56 27.875 56 
Q 33.9375 56 38.28125 53.609375 
Q 42.625 51.21875 45.40625 46.390625 
L 45.40625 54.6875 
L 54.390625 54.6875 
z
" id="DejaVuSans-67"/>
      <path id="DejaVuSans-20"/>
      <path d="M 30.609375 48.390625 
Q 23.390625 48.390625 19.1875 42.75 
Q 14.984375 37.109375 14.984375 27.296875 
Q 14.984375 17.484375 19.15625 11.84375 
Q 23.34375 6.203125 30.609375 6.203125 
Q 37.796875 6.203125 41.984375 11.859375 
Q 46.1875 17.53125 46.1875 27.296875 
Q 46.1875 37.015625 41.984375 42.703125 
Q 37.796875 48.390625 30.609375 48.390625 
z
M 30.609375 56 
Q 42.328125 56 49.015625 48.375 
Q 55.71875 40.765625 55.71875 27.296875 
Q 55.71875 13.875 49.015625 6.21875 
Q 42.328125 -1.421875 30.609375 -1.421875 
Q 18.84375 -1.421875 12.171875 6.21875 
Q 5.515625 13.875 5.515625 27.296875 
Q 5.515625 40.765625 12.171875 48.375 
Q 18.84375 56 30.609375 56 
z
" id="DejaVuSans-6f"/>
      <path d="M 37.109375 75.984375 
L 37.109375 68.5 
L 28.515625 68.5 
Q 23.6875 68.5 21.796875 66.546875 
Q 19.921875 64.59375 19.921875 59.515625 
L 19.921875 54.6875 
L 34.71875 54.6875 
L 34.71875 47.703125 
L 19.921875 47.703125 
L 19.921875 0 
L 10.890625 0 
L 10.890625 47.703125 
L 2.296875 47.703125 
L 2.296875 54.6875 
L 10.890625 54.6875 
L 10.890625 58.5 
Q 10.890625 67.625 15.140625 71.796875 
Q 19.390625 75.984375 28.609375 75.984375 
z
" id="DejaVuSans-66"/>
      <path d="M 8.5 21.578125 
L 8.5 54.6875 
L 17.484375 54.6875 
L 17.484375 21.921875 
Q 17.484375 14.15625 20.5 10.265625 
Q 23.53125 6.390625 29.59375 6.390625 
Q 36.859375 6.390625 41.078125 11.03125 
Q 45.3125 15.671875 45.3125 23.6875 
L 45.3125 54.6875 
L 54.296875 54.6875 
L 54.296875 0 
L 45.3125 0 
L 45.3125 8.40625 
Q 42.046875 3.421875 37.71875 1 
Q 33.40625 -1.421875 27.6875 -1.421875 
Q 18.265625 -1.421875 13.375 4.4375 
Q 8.5 10.296875 8.5 21.578125 
z
M 31.109375 56 
z
" id="DejaVuSans-75"/>
      <path d="M 45.40625 46.390625 
L 45.40625 75.984375 
L 54.390625 75.984375 
L 54.390625 0 
L 45.40625 0 
L 45.40625 8.203125 
Q 42.578125 3.328125 38.25 0.953125 
Q 33.9375 -1.421875 27.875 -1.421875 
Q 17.96875 -1.421875 11.734375 6.484375 
Q 5.515625 14.40625 5.515625 27.296875 
Q 5.515625 40.1875 11.734375 48.09375 
Q 17.96875 56 27.875 56 
Q 33.9375 56 38.25 53.625 
Q 42.578125 51.265625 45.40625 46.390625 
z
M 14.796875 27.296875 
Q 14.796875 17.390625 18.875 11.75 
Q 22.953125 6.109375 30.078125 6.109375 
Q 37.203125 6.109375 41.296875 11.75 
Q 45.40625 17.390625 45.40625 27.296875 
Q 45.40625 37.203125 41.296875 42.84375 
Q 37.203125 48.484375 30.078125 48.484375 
Q 22.953125 48.484375 18.875 42.84375 
Q 14.796875 37.203125 14.796875 27.296875 
z
" id="DejaVuSans-64"/>
      <path d="M 14.796875 27.296875 
Q 14.796875 17.390625 18.875 11.75 
Q 22.953125 6.109375 30.078125 6.109375 
Q 37.203125 6.109375 41.296875 11.75 
Q 45.40625 17.390625 45.40625 27.296875 
Q 45.40625 37.203125 41.296875 42.84375 
Q 37.203125 48.484375 30.078125 48.484375 
Q 22.953125 48.484375 18.875 42.84375 
Q 14.796875 37.203125 14.796875 27.296875 
z
M 45.40625 8.203125 
Q 42.578125 3.328125 38.25 0.953125 
Q 33.9375 -1.421875 27.875 -1.421875 
Q 17.96875 -1.421875 11.734375 6.484375 
Q 5.515625 14.40625 5.515625 27.296875 
Q 5.515625 40.1875 11.734375 48.09375 
Q 17.96875 56 27.875 56 
Q 33.9375 56 38.25 53.625 
Q 42.578125 51.265625 45.40625 46.390625 
L 45.40625 54.6875 
L 54.390625 54.6875 
L 54.390625 -20.796875 
L 45.40625 -20.796875 
z
" id="DejaVuSans-71"/>
      <path d="M 9.421875 54.6875 
L 18.40625 54.6875 
L 18.40625 0 
L 9.421875 0 
z
M 9.421875 75.984375 
L 18.40625 75.984375 
L 18.40625 64.59375 
L 9.421875 64.59375 
z
" id="DejaVuSans-69"/>
      <path d="M 44.28125 53.078125 
L 44.28125 44.578125 
Q 40.484375 46.53125 36.375 47.5 
Q 32.28125 48.484375 27.875 48.484375 
Q 21.1875 48.484375 17.84375 46.4375 
Q 14.5 44.390625 14.5 40.28125 
Q 14.5 37.15625 16.890625 35.375 
Q 19.28125 33.59375 26.515625 31.984375 
L 29.59375 31.296875 
Q 39.15625 29.25 43.1875 25.515625 
Q 47.21875 21.78125 47.21875 15.09375 
Q 47.21875 7.46875 41.1875 3.015625 
Q 35.15625 -1.421875 24.609375 -1.421875 
Q 20.21875 -1.421875 15.453125 -0.5625 
Q 10.6875 0.296875 5.421875 2 
L 5.421875 11.28125 
Q 10.40625 8.6875 15.234375 7.390625 
Q 20.0625 6.109375 24.8125 6.109375 
Q 31.15625 6.109375 34.5625 8.28125 
Q 37.984375 10.453125 37.984375 14.40625 
Q 37.984375 18.0625 35.515625 20.015625 
Q 33.0625 21.96875 24.703125 23.78125 
L 21.578125 24.515625 
Q 13.234375 26.265625 9.515625 29.90625 
Q 5.8125 33.546875 5.8125 39.890625 
Q 5.8125 47.609375 11.28125 51.796875 
Q 16.75 56 26.8125 56 
Q 31.78125 56 36.171875 55.265625 
Q 40.578125 54.546875 44.28125 53.078125 
z
" id="DejaVuSans-73"/>
     </defs>
     <g transform="translate(14.798438 194.243437)rotate(-90)scale(0.1 -0.1)">
      <use xlink:href="#DejaVuSans-70"/>
      <use x="63.476562" xlink:href="#DejaVuSans-65"/>
      <use x="125" xlink:href="#DejaVuSans-72"/>
      <use x="166.082031" xlink:href="#DejaVuSans-63"/>
      <use x="221.0625" xlink:href="#DejaVuSans-65"/>
      <use x="282.585938" xlink:href="#DejaVuSans-6e"/>
      <use x="345.964844" xlink:href="#DejaVuSans-74"/>
      <use x="385.173828" xlink:href="#DejaVuSans-61"/>
      <use x="446.453125" xlink:href="#DejaVuSans-67"/>
      <use x="509.929688" xlink:href="#DejaVuSans-65"/>
      <use x="571.453125" xlink:href="#DejaVuSans-20"/>
      <use x="603.240234" xlink:href="#DejaVuSans-6f"/>
      <use x="664.421875" xlink:href="#DejaVuSans-66"/>
      <use x="699.626953" xlink:href="#DejaVuSans-20"/>
      <use x="731.414062" xlink:href="#DejaVuSans-70"/>
      <use x="794.890625" xlink:href="#DejaVuSans-72"/>
      <use x="836.003906" xlink:href="#DejaVuSans-75"/>
      <use x="899.382812" xlink:href="#DejaVuSans-6e"/>
      <use x="962.761719" xlink:href="#DejaVuSans-65"/>
      <use x="1024.285156" xlink:href="#DejaVuSans-64"/>
      <use x="1087.761719" xlink:href="#DejaVuSans-20"/>
      <use x="1119.548828" xlink:href="#DejaVuSans-71"/>
      <use x="1183.025391" xlink:href="#DejaVuSans-75"/>
      <use x="1246.404297" xlink:href="#DejaVuSans-65"/>
      <use x="1307.927734" xlink:href="#DejaVuSans-72"/>
      <use x="1349.041016" xlink:href="#DejaVuSans-69"/>
      <use x="1376.824219" xlink:href="#DejaVuSans-65"/>
      <use x="1438.347656" xlink:href="#DejaVuSans-73"/>
     </g>
    </g>
   </g>
   <g id="line2d_13">
    <path clip-path="url(#p756a3e20be)" d="M 66.007813 228.439219 
L 99.487813 216.014076 
L 132.967813 200.482647 
L 166.447812 178.738647 
L 199.927813 147.67579 
L 233.407813 119.719219 
L 266.887812 97.975219 
L 300.367813 82.44379 
L 333.847813 73.124933 
L 367.327812 66.912362 
L 400.807813 26.530647 
" style="fill:none;stroke:#000000;stroke-dasharray:6.4,1.6,1,1.6;stroke-dashoffset:0;"/>
    <defs>
     <path d="M 0 3.5 
C 0.928211 3.5 1.81853 3.131218 2.474874 2.474874 
C 3.131218 1.81853 3.5 0.928211 3.5 0 
C 3.5 -0.928211 3.131218 -1.81853 2.474874 -2.474874 
C 1.81853 -3.131218 0.928211 -3.5 0 -3.5 
C -0.928211 -3.5 -1.81853 -3.131218 -2.474874 -2.474874 
C -3.131218 -1.81853 -3.5 -0.928211 -3.5 0 
C -3.5 0.928211 -3.131218 1.81853 -2.474874 2.474874 
C -1.81853 3.131218 -0.928211 3.5 0 3.5 
z
" id="mce5cc8e57b" style="stroke:#000000;"/>
    </defs>
    <g clip-path="url(#p756a3e20be)">
     <use style="stroke:#000000;" x="66.007813" xlink:href="#mce5cc8e57b" y="228.439219"/>
     <use style="stroke:#000000;" x="99.487813" xlink:href="#mce5cc8e57b" y="216.014076"/>
     <use style="stroke:#000000;" x="132.967813" xlink:href="#mce5cc8e57b" y="200.482647"/>
     <use style="stroke:#000000;" x="166.447812" xlink:href="#mce5cc8e57b" y="178.738647"/>
     <use style="stroke:#000000;" x="199.927813" xlink:href="#mce5cc8e57b" y="147.67579"/>
     <use style="stroke:#000000;" x="233.407813" xlink:href="#mce5cc8e57b" y="119.719219"/>
     <use style="stroke:#000000;" x="266.887812" xlink:href="#mce5cc8e57b" y="97.975219"/>
     <use style="stroke:#000000;" x="300.367813" xlink:href="#mce5cc8e57b" y="82.44379"/>
     <use style="stroke:#000000;" x="333.847813" xlink:href="#mce5cc8e57b" y="73.124933"/>
     <use style="stroke:#000000;" x="367.327812" xlink:href="#mce5cc8e57b" y="66.912362"/>
     <use style="stroke:#000000;" x="400.807813" xlink:href="#mce5cc8e57b" y="26.530647"/>
    </g>
   </g>
   <g id="line2d_14">
    <path clip-path="url(#p756a3e20be)" d="M 66.007813 228.439219 
L 99.487813 222.226647 
L 132.967813 219.120362 
L 166.447812 194.270076 
L 199.927813 156.994647 
L 233.407813 132.144362 
L 266.887812 122.825504 
L 300.367813 104.18779 
L 333.847813 82.44379 
L 367.327812 63.806076 
L 400.807813 26.530647 
" style="fill:none;stroke:#000000;stroke-dasharray:1,1.65;stroke-dashoffset:0;"/>
    <defs>
     <path d="M -3.5 3.5 
L 3.5 -3.5 
M -3.5 -3.5 
L 3.5 3.5 
" id="me0de5ab749" style="stroke:#000000;"/>
    </defs>
    <g clip-path="url(#p756a3e20be)">
     <use style="stroke:#000000;" x="66.007813" xlink:href="#me0de5ab749" y="228.439219"/>
     <use style="stroke:#000000;" x="99.487813" xlink:href="#me0de5ab749" y="222.226647"/>
     <use style="stroke:#000000;" x="132.967813" xlink:href="#me0de5ab749" y="219.120362"/>
     <use style="stroke:#000000;" x="166.447812" xlink:href="#me0de5ab749" y="194.270076"/>
     <use style="stroke:#000000;" x="199.927813" xlink:href="#me0de5ab749" y="156.994647"/>
     <use style="stroke:#000000;" x="233.407813" xlink:href="#me0de5ab749" y="132.144362"/>
     <use style="stroke:#000000;" x="266.887812" xlink:href="#me0de5ab749" y="122.825504"/>
     <use style="stroke:#000000;" x="300.367813" xlink:href="#me0de5ab749" y="104.18779"/>
     <use style="stroke:#000000;" x="333.847813" xlink:href="#me0de5ab749" y="82.44379"/>
     <use style="stroke:#000000;" x="367.327812" xlink:href="#me0de5ab749" y="63.806076"/>
     <use style="stroke:#000000;" x="400.807813" xlink:href="#me0de5ab749" y="26.530647"/>
    </g>
   </g>
   <g id="line2d_15">
    <path clip-path="url(#p756a3e20be)" d="M 66.007813 228.439219 
L 99.487813 228.439219 
L 132.967813 228.439219 
L 166.447812 209.801504 
L 199.927813 181.844933 
L 233.407813 135.250647 
L 266.887812 110.400362 
L 300.367813 104.18779 
L 333.847813 66.912362 
L 367.327812 66.912362 
L 400.807813 26.530647 
" style="fill:none;stroke:#000000;stroke-dasharray:6.4,1.6,1,1.6;stroke-dashoffset:0;"/>
    <defs>
     <path d="M 0 -3.5 
L -0.785799 -1.081559 
L -3.328698 -1.081559 
L -1.271449 0.413119 
L -2.057248 2.831559 
L -0 1.336881 
L 2.057248 2.831559 
L 1.271449 0.413119 
L 3.328698 -1.081559 
L 0.785799 -1.081559 
z
" id="m45dfcbc7ee" style="stroke:#000000;stroke-linejoin:bevel;"/>
    </defs>
    <g clip-path="url(#p756a3e20be)">
     <use style="stroke:#000000;stroke-linejoin:bevel;" x="66.007813" xlink:href="#m45dfcbc7ee" y="228.439219"/>
     <use style="stroke:#000000;stroke-linejoin:bevel;" x="99.487813" xlink:href="#m45dfcbc7ee" y="228.439219"/>
     <use style="stroke:#000000;stroke-linejoin:bevel;" x="132.967813" xlink:href="#m45dfcbc7ee" y="228.439219"/>
     <use style="stroke:#000000;stroke-linejoin:bevel;" x="166.447812" xlink:href="#m45dfcbc7ee" y="209.801504"/>
     <use style="stroke:#000000;stroke-linejoin:bevel;" x="199.927813" xlink:href="#m45dfcbc7ee" y="181.844933"/>
     <use style="stroke:#000000;stroke-linejoin:bevel;" x="233.407813" xlink:href="#m45dfcbc7ee" y="135.250647"/>
     <use style="stroke:#000000;stroke-linejoin:bevel;" x="266.887812" xlink:href="#m45dfcbc7ee" y="110.400362"/>
     <use style="stroke:#000000;stroke-linejoin:bevel;" x="300.367813" xlink:href="#m45dfcbc7ee" y="104.18779"/>
     <use style="stroke:#000000;stroke-linejoin:bevel;" x="333.847813" xlink:href="#m45dfcbc7ee" y="66.912362"/>
     <use style="stroke:#000000;stroke-linejoin:bevel;" x="367.327812" xlink:href="#m45dfcbc7ee" y="66.912362"/>
     <use style="stroke:#000000;stroke-linejoin:bevel;" x="400.807813" xlink:href="#m45dfcbc7ee" y="26.530647"/>
    </g>
   </g>
   <g id="line2d_16">
    <path clip-path="url(#p756a3e20be)" d="M 66.007813 228.439219 
L 99.487813 228.439219 
L 132.967813 228.439219 
L 166.447812 206.695219 
L 199.927813 184.951219 
L 233.407813 144.569504 
L 266.887812 113.506647 
L 300.367813 97.975219 
L 333.847813 76.231219 
L 367.327812 63.806076 
L 400.807813 26.530647 
" style="fill:none;stroke:#000000;stroke-linecap:square;"/>
    <defs>
     <path d="M -3.5 0 
L 3.5 0 
M 0 3.5 
L 0 -3.5 
" id="m763d39c2ee" style="stroke:#000000;"/>
    </defs>
    <g clip-path="url(#p756a3e20be)">
     <use style="stroke:#000000;" x="66.007813" xlink:href="#m763d39c2ee" y="228.439219"/>
     <use style="stroke:#000000;" x="99.487813" xlink:href="#m763d39c2ee" y="228.439219"/>
     <use style="stroke:#000000;" x="132.967813" xlink:href="#m763d39c2ee" y="228.439219"/>
     <use style="stroke:#000000;" x="166.447812" xlink:href="#m763d39c2ee" y="206.695219"/>
     <use style="stroke:#000000;" x="199.927813" xlink:href="#m763d39c2ee" y="184.951219"/>
     <use style="stroke:#000000;" x="233.407813" xlink:href="#m763d39c2ee" y="144.569504"/>
     <use style="stroke:#000000;" x="266.887812" xlink:href="#m763d39c2ee" y="113.506647"/>
     <use style="stroke:#000000;" x="300.367813" xlink:href="#m763d39c2ee" y="97.975219"/>
     <use style="stroke:#000000;" x="333.847813" xlink:href="#m763d39c2ee" y="76.231219"/>
     <use style="stroke:#000000;" x="367.327812" xlink:href="#m763d39c2ee" y="63.806076"/>
     <use style="stroke:#000000;" x="400.807813" xlink:href="#m763d39c2ee" y="26.530647"/>
    </g>
   </g>
   <g id="line2d_17">
    <path clip-path="url(#p756a3e20be)" d="M 66.007813 228.439219 
L 99.487813 228.439219 
L 132.967813 228.439219 
L 166.447812 228.439219 
L 199.927813 228.439219 
L 233.407813 228.439219 
L 266.887812 228.439219 
L 300.367813 228.439219 
L 333.847813 228.439219 
L 367.327812 228.439219 
L 400.807813 228.439219 
" style="fill:none;stroke:#000000;stroke-linecap:square;"/>
    <defs>
     <path d="M -3.5 3.5 
L 3.5 3.5 
L 3.5 -3.5 
L -3.5 -3.5 
z
" id="m8d9b5aa19e" style="stroke:#000000;stroke-linejoin:miter;"/>
    </defs>
    <g clip-path="url(#p756a3e20be)">
     <use style="stroke:#000000;stroke-linejoin:miter;" x="66.007813" xlink:href="#m8d9b5aa19e" y="228.439219"/>
     <use style="stroke:#000000;stroke-linejoin:miter;" x="99.487813" xlink:href="#m8d9b5aa19e" y="228.439219"/>
     <use style="stroke:#000000;stroke-linejoin:miter;" x="132.967813" xlink:href="#m8d9b5aa19e" y="228.439219"/>
     <use style="stroke:#000000;stroke-linejoin:miter;" x="166.447812" xlink:href="#m8d9b5aa19e" y="228.439219"/>
     <use style="stroke:#000000;stroke-linejoin:miter;" x="199.927813" xlink:href="#m8d9b5aa19e" y="228.439219"/>
     <use style="stroke:#000000;stroke-linejoin:miter;" x="233.407813" xlink:href="#m8d9b5aa19e" y="228.439219"/>
     <use style="stroke:#000000;stroke-linejoin:miter;" x="266.887812" xlink:href="#m8d9b5aa19e" y="228.439219"/>
     <use style="stroke:#000000;stroke-linejoin:miter;" x="300.367813" xlink:href="#m8d9b5aa19e" y="228.439219"/>
     <use style="stroke:#000000;stroke-linejoin:miter;" x="333.847813" xlink:href="#m8d9b5aa19e" y="228.439219"/>
     <use style="stroke:#000000;stroke-linejoin:miter;" x="367.327812" xlink:href="#m8d9b5aa19e" y="228.439219"/>
     <use style="stroke:#000000;stroke-linejoin:miter;" x="400.807813" xlink:href="#m8d9b5aa19e" y="228.439219"/>
    </g>
   </g>
   <g id="patch_3">
    <path d="M 66.007813 228.439219 
L 66.007813 10.999219 
" style="fill:none;stroke:#000000;stroke-linecap:square;stroke-linejoin:miter;stroke-width:0.8;"/>
   </g>
   <g id="patch_4">
    <path d="M 400.807813 228.439219 
L 400.807813 10.999219 
" style="fill:none;stroke:#000000;stroke-linecap:square;stroke-linejoin:miter;stroke-width:0.8;"/>
   </g>
   <g id="patch_5">
    <path d="M 66.007813 228.439219 
L 400.807813 228.439219 
" style="fill:none;stroke:#000000;stroke-linecap:square;stroke-linejoin:miter;stroke-width:0.8;"/>
   </g>
   <g id="patch_6">
    <path d="M 66.007813 10.999219 
L 400.807813 10.999219 
" style="fill:none;stroke:#000000;stroke-linecap:square;stroke-linejoin:miter;stroke-width:0.8;"/>
   </g>
   <g id="legend_1">
    <g id="line2d_18">
     <path d="M 75.007813 24.097656 
L 95.007813 24.097656 
" style="fill:none;stroke:#000000;stroke-dasharray:6.4,1.6,1,1.6;stroke-dashoffset:0;"/>
    </g>
    <g id="line2d_19">
     <g>
      <use style="stroke:#000000;" x="85.007813" xlink:href="#mce5cc8e57b" y="24.097656"/>
     </g>
    </g>
    <g id="text_15">
     <!-- DiVE-dSwap-Adaptive(0.80) -->
     <defs>
      <path d="M 19.671875 64.796875 
L 19.671875 8.109375 
L 31.59375 8.109375 
Q 46.6875 8.109375 53.6875 14.9375 
Q 60.6875 21.78125 60.6875 36.53125 
Q 60.6875 51.171875 53.6875 57.984375 
Q 46.6875 64.796875 31.59375 64.796875 
z
M 9.8125 72.90625 
L 30.078125 72.90625 
Q 51.265625 72.90625 61.171875 64.09375 
Q 71.09375 55.28125 71.09375 36.53125 
Q 71.09375 17.671875 61.125 8.828125 
Q 51.171875 0 30.078125 0 
L 9.8125 0 
z
" id="DejaVuSans-44"/>
      <path d="M 28.609375 0 
L 0.78125 72.90625 
L 11.078125 72.90625 
L 34.1875 11.53125 
L 57.328125 72.90625 
L 67.578125 72.90625 
L 39.796875 0 
z
" id="DejaVuSans-56"/>
      <path d="M 9.8125 72.90625 
L 55.90625 72.90625 
L 55.90625 64.59375 
L 19.671875 64.59375 
L 19.671875 43.015625 
L 54.390625 43.015625 
L 54.390625 34.71875 
L 19.671875 34.71875 
L 19.671875 8.296875 
L 56.78125 8.296875 
L 56.78125 0 
L 9.8125 0 
z
" id="DejaVuSans-45"/>
      <path d="M 4.890625 31.390625 
L 31.203125 31.390625 
L 31.203125 23.390625 
L 4.890625 23.390625 
z
" id="DejaVuSans-2d"/>
      <path d="M 53.515625 70.515625 
L 53.515625 60.890625 
Q 47.90625 63.578125 42.921875 64.890625 
Q 37.9375 66.21875 33.296875 66.21875 
Q 25.25 66.21875 20.875 63.09375 
Q 16.5 59.96875 16.5 54.203125 
Q 16.5 49.359375 19.40625 46.890625 
Q 22.3125 44.4375 30.421875 42.921875 
L 36.375 41.703125 
Q 47.40625 39.59375 52.65625 34.296875 
Q 57.90625 29 57.90625 20.125 
Q 57.90625 9.515625 50.796875 4.046875 
Q 43.703125 -1.421875 29.984375 -1.421875 
Q 24.8125 -1.421875 18.96875 -0.25 
Q 13.140625 0.921875 6.890625 3.21875 
L 6.890625 13.375 
Q 12.890625 10.015625 18.65625 8.296875 
Q 24.421875 6.59375 29.984375 6.59375 
Q 38.421875 6.59375 43.015625 9.90625 
Q 47.609375 13.234375 47.609375 19.390625 
Q 47.609375 24.75 44.3125 27.78125 
Q 41.015625 30.8125 33.5 32.328125 
L 27.484375 33.5 
Q 16.453125 35.6875 11.515625 40.375 
Q 6.59375 45.0625 6.59375 53.421875 
Q 6.59375 63.09375 13.40625 68.65625 
Q 20.21875 74.21875 32.171875 74.21875 
Q 37.3125 74.21875 42.625 73.28125 
Q 47.953125 72.359375 53.515625 70.515625 
z
" id="DejaVuSans-53"/>
      <path d="M 4.203125 54.6875 
L 13.1875 54.6875 
L 24.421875 12.015625 
L 35.59375 54.6875 
L 46.1875 54.6875 
L 57.421875 12.015625 
L 68.609375 54.6875 
L 77.59375 54.6875 
L 63.28125 0 
L 52.6875 0 
L 40.921875 44.828125 
L 29.109375 0 
L 18.5 0 
z
" id="DejaVuSans-77"/>
      <path d="M 34.1875 63.1875 
L 20.796875 26.90625 
L 47.609375 26.90625 
z
M 28.609375 72.90625 
L 39.796875 72.90625 
L 67.578125 0 
L 57.328125 0 
L 50.6875 18.703125 
L 17.828125 18.703125 
L 11.1875 0 
L 0.78125 0 
z
" id="DejaVuSans-41"/>
      <path d="M 2.984375 54.6875 
L 12.5 54.6875 
L 29.59375 8.796875 
L 46.6875 54.6875 
L 56.203125 54.6875 
L 35.6875 0 
L 23.484375 0 
z
" id="DejaVuSans-76"/>
      <path d="M 31 75.875 
Q 24.46875 64.65625 21.28125 53.65625 
Q 18.109375 42.671875 18.109375 31.390625 
Q 18.109375 20.125 21.3125 9.0625 
Q 24.515625 -2 31 -13.1875 
L 23.1875 -13.1875 
Q 15.875 -1.703125 12.234375 9.375 
Q 8.59375 20.453125 8.59375 31.390625 
Q 8.59375 42.28125 12.203125 53.3125 
Q 15.828125 64.359375 23.1875 75.875 
z
" id="DejaVuSans-28"/>
      <path d="M 8.015625 75.875 
L 15.828125 75.875 
Q 23.140625 64.359375 26.78125 53.3125 
Q 30.421875 42.28125 30.421875 31.390625 
Q 30.421875 20.453125 26.78125 9.375 
Q 23.140625 -1.703125 15.828125 -13.1875 
L 8.015625 -13.1875 
Q 14.5 -2 17.703125 9.0625 
Q 20.90625 20.125 20.90625 31.390625 
Q 20.90625 42.671875 17.703125 53.65625 
Q 14.5 64.65625 8.015625 75.875 
z
" id="DejaVuSans-29"/>
     </defs>
     <g transform="translate(103.007813 27.597656)scale(0.1 -0.1)">
      <use xlink:href="#DejaVuSans-44"/>
      <use x="77.001953" xlink:href="#DejaVuSans-69"/>
      <use x="104.785156" xlink:href="#DejaVuSans-56"/>
      <use x="173.193359" xlink:href="#DejaVuSans-45"/>
      <use x="236.376953" xlink:href="#DejaVuSans-2d"/>
      <use x="272.460938" xlink:href="#DejaVuSans-64"/>
      <use x="335.9375" xlink:href="#DejaVuSans-53"/>
      <use x="399.414062" xlink:href="#DejaVuSans-77"/>
      <use x="481.201172" xlink:href="#DejaVuSans-61"/>
      <use x="542.480469" xlink:href="#DejaVuSans-70"/>
      <use x="605.957031" xlink:href="#DejaVuSans-2d"/>
      <use x="642.009766" xlink:href="#DejaVuSans-41"/>
      <use x="710.402344" xlink:href="#DejaVuSans-64"/>
      <use x="773.878906" xlink:href="#DejaVuSans-61"/>
      <use x="835.158203" xlink:href="#DejaVuSans-70"/>
      <use x="898.634766" xlink:href="#DejaVuSans-74"/>
      <use x="937.84375" xlink:href="#DejaVuSans-69"/>
      <use x="965.626953" xlink:href="#DejaVuSans-76"/>
      <use x="1024.806641" xlink:href="#DejaVuSans-65"/>
      <use x="1086.330078" xlink:href="#DejaVuSans-28"/>
      <use x="1125.34375" xlink:href="#DejaVuSans-30"/>
      <use x="1188.966797" xlink:href="#DejaVuSans-2e"/>
      <use x="1220.753906" xlink:href="#DejaVuSans-38"/>
      <use x="1284.376953" xlink:href="#DejaVuSans-30"/>
      <use x="1348" xlink:href="#DejaVuSans-29"/>
     </g>
    </g>
    <g id="line2d_20">
     <path d="M 75.007813 38.775781 
L 95.007813 38.775781 
" style="fill:none;stroke:#000000;stroke-dasharray:1,1.65;stroke-dashoffset:0;"/>
    </g>
    <g id="line2d_21">
     <g>
      <use style="stroke:#000000;" x="85.007813" xlink:href="#me0de5ab749" y="38.775781"/>
     </g>
    </g>
    <g id="text_16">
     <!-- DiVE-dSwap-Adaptive(0.90) -->
     <defs>
      <path d="M 10.984375 1.515625 
L 10.984375 10.5 
Q 14.703125 8.734375 18.5 7.8125 
Q 22.3125 6.890625 25.984375 6.890625 
Q 35.75 6.890625 40.890625 13.453125 
Q 46.046875 20.015625 46.78125 33.40625 
Q 43.953125 29.203125 39.59375 26.953125 
Q 35.25 24.703125 29.984375 24.703125 
Q 19.046875 24.703125 12.671875 31.3125 
Q 6.296875 37.9375 6.296875 49.421875 
Q 6.296875 60.640625 12.9375 67.421875 
Q 19.578125 74.21875 30.609375 74.21875 
Q 43.265625 74.21875 49.921875 64.515625 
Q 56.59375 54.828125 56.59375 36.375 
Q 56.59375 19.140625 48.40625 8.859375 
Q 40.234375 -1.421875 26.421875 -1.421875 
Q 22.703125 -1.421875 18.890625 -0.6875 
Q 15.09375 0.046875 10.984375 1.515625 
z
M 30.609375 32.421875 
Q 37.25 32.421875 41.125 36.953125 
Q 45.015625 41.5 45.015625 49.421875 
Q 45.015625 57.28125 41.125 61.84375 
Q 37.25 66.40625 30.609375 66.40625 
Q 23.96875 66.40625 20.09375 61.84375 
Q 16.21875 57.28125 16.21875 49.421875 
Q 16.21875 41.5 20.09375 36.953125 
Q 23.96875 32.421875 30.609375 32.421875 
z
" id="DejaVuSans-39"/>
     </defs>
     <g transform="translate(103.007813 42.275781)scale(0.1 -0.1)">
      <use xlink:href="#DejaVuSans-44"/>
      <use x="77.001953" xlink:href="#DejaVuSans-69"/>
      <use x="104.785156" xlink:href="#DejaVuSans-56"/>
      <use x="173.193359" xlink:href="#DejaVuSans-45"/>
      <use x="236.376953" xlink:href="#DejaVuSans-2d"/>
      <use x="272.460938" xlink:href="#DejaVuSans-64"/>
      <use x="335.9375" xlink:href="#DejaVuSans-53"/>
      <use x="399.414062" xlink:href="#DejaVuSans-77"/>
      <use x="481.201172" xlink:href="#DejaVuSans-61"/>
      <use x="542.480469" xlink:href="#DejaVuSans-70"/>
      <use x="605.957031" xlink:href="#DejaVuSans-2d"/>
      <use x="642.009766" xlink:href="#DejaVuSans-41"/>
      <use x="710.402344" xlink:href="#DejaVuSans-64"/>
      <use x="773.878906" xlink:href="#DejaVuSans-61"/>
      <use x="835.158203" xlink:href="#DejaVuSans-70"/>
      <use x="898.634766" xlink:href="#DejaVuSans-74"/>
      <use x="937.84375" xlink:href="#DejaVuSans-69"/>
      <use x="965.626953" xlink:href="#DejaVuSans-76"/>
      <use x="1024.806641" xlink:href="#DejaVuSans-65"/>
      <use x="1086.330078" xlink:href="#DejaVuSans-28"/>
      <use x="1125.34375" xlink:href="#DejaVuSans-30"/>
      <use x="1188.966797" xlink:href="#DejaVuSans-2e"/>
      <use x="1220.753906" xlink:href="#DejaVuSans-39"/>
      <use x="1284.376953" xlink:href="#DejaVuSans-30"/>
      <use x="1348" xlink:href="#DejaVuSans-29"/>
     </g>
    </g>
    <g id="line2d_22">
     <path d="M 75.007813 53.453906 
L 95.007813 53.453906 
" style="fill:none;stroke:#000000;stroke-dasharray:6.4,1.6,1,1.6;stroke-dashoffset:0;"/>
    </g>
    <g id="line2d_23">
     <g>
      <use style="stroke:#000000;stroke-linejoin:bevel;" x="85.007813" xlink:href="#m45dfcbc7ee" y="53.453906"/>
     </g>
    </g>
    <g id="text_17">
     <!-- DiVE-dSwap-Adaptive(0.97) -->
     <defs>
      <path d="M 8.203125 72.90625 
L 55.078125 72.90625 
L 55.078125 68.703125 
L 28.609375 0 
L 18.3125 0 
L 43.21875 64.59375 
L 8.203125 64.59375 
z
" id="DejaVuSans-37"/>
     </defs>
     <g transform="translate(103.007813 56.953906)scale(0.1 -0.1)">
      <use xlink:href="#DejaVuSans-44"/>
      <use x="77.001953" xlink:href="#DejaVuSans-69"/>
      <use x="104.785156" xlink:href="#DejaVuSans-56"/>
      <use x="173.193359" xlink:href="#DejaVuSans-45"/>
      <use x="236.376953" xlink:href="#DejaVuSans-2d"/>
      <use x="272.460938" xlink:href="#DejaVuSans-64"/>
      <use x="335.9375" xlink:href="#DejaVuSans-53"/>
      <use x="399.414062" xlink:href="#DejaVuSans-77"/>
      <use x="481.201172" xlink:href="#DejaVuSans-61"/>
      <use x="542.480469" xlink:href="#DejaVuSans-70"/>
      <use x="605.957031" xlink:href="#DejaVuSans-2d"/>
      <use x="642.009766" xlink:href="#DejaVuSans-41"/>
      <use x="710.402344" xlink:href="#DejaVuSans-64"/>
      <use x="773.878906" xlink:href="#DejaVuSans-61"/>
      <use x="835.158203" xlink:href="#DejaVuSans-70"/>
      <use x="898.634766" xlink:href="#DejaVuSans-74"/>
      <use x="937.84375" xlink:href="#DejaVuSans-69"/>
      <use x="965.626953" xlink:href="#DejaVuSans-76"/>
      <use x="1024.806641" xlink:href="#DejaVuSans-65"/>
      <use x="1086.330078" xlink:href="#DejaVuSans-28"/>
      <use x="1125.34375" xlink:href="#DejaVuSans-30"/>
      <use x="1188.966797" xlink:href="#DejaVuSans-2e"/>
      <use x="1220.753906" xlink:href="#DejaVuSans-39"/>
      <use x="1284.376953" xlink:href="#DejaVuSans-37"/>
      <use x="1348" xlink:href="#DejaVuSans-29"/>
     </g>
    </g>
    <g id="line2d_24">
     <path d="M 75.007813 68.132031 
L 95.007813 68.132031 
" style="fill:none;stroke:#000000;stroke-linecap:square;"/>
    </g>
    <g id="line2d_25">
     <g>
      <use style="stroke:#000000;" x="85.007813" xlink:href="#m763d39c2ee" y="68.132031"/>
     </g>
    </g>
    <g id="text_18">
     <!-- DiVE-dSwap-Adaptive(Hypothetical) -->
     <defs>
      <path d="M 9.8125 72.90625 
L 19.671875 72.90625 
L 19.671875 43.015625 
L 55.515625 43.015625 
L 55.515625 72.90625 
L 65.375 72.90625 
L 65.375 0 
L 55.515625 0 
L 55.515625 34.71875 
L 19.671875 34.71875 
L 19.671875 0 
L 9.8125 0 
z
" id="DejaVuSans-48"/>
      <path d="M 32.171875 -5.078125 
Q 28.375 -14.84375 24.75 -17.8125 
Q 21.140625 -20.796875 15.09375 -20.796875 
L 7.90625 -20.796875 
L 7.90625 -13.28125 
L 13.1875 -13.28125 
Q 16.890625 -13.28125 18.9375 -11.515625 
Q 21 -9.765625 23.484375 -3.21875 
L 25.09375 0.875 
L 2.984375 54.6875 
L 12.5 54.6875 
L 29.59375 11.921875 
L 46.6875 54.6875 
L 56.203125 54.6875 
z
" id="DejaVuSans-79"/>
      <path d="M 54.890625 33.015625 
L 54.890625 0 
L 45.90625 0 
L 45.90625 32.71875 
Q 45.90625 40.484375 42.875 44.328125 
Q 39.84375 48.1875 33.796875 48.1875 
Q 26.515625 48.1875 22.3125 43.546875 
Q 18.109375 38.921875 18.109375 30.90625 
L 18.109375 0 
L 9.078125 0 
L 9.078125 75.984375 
L 18.109375 75.984375 
L 18.109375 46.1875 
Q 21.34375 51.125 25.703125 53.5625 
Q 30.078125 56 35.796875 56 
Q 45.21875 56 50.046875 50.171875 
Q 54.890625 44.34375 54.890625 33.015625 
z
" id="DejaVuSans-68"/>
      <path d="M 9.421875 75.984375 
L 18.40625 75.984375 
L 18.40625 0 
L 9.421875 0 
z
" id="DejaVuSans-6c"/>
     </defs>
     <g transform="translate(103.007813 71.632031)scale(0.1 -0.1)">
      <use xlink:href="#DejaVuSans-44"/>
      <use x="77.001953" xlink:href="#DejaVuSans-69"/>
      <use x="104.785156" xlink:href="#DejaVuSans-56"/>
      <use x="173.193359" xlink:href="#DejaVuSans-45"/>
      <use x="236.376953" xlink:href="#DejaVuSans-2d"/>
      <use x="272.460938" xlink:href="#DejaVuSans-64"/>
      <use x="335.9375" xlink:href="#DejaVuSans-53"/>
      <use x="399.414062" xlink:href="#DejaVuSans-77"/>
      <use x="481.201172" xlink:href="#DejaVuSans-61"/>
      <use x="542.480469" xlink:href="#DejaVuSans-70"/>
      <use x="605.957031" xlink:href="#DejaVuSans-2d"/>
      <use x="642.009766" xlink:href="#DejaVuSans-41"/>
      <use x="710.402344" xlink:href="#DejaVuSans-64"/>
      <use x="773.878906" xlink:href="#DejaVuSans-61"/>
      <use x="835.158203" xlink:href="#DejaVuSans-70"/>
      <use x="898.634766" xlink:href="#DejaVuSans-74"/>
      <use x="937.84375" xlink:href="#DejaVuSans-69"/>
      <use x="965.626953" xlink:href="#DejaVuSans-76"/>
      <use x="1024.806641" xlink:href="#DejaVuSans-65"/>
      <use x="1086.330078" xlink:href="#DejaVuSans-28"/>
      <use x="1125.34375" xlink:href="#DejaVuSans-48"/>
      <use x="1200.539062" xlink:href="#DejaVuSans-79"/>
      <use x="1259.71875" xlink:href="#DejaVuSans-70"/>
      <use x="1323.195312" xlink:href="#DejaVuSans-6f"/>
      <use x="1384.376953" xlink:href="#DejaVuSans-74"/>
      <use x="1423.585938" xlink:href="#DejaVuSans-68"/>
      <use x="1486.964844" xlink:href="#DejaVuSans-65"/>
      <use x="1548.488281" xlink:href="#DejaVuSans-74"/>
      <use x="1587.697266" xlink:href="#DejaVuSans-69"/>
      <use x="1615.480469" xlink:href="#DejaVuSans-63"/>
      <use x="1670.460938" xlink:href="#DejaVuSans-61"/>
      <use x="1731.740234" xlink:href="#DejaVuSans-6c"/>
      <use x="1759.523438" xlink:href="#DejaVuSans-29"/>
     </g>
    </g>
    <g id="line2d_26">
     <path d="M 75.007813 82.810156 
L 95.007813 82.810156 
" style="fill:none;stroke:#000000;stroke-linecap:square;"/>
    </g>
    <g id="line2d_27">
     <g>
      <use style="stroke:#000000;stroke-linejoin:miter;" x="85.007813" xlink:href="#m8d9b5aa19e" y="82.810156"/>
     </g>
    </g>
    <g id="text_19">
     <!-- DiVE-dSwap No Pruning -->
     <defs>
      <path d="M 9.8125 72.90625 
L 23.09375 72.90625 
L 55.421875 11.921875 
L 55.421875 72.90625 
L 64.984375 72.90625 
L 64.984375 0 
L 51.703125 0 
L 19.390625 60.984375 
L 19.390625 0 
L 9.8125 0 
z
" id="DejaVuSans-4e"/>
      <path d="M 19.671875 64.796875 
L 19.671875 37.40625 
L 32.078125 37.40625 
Q 38.96875 37.40625 42.71875 40.96875 
Q 46.484375 44.53125 46.484375 51.125 
Q 46.484375 57.671875 42.71875 61.234375 
Q 38.96875 64.796875 32.078125 64.796875 
z
M 9.8125 72.90625 
L 32.078125 72.90625 
Q 44.34375 72.90625 50.609375 67.359375 
Q 56.890625 61.8125 56.890625 51.125 
Q 56.890625 40.328125 50.609375 34.8125 
Q 44.34375 29.296875 32.078125 29.296875 
L 19.671875 29.296875 
L 19.671875 0 
L 9.8125 0 
z
" id="DejaVuSans-50"/>
     </defs>
     <g transform="translate(103.007813 86.310156)scale(0.1 -0.1)">
      <use xlink:href="#DejaVuSans-44"/>
      <use x="77.001953" xlink:href="#DejaVuSans-69"/>
      <use x="104.785156" xlink:href="#DejaVuSans-56"/>
      <use x="173.193359" xlink:href="#DejaVuSans-45"/>
      <use x="236.376953" xlink:href="#DejaVuSans-2d"/>
      <use x="272.460938" xlink:href="#DejaVuSans-64"/>
      <use x="335.9375" xlink:href="#DejaVuSans-53"/>
      <use x="399.414062" xlink:href="#DejaVuSans-77"/>
      <use x="481.201172" xlink:href="#DejaVuSans-61"/>
      <use x="542.480469" xlink:href="#DejaVuSans-70"/>
      <use x="605.957031" xlink:href="#DejaVuSans-20"/>
      <use x="637.744141" xlink:href="#DejaVuSans-4e"/>
      <use x="712.548828" xlink:href="#DejaVuSans-6f"/>
      <use x="773.730469" xlink:href="#DejaVuSans-20"/>
      <use x="805.517578" xlink:href="#DejaVuSans-50"/>
      <use x="865.804688" xlink:href="#DejaVuSans-72"/>
      <use x="906.917969" xlink:href="#DejaVuSans-75"/>
      <use x="970.296875" xlink:href="#DejaVuSans-6e"/>
      <use x="1033.675781" xlink:href="#DejaVuSans-69"/>
      <use x="1061.458984" xlink:href="#DejaVuSans-6e"/>
      <use x="1124.837891" xlink:href="#DejaVuSans-67"/>
     </g>
    </g>
   </g>
  </g>
 </g>
 <defs>
  <clipPath id="p756a3e20be">
   <rect height="217.44" width="334.8" x="66.007813" y="10.999219"/>
  </clipPath>
 </defs>
</svg>
